{
.appVersion = "3260";
.formatVersion = 3;
DisplayStrings = (
keyframes,
"var "
);
axes = (
{
name = Weight;
tag = wght;
},
{
name = Width;
tag = wdth;
}
);
customParameters = (
{
name = panose;
value = (
2,
11,
5,
3,
3,
4,
3,
2,
2,
4
);
},
{
name = unicodeRanges;
value = (
0,
1,
2,
29,
32
);
},
{
name = codePageRanges;
value = (
1252,
1250,
1254,
1257,
1258,
"bit 29"
);
},
{
name = fsType;
value = (
);
},
{
name = blueScale;
value = 0.0625;
},
{
name = glyphOrder;
value = (
.notdef,
space,
A,
B,
C,
D,
E,
F,
G,
H,
I,
J,
K,
L,
M,
N,
O,
P,
Q,
R,
S,
T,
U,
V,
W,
X,
Y,
Z,
a,
b,
c,
d,
e,
f,
g,
h,
i,
j,
k,
l,
m,
n,
o,
p,
q,
r,
s,
t,
u,
v,
w,
x,
y,
z,
Agrave,
Aacute,
Acircumflex,
Atilde,
Adieresis,
Amacron,
Abreve,
Aring,
uni01CD,
uni1EA0,
uni1EA2,
uni1EA4,
uni1EA6,
uni1EA8,
uni1EAA,
uni1EAC,
uni1EAE,
uni1EB0,
uni1EB2,
uni1EB4,
uni1EB6,
Aogonek,
AE,
Ccedilla,
Cacute,
Ccircumflex,
Ccaron,
Cdotaccent,
Dcaron,
uni1E0C,
uni1E0E,
Dcroat,
Egrave,
Eacute,
Ecircumflex,
Ecaron,
Edieresis,
Emacron,
Ebreve,
Edotaccent,
uni1EB8,
uni1EBA,
uni1EBC,
uni1EBE,
uni1EC0,
uni1EC2,
uni1EC4,
uni1EC6,
Eogonek,
Gcircumflex,
Gbreve,
Gdotaccent,
uni0122,
Gcaron,
uni1E20,
uni00470303,
Hcircumflex,
uni1E24,
uni1E2A,
Hbar,
Igrave,
Iacute,
Icircumflex,
Itilde,
Idieresis,
Imacron,
Idotaccent,
uni01CF,
uni1EC8,
uni1ECA,
Iogonek,
Jcircumflex,
uni0136,
Lacute,
Lcaron,
uni013B,
Ldot,
uni1E36,
uni1E38,
uni1E3A,
Lslash,
uni1E42,
Nacute,
Ncaron,
Ntilde,
uni0145,
uni1E44,
uni1E46,
uni1E48,
Ograve,
Oacute,
Ocircumflex,
Otilde,
Odieresis,
Omacron,
Ohungarumlaut,
uni01D1,
uni1ECC,
uni1ECE,
uni1ED0,
uni1ED2,
uni1ED4,
uni1ED6,
uni1ED8,
Oslash,
OE,
Ohorn,
uni1EDA,
uni1EDC,
uni1EDE,
uni1EE0,
uni1EE2,
uni01EA,
Racute,
Rcaron,
uni0156,
uni1E5A,
uni1E5C,
uni1E5E,
Sacute,
Scircumflex,
Scaron,
uni015E,
uni0218,
uni1E60,
uni1E62,
uni1E9E,
Tcaron,
uni0162,
uni021A,
uni1E6C,
uni1E6E,
Ugrave,
Uacute,
Ucircumflex,
Utilde,
Udieresis,
Umacron,
Ubreve,
Uring,
Uhungarumlaut,
uni01D3,
uni01D5,
uni01D7,
uni01D9,
uni01DB,
uni1EE4,

glyphs = (
{
glyphname = A;
kernLeft = A;
kernRight = A;
lastChange = "2023-11-07 07:31:52 +0000";
layers = (
{
hints = (
{
horizontal = 1;
place = (0,21);
target = up;
type = BottomGhost;
},
{
horizontal = 1;
place = (200,67);
type = Stem;
},
{
horizontal = 1;
place = (588,68);
type = Stem;
},
{
place = (0,538);
type = Stem;
}
);
layerId = "8B4EFE1E-6C47-485C-9646-016EA71CC488";
shapes = (
{
closed = 1;
nodes = (
(169,267,l),
(201,367,ls),
(224,440,o),
(245,512,o),
(266,588,c),
(270,588,l),
(291,512,o),
(312,440,o),
(335,367,cs),
(366,267,l)
);
},
{
closed = 1;
nodes = (
(450,0,l),
(538,0,l),
(316,656,l),
(222,656,l),
(0,0,l),
(85,0,l),
(148,200,l),
(387,200,l)
);
}
);
width = 538;
}
);
note = A;
unicode = 65;
},
{
glyphname = B;
kernRight = B;
lastChange = "2023-11-07 07:31:52 +0000";
layers = (
{
hints = (
{
horizontal = 1;
place = (0,66);
type = Stem;
},
{
horizontal = 1;
place = (314,62);
type = Stem;
},
{
horizontal = 1;
place = (590,66);
type = Stem;
},
{
place = (87,84);
type = Stem;
},
{
place = (463,82);
type = Stem;
},
{
place = (426,82);
type = Stem;
}
);
layerId = "8B4EFE1E-6C47-485C-9646-016EA71CC488";
shapes = (
{
closed = 1;
nodes = (
(87,0,l),
(297,0,ls),
(443,0,o),
(545,63,o),
(545,192,cs),
(545,282,o),
(489,334,o),
(393,349,c),
(393,353,l),
(471,373,o),
(508,431,o),
(508,496,cs),
(508,611,o),
(415,656,o),
(282,656,cs),
(87,656,l)
);
},
{
closed = 1;
nodes = (
(171,376,l),
(171,590,l),
(272,590,ls),
(373,590,o),
(426,560,o),
(426,489,cs),
(426,416,o),
(379,376,o),
(268,376,cs)
);
},
{
closed = 1;
nodes = (
(171,66,l),
(171,314,l),
(285,314,ls),
(400,314,o),
(463,277,o),
(463,196,cs),
(463,107,o),
(397,66,o),
(285,66,cs)
);
}
);
width = 583;
}
);
note = B;
unicode = 66;
},
{
glyphname = C;
kernLeft = C;
kernRight = C;
lastChange = "2023-11-07 07:31:52 +0000";
layers = (
{
hints = (
{
horizontal = 1;
place = (-12,73);
type = Stem;
},
{
horizontal = 1;
place = (595,73);
type = Stem;
},
{
place = (49,86);
type = Stem;
}
);
layerId = "8B4EFE1E-6C47-485C-9646-016EA71CC488";
shapes = (
{
closed = 1;
nodes = (
(49,114,o),
(172,-12,o),
(337,-12,cs),
(420,-12,o),
(485,23,o),
(536,83,c),
(489,134,l),
(447,87,o),
(401,61,o),
(339,61,cs),
(214,61,o),
(135,165,o),
(135,330,cs),
(135,493,o),
(218,595,o),
(343,595,cs),
(397,595,o),
(439,571,o),
(474,534,c),
(521,587,l),
(482,630,o),
(420,668,o),
(342,668,cs),
(174,668,o),
(49,539,o),
(49,328,cs)
);
}
);
width = 566;
}
);
note = C;
unicode = 67;
},
{
glyphname = D;
kernRight = D;
lastChange = "2023-11-07 07:31:52 +0000";
layers = (
{
hints = (
{
horizontal = 1;
place = (0,68);
type = Stem;
},
{
horizontal = 1;
place = (588,68);
type = Stem;
},
{
place = (87,84);
type = Stem;
},
{
place = (475,86);
type = Stem;
}
);
layerId = "8B4EFE1E-6C47-485C-9646-016EA71CC488";
shapes = (
{
closed = 1;
nodes = (
(87,0,l),
(255,0,ls),
(453,0,o),
(561,122,o),
(561,331,cs),
(561,539,o),
(453,656,o),
(251,656,cs),
(87,656,l)
);
},
{
closed = 1;
nodes = (
(171,68,l),
(171,588,l),
(245,588,ls),
(399,588,o),
(475,496,o),
(475,331,cs),
(475,165,o),
(399,68,o),
(245,68,cs)
);
}
);
width = 612;
}
);
note = D;
unicode = 68;
},
{
glyphname = E;
lastChange = "2023-11-07 07:31:52 +0000";
layers = (
{
hints = (
{
horizontal = 1;
place = (0,71);
type = Stem;
},
{
horizontal = 1;
place = (309,71);
type = Stem;
},
{
horizontal = 1;
place = (586,70);
type = Stem;
},
{
place = (87,84);
type = Stem;
}
);
layerId = "8B4EFE1E-6C47-485C-9646-016EA71CC488";
shapes = (
{
closed = 1;
nodes = (
(87,0,l),
(475,0,l),
(475,71,l),
(171,71,l),
(171,309,l),
(419,309,l),
(419,380,l),
(171,380,l),
(171,586,l),
(465,586,l),
(465,656,l),
(87,656,l)
);
}
);
width = 522;
}
);
note = E;
unicode = 69;
},
{
glyphname = F;
kernRight = F;
lastChange = "2023-11-07 07:31:52 +0000";
layers = (
{
hints = (
{
horizontal = 1;
place = (0,21);
target = up;
type = BottomGhost;
},
{
horizontal = 1;
place = (294,70);
type = Stem;
},
{
horizontal = 1;
place = (586,70);
type = Stem;
},
{
place = (87,84);
type = Stem;
}
);
layerId = "8B4EFE1E-6C47-485C-9646-016EA71CC488";
shapes = (
{
closed = 1;
nodes = (
(87,0,l),
(171,0,l),
(171,294,l),
(421,294,l),
(421,364,l),
(171,364,l),
(171,586,l),
(466,586,l),
(466,656,l),
(87,656,l)
);
}
);
width = 489;
}
);
note = F;
unicode = 70;
},
{
glyphname = G;
kernLeft = C;
kernRight = G;
lastChange = "2023-11-07 07:31:52 +0000";
layers = (
{
hints = (
{
horizontal = 1;
place = (-12,73);
type = Stem;
},
{
horizontal = 1;
place = (271,69);
type = Stem;
},
{
horizontal = 1;
place = (595,73);
type = Stem;
},
{
place = (49,86);
type = Stem;
},
{
place = (472,76);
type = Stem;
}
);
layerId = "8B4EFE1E-6C47-485C-9646-016EA71CC488";
shapes = (
{
closed = 1;
nodes = (
(49,114,o),
(172,-12,o),
(344,-12,cs),
(432,-12,o),
(505,22,o),
(548,64,c),
(548,340,l),
(333,340,l),
(333,271,l),
(472,271,l),
(472,100,l),
(446,76,o),
(400,61,o),
(353,61,cs),
(213,61,o),
(135,165,o),
(135,330,cs),
(135,493,o),
(220,595,o),
(353,595,cs),
(418,595,o),
(459,569,o),
(492,534,c),
(540,587,l),
(501,627,o),
(441,668,o),
(352,668,cs),
(176,668,o),
(49,539,o),
(49,328,cs)
);
}
);
width = 612;
}
);
note = G;
unicode = 71;
},
{
glyphname = H;
lastChange = "2023-11-07 07:31:52 +0000";
layers = (
{
hints = (
{
horizontal = 1;
place = (0,21);
target = up;
type = BottomGhost;
},
{
horizontal = 1;
place = (309,72);
type = Stem;
},
{
horizontal = 1;
place = (656,-20);
target = down;
type = TopGhost;
},
{
place = (87,84);
type = Stem;
},
{
place = (476,83);
type = Stem;
}
);
layerId = "8B4EFE1E-6C47-485C-9646-016EA71CC488";
shapes = (
{
closed = 1;
nodes = (
(87,0,l),
(171,0,l),
(171,309,l),
(476,309,l),
(476,0,l),
(559,0,l),
(559,656,l),
(476,656,l),
(476,381,l),
(171,381,l),
(171,656,l),
(87,656,l)
);
}
);
width = 650;
}
);
note = H;
unicode = 72;
},
{
glyphname = I;
lastChange = "2023-11-07 07:31:52 +0000";
layers = (
{
hints = (
{
horizontal = 1;
place = (0,21);
target = up;
type = BottomGhost;
},
{
horizontal = 1;
place = (656,-20);
target = down;
type = TopGhost;
},
{
place = (87,84);
type = Stem;
}
);
layerId = "8B4EFE1E-6C47-485C-9646-016EA71CC488";
shapes = (
{
closed = 1;
nodes = (
(87,0,l),
(171,0,l),
(171,656,l),
(87,656,l)
);
}
);
width = 258;
}
);
note = I;
unicode = 73;
},
{
glyphname = J;
kernLeft = J;
kernRight = J;
lastChange = "2023-11-07 07:31:52 +0000";
layers = (
{
hints = (
{
horizontal = 1;
place = (-12,73);
type = Stem;
},
{
horizontal = 1;
place = (656,-20);
target = down;
type = TopGhost;
},
{
place = (307,83);
type = Stem;
}
);
layerId = "8B4EFE1E-6C47-485C-9646-016EA71CC488";
shapes = (
{
closed = 1;
nodes = (
(29,93,l),
(67,24,o),
(126,-12,o),
(209,-12,cs),
(338,-12,o),
(390,80,o),
(390,193,cs),
(390,656,l),
(307,656,l),
(307,201,ls),
(307,101,o),
(272,61,o),
(202,61,cs),
(155,61,o),
(118,83,o),
(88,135,c)
);
}
);
width = 474;
}
);
note = J;
unicode = 74;
},
{
glyphname = K;
kernRight = K;
lastChange = "2023-11-07 07:31:52 +0000";
layers = (
{
hints = (
{
horizontal = 1;
place = (0,21);
target = up;
type = BottomGhost;
},
{
horizontal = 1;
place = (656,-20);
target = down;
type = TopGhost;
},
{
place = (87,84);
type = Stem;
}
);
layerId = "8B4EFE1E-6C47-485C-9646-016EA71CC488";
shapes = (
{
closed = 1;
nodes = (
(87,0,l),
(171,0,l),
(171,208,l),
(283,341,l),
(479,0,l),
(572,0,l),
(335,406,l),
(541,656,l),
(446,656,l),
(173,327,l),
(171,327,l),
(171,656,l),
(87,656,l)
);
}
);
width = 574;
}
);
note = K;
unicode = 75;
},
{
glyphname = L;
kernRight = L;
lastChange = "2023-11-07 07:31:52 +0000";
layers = (
{
hints = (
{
horizontal = 1;
place = (0,71);
type = Stem;
},
{
horizontal = 1;
place = (656,-20);
target = down;
type = TopGhost;
},
{
place = (87,84);
type = Stem;
}
);
layerId = "8B4EFE1E-6C47-485C-9646-016EA71CC488";
shapes = (
{
closed = 1;
nodes = (
(87,0,l),
(457,0,l),
(457,71,l),
(171,71,l),
(171,656,l),
(87,656,l)
);
}
);
width = 481;
}
);
note = L;
unicode = 76;
},
{
glyphname = M;
lastChange = "2023-11-07 07:31:52 +0000";
layers = (
{
hints = (
{
horizontal = 1;
place = (0,21);
target = up;
type = BottomGhost;
},
{
horizontal = 1;
place = (66,104);
type = Stem;
},
{
horizontal = 1;
place = (555,101);
type = Stem;
},
{
place = (87,77);
type = Stem;
},
{
place = (555,79);
type = Stem;
}
);
layerId = "8B4EFE1E-6C47-485C-9646-016EA71CC488";
shapes = (
{
closed = 1;
nodes = (
(87,0,l),
(164,0,l),
(164,361,ls),
(164,419,o),
(158,497,o),
(154,555,c),
(158,555,l),
(210,409,l),
(336,66,l),
(384,66,l),
(510,409,l),
(562,555,l),
(566,555,l),
(562,497,o),
(555,419,o),
(555,361,cs),
(555,0,l),
(634,0,l),
(634,656,l),
(536,656,l),
(410,304,l),
(364,170,l),
(360,170,l),
(313,304,l),
(186,656,l),
(87,656,l)
);
}
);
width = 722;
}
);
note = M;
unicode = 77;
},
{
glyphname = N;
lastChange = "2023-11-07 07:31:52 +0000";
layers = (
{
hints = (
{
horizontal = 1;
place = (0,21);
target = up;
type = BottomGhost;
},
{
horizontal = 1;
place = (656,-20);
target = down;
type = TopGhost;
},
{
place = (87,79);
type = Stem;
},
{
place = (475,79);
type = Stem;
},
{
horizontal = 1;
place = (548,108);
type = Stem;
},
{
horizontal = 1;
place = (0,108);
type = Stem;
}
);
layerId = "8B4EFE1E-6C47-485C-9646-016EA71CC488";
shapes = (
{
closed = 1;
nodes = (
(87,0,l),
(166,0,l),
(166,343,ls),
(166,412,o),
(160,482,o),
(156,548,c),
(160,548,l),
(231,413,l),
(468,0,l),
(554,0,l),
(554,656,l),
(475,656,l),
(475,317,ls),
(475,248,o),
(482,174,o),
(486,108,c),
(482,108,l),
(411,244,l),
(173,656,l),
(87,656,l)
);
}
);
width = 642;
}
);
note = N;
unicode = 78;
},
{
glyphname = O;
kernLeft = C;
kernRight = D;
lastChange = "2023-11-07 07:31:52 +0000";
layers = (
{
hints = (
{
horizontal = 1;
place = (-12,73);
type = Stem;
},
{
horizontal = 1;
place = (595,73);
type = Stem;
},
{
place = (49,86);
type = Stem;
},
{
place = (524,86);
type = Stem;
}
);
layerId = "8B4EFE1E-6C47-485C-9646-016EA71CC488";
shapes = (
{
closed = 1;
nodes = (
(494,-12,o),
(610,120,o),
(610,331,cs),
(610,540,o),
(494,668,o),
(330,668,cs),
(165,668,o),
(49,541,o),
(49,331,cs),
(49,120,o),
(165,-12,o),
(330,-12,cs)
);
},
{
closed = 1;
nodes = (
(212,61,o),
(135,167,o),
(135,331,cs),
(135,494,o),
(212,595,o),
(330,595,cs),
(447,595,o),
(524,494,o),
(524,331,cs),
(524,167,o),
(447,61,o),
(330,61,cs)
);
}
);
width = 659;
}
);
note = O;
unicode = 79;
},
{
glyphname = P;
kernRight = P;
lastChange = "2023-11-07 07:31:52 +0000";
layers = (
{
hints = (
{
horizontal = 1;
place = (0,21);
target = up;
type = BottomGhost;
},
{
horizontal = 1;
place = (260,68);
type = Stem;
},
{
horizontal = 1;
place = (589,67);
type = Stem;
},
{
place = (87,84);
type = Stem;
},
{
place = (448,83);
type = Stem;
}
);
layerId = "8B4EFE1E-6C47-485C-9646-016EA71CC488";
shapes = (
{
closed = 1;
nodes = (
(87,0,l),
(171,0,l),
(171,260,l),
(289,260,ls),
(432,260,o),
(531,325,o),
(531,463,cs),
(531,607,o),
(434,656,o),
(289,656,cs),
(87,656,l)
);
},
{
closed = 1;
nodes = (
(171,328,l),
(171,589,l),
(278,589,ls),
(391,589,o),
(448,558,o),
(448,463,cs),
(448,370,o),
(393,328,o),
(278,328,cs)
);
}
);
width = 571;
}
);
note = P;
unicode = 80;
},
{
glyphname = Q;
kernLeft = C;
kernRight = D;
lastChange = "2023-11-07 07:31:52 +0000";
layers = (
{
hints = (
{
horizontal = 1;
place = (-164,70);
type = Stem;
},
{
horizontal = 1;
place = (-8,69);
type = Stem;
},
{
horizontal = 1;
place = (595,73);
type = Stem;
},
{
place = (48,86);
type = Stem;
},
{
place = (522,87);
type = Stem;
}
);
layerId = "8B4EFE1E-6C47-485C-9646-016EA71CC488";
shapes = (
{
closed = 1;
nodes = (
(134,494,o),
(211,595,o),
(328,595,cs),
(445,595,o),
(522,494,o),
(522,331,cs),
(522,167,o),
(445,61,o),
(328,61,cs),
(211,61,o),
(134,167,o),
(134,331,cs)
);
},
{
closed = 1;
nodes = (
(607,-84,l),
(589,-89,o),
(567,-94,o),
(538,-94,cs),
(467,-94,o),
(407,-66,o),
(377,-8,c),
(516,16,o),
(609,142,o),
(609,331,cs),
(609,540,o),
(493,668,o),
(328,668,cs),
(163,668,o),
(48,541,o),
(48,331,cs),
(48,138,o),
(144,11,o),
(287,-9,c),
(325,-99,o),
(408,-164,o),
(529,-164,cs),
(568,-164,o),
(603,-156,o),
(623,-149,c)
);
}
);
width = 659;
}
);
note = Q;
unicode = 81;
},
{
glyphname = R;
kernRight = R;
lastChange = "2023-11-07 07:31:52 +0000";
layers = (
{
hints = (
{
horizontal = 1;
place = (0,21);
target = up;
type = BottomGhost;
},
{
horizontal = 1;
place = (277,68);
type = Stem;
},
{
horizontal = 1;
place = (589,67);
type = Stem;
},
{
place = (87,84);
type = Stem;
},
{
place = (439,83);
type = Stem;
}
);
layerId = "8B4EFE1E-6C47-485C-9646-016EA71CC488";
shapes = (
{
closed = 1;
nodes = (
(171,589,l),
(281,589,ls),
(383,589,o),
(439,558,o),
(439,472,cs),
(439,387,o),
(383,345,o),
(281,345,cs),
(171,345,l)
);
},
{
closed = 1;
nodes = (
(542,0,l),
(375,286,l),
(464,309,o),
(522,370,o),
(522,472,cs),
(522,608,o),
(426,656,o),
(293,656,cs),
(87,656,l),
(87,0,l),
(171,0,l),
(171,277,l),
(289,277,l),
(447,0,l)
);
}
);
width = 576;
}
);
note = R;
unicode = 82;
},
{
glyphname = S;
kernLeft = S;
kernRight = S;
lastChange = "2023-11-07 07:31:52 +0000";
layers = (
{
hints = (
{
horizontal = 1;
place = (-12,73);
type = Stem;
},
{
horizontal = 1;
place = (595,73);
type = Stem;
},
{
place = (71,84);
type = Stem;
},
{
place = (408,85);
type = Stem;
}
);
layerId = "8B4EFE1E-6C47-485C-9646-016EA71CC488";
shapes = (
{
closed = 1;
nodes = (
(40,85,l),
(97,26,o),
(177,-12,o),
(269,-12,cs),
(407,-12,o),
(493,71,o),
(493,175,cs),
(493,272,o),
(434,317,o),
(358,350,cs),
(264,390,ls),
(213,412,o),
(155,436,o),
(155,499,cs),
(155,558,o),
(204,595,o),
(278,595,cs),
(338,595,o),
(387,571,o),
(427,533,c),
(471,587,l),
(425,635,o),
(356,668,o),
(278,668,cs),
(159,668,o),
(71,594,o),
(71,494,cs),
(71,398,o),
(143,351,o),
(204,325,cs),
(298,284,ls),
(360,256,o),
(408,235,o),
(408,168,cs),
(408,104,o),
(357,61,o),
(271,61,cs),
(202,61,o),
(137,94,o),
(90,143,c)
);
}
);
width = 529;
}
);
note = S;
unicode = 83;
},
{
glyphname = T;
kernLeft = T;
kernRight = T;
lastChange = "2023-11-07 07:31:52 +0000";
layers = (
{
hints = (
{
horizontal = 1;
place = (0,21);
target = up;
type = BottomGhost;
},
{
horizontal = 1;
place = (586,70);
type = Stem;
},
{
place = (224,83);
type = Stem;
}
);
layerId = "8B4EFE1E-6C47-485C-9646-016EA71CC488";
shapes = (
{
closed = 1;
nodes = (
(224,0,l),
(307,0,l),
(307,586,l),
(506,586,l),
(506,656,l),
(25,656,l),
(25,586,l),
(224,586,l)
);
}
);
width = 531;
}
);
note = T;
unicode = 84;
},
{
glyphname = U;
kernLeft = U;
kernRight = U;
lastChange = "2023-11-07 07:31:52 +0000";
layers = (
{
hints = (
{
horizontal = 1;
place = (-12,73);
type = Stem;
},
{
horizontal = 1;
place = (656,-20);
target = down;
type = TopGhost;
},
{
place = (84,84);
type = Stem;
},
{
place = (476,80);
type = Stem;
}
);
layerId = "8B4EFE1E-6C47-485C-9646-016EA71CC488";
shapes = (
{
closed = 1;
nodes = (
(84,271,ls),
(84,60,o),
(186,-12,o),
(320,-12,cs),
(454,-12,o),
(556,60,o),
(556,271,cs),
(556,656,l),
(476,656,l),
(476,269,ls),
(476,111,o),
(407,61,o),
(320,61,cs),
(235,61,o),
(168,111,o),
(168,269,cs),
(168,656,l),
(84,656,l)
);
}
);
width = 640;
}
);
note = U;
unicode = 85;
},
{
glyphname = V;
kernLeft = V;
kernRight = V;
lastChange = "2023-11-07 07:31:52 +0000";
layers = (
{
hints = (
{
horizontal = 1;
place = (0,85);
type = Stem;
},
{
horizontal = 1;
place = (656,-20);
target = down;
type = TopGhost;
},
{
place = (-2,514);
type = Stem;
}
);
layerId = "8B4EFE1E-6C47-485C-9646-016EA71CC488";
shapes = (
{
closed = 1;
nodes = (
(207,0,l),
(304,0,l),
(512,656,l),
(427,656,l),
(322,302,ls),
(300,224,o),
(283,162,o),
(259,85,c),
(255,85,l),
(231,162,o),
(215,224,o),
(192,302,cs),
(86,656,l),
(-2,656,l)
);
}
);
width = 510;
}
);
note = V;
unicode = 86;
},
{
glyphname = W;
kernLeft = W;
kernRight = W;
lastChange = "2023-11-07 07:31:52 +0000";
layers = (
{
hints = (
{
horizontal = 1;
place = (0,87);
type = Stem;
},
{
horizontal = 1;
place = (656,-20);
target = down;
type = TopGhost;
},
{
place = (20,740);
type = Stem;
},
{
horizontal = 1;
place = (544,112);
type = Stem;
}
);
layerId = "8B4EFE1E-6C47-485C-9646-016EA71CC488";
shapes = (
{
closed = 1;
nodes = (
(159,0,l),
(258,0,l),
(356,395,ls),
(367,446,o),
(378,493,o),
(389,544,c),
(393,544,l),
(402,493,o),
(413,446,o),
(424,395,cs),
(523,0,l),
(624,0,l),
(760,656,l),
(679,656,l),
(610,299,ls),
(598,229,o),
(586,158,o),
(573,87,c),
(569,87,l),
(553,158,o),
(537,230,o),
(522,299,c),
(431,656,l),
(355,656,l),
(264,299,ls),
(248,229,o),
(232,158,o),
(218,87,c),
(214,87,l),
(201,158,o),
(188,228,o),
(175,299,cs),
(106,656,l),
(20,656,l)
);
}
);
width = 781;
}
);
note = W;
unicode = 87;
},
{
glyphname = X;
kernLeft = X;
kernRight = X;
lastChange = "2023-11-07 07:31:52 +0000";
layers = (
{
hints = (
{
horizontal = 1;
place = (0,21);
target = up;
type = BottomGhost;
},
{
horizontal = 1;
place = (656,-20);
target = down;
type = TopGhost;
},
{
place = (13,483);
type = Stem;
}
);
layerId = "8B4EFE1E-6C47-485C-9646-016EA71CC488";
shapes = (
{
closed = 1;
nodes = (
(13,0,l),
(100,0,l),
(195,177,ls),
(212,209,o),
(228,242,o),
(247,282,c),
(251,282,l),
(272,242,o),
(290,209,o),
(307,177,cs),
(404,0,l),
(496,0,l),
(305,335,l),
(483,656,l),
(395,656,l),
(308,488,ls),
(292,458,o),
(280,431,o),
(262,393,c),
(258,393,l),
(237,431,o),
(223,458,o),
(207,488,cs),
(117,656,l),
(25,656,l),
(204,339,l)
);
}
);
width = 508;
}
);
note = X;
unicode = 88;
},
{
glyphname = Y;
kernLeft = Y;
kernRight = Y;
lastChange = "2023-11-07 07:31:52 +0000";
layers = (
{
hints = (
{
horizontal = 1;
place = (0,21);
target = up;
type = BottomGhost;
},
{
horizontal = 1;
place = (656,-20);
target = down;
type = TopGhost;
},
{
place = (194,83);
type = Stem;
}
);
layerId = "8B4EFE1E-6C47-485C-9646-016EA71CC488";
shapes = (
{
closed = 1;
nodes = (
(194,0,l),
(277,0,l),
(277,254,l),
(474,656,l),
(388,656,l),
(303,471,ls),
(283,423,o),
(260,377,o),
(238,328,c),
(234,328,l),
(211,377,o),
(191,423,o),
(170,471,cs),
(86,656,l),
(-4,656,l),
(194,254,l)
);
}
);
width = 471;
}
);
note = Y;
unicode = 89;
},
{
glyphname = Z;
kernLeft = Z;
kernRight = Z;
lastChange = "2023-11-07 07:31:52 +0000";
layers = (
{
hints = (
{
horizontal = 1;
place = (0,71);
type = Stem;
},
{
horizontal = 1;
place = (586,70);
type = Stem;
},
{
place = (42,452);
type = Stem;
}
);
layerId = "8B4EFE1E-6C47-485C-9646-016EA71CC488";
shapes = (
{
closed = 1;
nodes = (
(42,0,l),
(494,0,l),
(494,71,l),
(145,71,l),
(491,607,l),
(491,656,l),
(73,656,l),
(73,586,l),
(388,586,l),
(42,50,l)
);
}
);
width = 534;
}
);
note = Z;
unicode = 90;
},
{
glyphname = a;
kernLeft = a;
kernRight = a;
lastChange = "2023-11-10 08:35:18 +0000";
layers = (
{
hints = (
{
horizontal = 1;
place = (-12,66);
type = Stem;
},
{
horizontal = 1;
place = (430,68);
type = Stem;
},
{
place = (58,81);
type = Stem;
},
{
place = (357,82);
type = Stem;
},
{
horizontal = 1;
place = (0,21);
target = up;
type = BottomGhost;
}
);
layerId = "8B4EFE1E-6C47-485C-9646-016EA71CC488";
shapes = (
{
closed = 1;
nodes = (
(58,39,o),
(119,-12,o),
(201,-12,cs),
(261,-12,o),
(315,20,o),
(362,58,c),
(364,58,l),
(371,0,l),
(439,0,l),
(439,298,ls),
(439,419,o),
(389,498,o),
(270,498,cs),
(192,498,o),
(124,464,o),
(79,435,c),
(112,378,l),
(150,404,o),
(200,430,o),
(257,430,cs),
(336,430,o),
(357,370,o),
(357,308,c),
(150,285,o),
(58,232,o),
(58,126,cs)
);
},
{
closed = 1;
nodes = (
(139,194,o),
(194,234,o),
(357,254,c),
(357,119,l),
(310,77,o),
(271,54,o),
(224,54,cs),
(176,54,o),
(139,77,o),
(139,132,cs)
);
}
);
width = 512;
}
);
note = a;
unicode = 97;
},
{
glyphname = b;
kernRight = b;
lastChange = "2023-11-07 07:31:52 +0000";
layers = (
{
hints = (
{
horizontal = 1;
place = (0,21);
target = up;
type = BottomGhost;
},
{
horizontal = 1;
place = (429,69);
type = Stem;
},
{
horizontal = 1;
place = (712,-20);
target = down;
type = TopGhost;
},
{
place = (82,82);
type = Stem;
},
{
place = (422,85);
type = Stem;
},
{
horizontal = 1;
place = (-12,69);
type = Stem;
}
);
layerId = "8B4EFE1E-6C47-485C-9646-016EA71CC488";
shapes = (
{
closed = 1;
nodes = (
(82,0,l),
(148,0,l),
(155,48,l),
(158,48,l),
(201,10,o),
(252,-12,o),
(297,-12,cs),
(408,-12,o),
(507,85,o),
(507,251,cs),
(507,401,o),
(440,498,o),
(314,498,cs),
(260,498,o),
(206,469,o),
(162,430,c),
(164,518,l),
(164,712,l),
(82,712,l)
);
},
{
closed = 1;
nodes = (
(164,363,l),
(210,406,o),
(253,429,o),
(294,429,cs),
(386,429,o),
(422,357,o),
(422,250,cs),
(422,130,o),
(363,57,o),
(283,57,cs),
(251,57,o),
(207,71,o),
(164,108,c)
);
}
);
width = 555;
}
);
note = b;
unicode = 98;
},
{
glyphname = c;
kernLeft = c;
kernRight = c;
lastChange = "2023-11-07 07:31:52 +0000";
layers = (
{
hints = (
{
horizontal = 1;
place = (-12,68);
type = Stem;
},
{
horizontal = 1;
place = (430,68);
type = Stem;
},
{
place = (46,85);
type = Stem;
}
);
layerId = "8B4EFE1E-6C47-485C-9646-016EA71CC488";
shapes = (
{
closed = 1;
nodes = (
(46,81,o),
(145,-12,o),
(274,-12,cs),
(332,-12,o),
(388,12,o),
(432,51,c),
(395,105,l),
(366,79,o),
(327,56,o),
(281,56,cs),
(192,56,o),
(131,131,o),
(131,242,cs),
(131,354,o),
(195,430,o),
(283,430,cs),
(322,430,o),
(352,412,o),
(381,387,c),
(422,440,l),
(389,471,o),
(344,498,o),
(280,498,cs),
(155,498,o),
(46,405,o),
(46,242,cs)
);
}
);
width = 456;
}
);
note = c;
unicode = 99;
},
{
glyphname = d;
kernLeft = c;
lastChange = "2023-11-07 07:31:52 +0000";
layers = (
{
hints = (
{
horizontal = 1;
place = (-12,69);
type = Stem;
},
{
horizontal = 1;
place = (429,69);
type = Stem;
},
{
horizontal = 1;
place = (712,-20);
target = down;
type = TopGhost;
},
{
place = (47,85);
type = Stem;
},
{
place = (390,83);
type = Stem;
},
{
horizontal = 1;
place = (0,21);
target = up;
type = BottomGhost;
}
);
layerId = "8B4EFE1E-6C47-485C-9646-016EA71CC488";
shapes = (
{
closed = 1;
nodes = (
(47,80,o),
(126,-12,o),
(248,-12,cs),
(305,-12,o),
(357,20,o),
(395,57,c),
(398,57,l),
(405,0,l),
(473,0,l),
(473,712,l),
(390,712,l),
(390,525,l),
(394,442,l),
(351,477,o),
(314,498,o),
(258,498,cs),
(147,498,o),
(47,400,o),
(47,242,cs)
);
},
{
closed = 1;
nodes = (
(132,354,o),
(194,429,o),
(272,429,cs),
(312,429,o),
(349,415,o),
(390,378,c),
(390,124,l),
(350,79,o),
(311,57,o),
(266,57,cs),
(181,57,o),
(132,127,o),
(132,243,cs)
);
}
);
width = 555;
}
);
note = d;
unicode = 100;
},
{
glyphname = e;
kernLeft = c;
kernRight = e;
lastChange = "2023-11-10 08:34:44 +0000";
layers = (
{
hints = (
{
horizontal = 1;
place = (-12,66);
type = Stem;
},
{
horizontal = 1;
place = (225,54);
type = Stem;
},
{
horizontal = 1;
place = (433,65);
type = Stem;
},
{
place = (46,80);
type = Stem;
},
{
place = (386,72);
type = Stem;
}
);
layerId = "8B4EFE1E-6C47-485C-9646-016EA71CC488";
shapes = (
{
closed = 1;
nodes = (
(46,83,o),
(149,-12,o),
(279,-12,cs),
(345,-12,o),
(397,11,o),
(439,38,c),
(410,92,l),
(374,69,o),
(335,54,o),
(289,54,cs),
(196,54,o),
(133,120,o),
(127,225,c),
(455,225,l),
(457,237,o),
(458,253,o),
(458,270,cs),
(458,409,o),
(388,498,o),
(264,498,cs),
(153,498,o),
(46,401,o),
(46,242,cs)
);
},
{
closed = 1;
nodes = (
(126,279,l),
(136,377,o),
(198,433,o),
(266,433,cs),
(342,433,o),
(386,378,o),
(386,279,c)
);
}
);
width = 496;
}
);
note = e;
unicode = 101;
},
{
glyphname = f;
kernLeft = f;
kernRight = f;
lastChange = "2023-11-07 07:31:52 +0000";
layers = (
{
hints = (
{
horizontal = 1;
place = (0,21);
target = up;
type = BottomGhost;
},
{
horizontal = 1;
place = (419,67);
type = Stem;
},
{
horizontal = 1;
place = (657,67);
type = Stem;
},
{
place = (96,82);
type = Stem;
}
);
layerId = "8B4EFE1E-6C47-485C-9646-016EA71CC488";
shapes = (
{
closed = 1;
nodes = (
(319,708,l),
(297,717,o),
(268,724,o),
(238,724,cs),
(141,724,o),
(96,662,o),
(96,563,cs),
(96,486,l),
(30,481,l),
(30,419,l),
(96,419,l),
(96,0,l),
(178,0,l),
(178,419,l),
(281,419,l),
(281,486,l),
(178,486,l),
(178,563,ls),
(178,625,o),
(200,657,o),
(246,657,cs),
(264,657,o),
(283,653,o),
(301,645,c)
);
}
);
width = 292;
}
);
note = f;
unicode = 102;
},
{
glyphname = g;
kernLeft = g;
kernRight = g;
lastChange = "2023-11-07 07:31:52 +0000";
layers = (
{
hints = (
{
horizontal = 1;
place = (-224,57);
type = Stem;
},
{
horizontal = 1;
place = (0,21);
target = up;
type = BottomGhost;
},
{
horizontal = 1;
place = (154,55);
type = Stem;
},
{
horizontal = 1;
place = (423,63);
type = Stem;
},
{
place = (45,72);
type = Stem;
},
{
place = (349,75);
type = Stem;
},
{
horizontal = 1;
place = (-8,68);
type = Stem;
},
{
place = (63,80);
type = Stem;
},
{
place = (412,80);
type = Stem;
},
{
place = (73,69);
type = Stem;
},
{
horizontal = 1;
place = (438,60);
type = Stem;
}
);
layerId = "8B4EFE1E-6C47-485C-9646-016EA71CC488";
shapes = (
{
closed = 1;
nodes = (
(117,-54,o),
(132,-25,o),
(167,0,c),
(188,-6,o),
(211,-8,o),
(230,-8,cs),
(314,-8,ls),
(377,-8,o),
(412,-23,o),
(412,-68,cs),
(412,-119,o),
(351,-167,o),
(258,-167,cs),
(170,-167,o),
(117,-134,o),
(117,-82,cs)
);
},
{
closed = 1;
nodes = (
(45,-177,o),
(127,-224,o),
(246,-224,cs),
(397,-224,o),
(492,-146,o),
(492,-56,cs),
(492,25,o),
(435,60,o),
(322,60,cs),
(228,60,ls),
(162,60,o),
(142,82,o),
(142,113,cs),
(142,140,o),
(156,156,o),
(173,171,c),
(195,160,o),
(222,154,o),
(246,154,cs),
(345,154,o),
(424,219,o),
(424,323,cs),
(424,364,o),
(407,401,o),
(384,423,c),
(484,423,l),
(484,486,l),
(315,486,l),
(297,493,o),
(273,498,o),
(246,498,cs),
(147,498,o),
(63,431,o),
(63,325,cs),
(63,267,o),
(94,220,o),
(126,194,c),
(126,190,l),
(101,173,o),
(73,141,o),
(73,100,cs),
(73,62,o),
(92,36,o),
(116,21,c),
(116,17,l),
(72,-13,o),
(45,-52,o),
(45,-93,cs)
);
},
{
closed = 1;
nodes = (
(190,209,o),
(143,254,o),
(143,325,cs),
(143,396,o),
(189,438,o),
(246,438,cs),
(303,438,o),
(349,396,o),
(349,325,cs),
(349,254,o),
(302,209,o),
(246,209,cs)
);
}
);
width = 504;
}
);
note = g;
unicode = 103;
},
{
glyphname = h;
kernRight = h;
lastChange = "2023-11-07 07:31:52 +0000";
layers = (
{
hints = (
{
horizontal = 1;
place = (0,21);
target = up;
type = BottomGhost;
},
{
horizontal = 1;
place = (427,71);
type = Stem;
},
{
horizontal = 1;
place = (712,-20);
target = down;
type = TopGhost;
},
{
place = (82,82);
type = Stem;
},
{
place = (389,82);
type = Stem;
}
);
layerId = "8B4EFE1E-6C47-485C-9646-016EA71CC488";
shapes = (
{
closed = 1;
nodes = (
(82,0,l),
(164,0,l),
(164,352,l),
(213,401,o),
(247,427,o),
(297,427,cs),
(361,427,o),
(389,388,o),
(389,297,cs),
(389,0,l),
(471,0,l),
(471,308,ls),
(471,432,o),
(425,498,o),
(323,498,cs),
(256,498,o),
(207,462,o),
(161,418,c),
(164,518,l),
(164,712,l),
(82,712,l)
);
}
);
width = 544;
}
);
note = h;
unicode = 104;
},
{
glyphname = i;
kernLeft = i;
lastChange = "2023-11-07 07:31:52 +0000";
layers = (
{
hints = (
{
horizontal = 1;
place = (0,21);
target = up;
type = BottomGhost;
},
{
horizontal = 1;
place = (486,-20);
target = down;
type = TopGhost;
},
{
horizontal = 1;
place = (586,106);
type = Stem;
},
{
place = (67,114);
type = Stem;
},
{
place = (82,82);
type = Stem;
}
);
layerId = "8B4EFE1E-6C47-485C-9646-016EA71CC488";
shapes = (
{
closed = 1;
nodes = (
(156,586,o),
(181,608,o),
(181,639,cs),
(181,671,o),
(156,692,o),
(124,692,cs),
(92,692,o),
(67,671,o),
(67,639,cs),
(67,608,o),
(92,586,o),
(124,586,cs)
);
},
{
closed = 1;
nodes = (
(82,0,l),
(164,0,l),
(164,486,l),
(82,486,l)
);
}
);
width = 246;
}
);
note = i;
unicode = 105;
},
{
glyphname = j;
kernLeft = j;
lastChange = "2023-11-07 07:31:52 +0000";
layers = (
{
hints = (
{
horizontal = 1;
place = (-217,67);
type = Stem;
},
{
horizontal = 1;
place = (486,-20);
target = down;
type = TopGhost;
},
{
horizontal = 1;
place = (586,106);
type = Stem;
},
{
place = (83,82);
type = Stem;
},
{
place = (68,113);
type = Stem;
}
);
layerId = "8B4EFE1E-6C47-485C-9646-016EA71CC488";
shapes = (
{
closed = 1;
nodes = (
(83,-55,ls),
(83,-114,o),
(71,-150,o),
(23,-150,cs),
(6,-150,o),
(-11,-146,o),
(-23,-142,c),
(-40,-204,l),
(-23,-211,o),
(2,-217,o),
(32,-217,cs),
(129,-217,o),
(165,-154,o),
(165,-55,cs),
(165,486,l),
(83,486,l)
);
},
{
closed = 1;
nodes = (
(156,586,o),
(181,608,o),
(181,639,cs),
(181,671,o),
(156,692,o),
(125,692,cs),
(93,692,o),
(68,671,o),
(68,639,cs),
(68,608,o),
(93,586,o),
(125,586,cs)
);
}
);
width = 247;
}
);
note = j;
unicode = 106;
},
{
glyphname = k;
kernRight = k;
lastChange = "2023-11-07 07:31:52 +0000";
layers = (
{
hints = (
{
horizontal = 1;
place = (0,21);
target = up;
type = BottomGhost;
},
{
horizontal = 1;
place = (486,-20);
target = down;
type = TopGhost;
},
{
horizontal = 1;
place = (712,-20);
target = down;
type = TopGhost;
},
{
place = (82,81);
type = Stem;
}
);
layerId = "8B4EFE1E-6C47-485C-9646-016EA71CC488";
shapes = (
{
closed = 1;
nodes = (
(82,0,l),
(163,0,l),
(163,128,l),
(254,234,l),
(396,0,l),
(486,0,l),
(301,291,l),
(464,486,l),
(373,486,l),
(166,230,l),
(163,230,l),
(163,712,l),
(82,712,l)
);
}
);
width = 495;
}
);
note = k;
unicode = 107;
},
{
glyphname = l;
lastChange = "2023-11-07 07:31:52 +0000";
layers = (
{
hints = (
{
horizontal = 1;
place = (-4,21);
target = up;
type = BottomGhost;
},
{
horizontal = 1;
place = (712,-20);
target = down;
type = TopGhost;
},
{
place = (82,82);
type = Stem;
},
{
horizontal = 1;
place = (-12,68);
type = Stem;
}
);
layerId = "8B4EFE1E-6C47-485C-9646-016EA71CC488";
shapes = (
{
closed = 1;
nodes = (
(82,98,ls),
(82,27,o),
(107,-12,o),
(169,-12,cs),
(191,-12,o),
(205,-9,o),
(216,-4,c),
(205,58,l),
(196,56,o),
(192,56,o),
(187,56,cs),
(175,56,o),
(164,66,o),
(164,92,cs),
(164,712,l),
(82,712,l)
);
}
);
width = 255;
}
);
note = l;
unicode = 108;
},
{
glyphname = m;
kernLeft = m;
kernRight = h;
lastChange = "2023-11-07 07:31:52 +0000";
layers = (
{
hints = (
{
horizontal = 1;
place = (0,21);
target = up;
type = BottomGhost;
},
{
horizontal = 1;
place = (427,71);
type = Stem;
},
{
place = (82,82);
type = Stem;
},
{
place = (377,82);
type = Stem;
},
{
place = (671,82);
type = Stem;
},
{
horizontal = 1;
place = (486,-20);
target = down;
type = TopGhost;
}
);
layerId = "8B4EFE1E-6C47-485C-9646-016EA71CC488";
shapes = (
{
closed = 1;
nodes = (
(82,0,l),
(164,0,l),
(164,352,l),
(209,402,o),
(250,427,o),
(286,427,cs),
(348,427,o),
(377,388,o),
(377,297,cs),
(377,0,l),
(459,0,l),
(459,352,l),
(504,402,o),
(543,427,o),
(581,427,cs),
(642,427,o),
(671,388,o),
(671,297,cs),
(671,0,l),
(753,0,l),
(753,308,ls),
(753,432,o),
(705,498,o),
(605,498,cs),
(546,498,o),
(496,460,o),
(445,405,c),
(425,463,o),
(385,498,o),
(311,498,cs),
(253,498,o),
(202,462,o),
(160,416,c),
(157,416,l),
(150,486,l),
(82,486,l)
);
}
);
width = 829;
}
);
note = m;
unicode = 109;
},
{
glyphname = n;
kernLeft = m;
kernRight = h;
lastChange = "2023-11-07 07:31:52 +0000";
layers = (
{
hints = (
{
horizontal = 1;
place = (0,21);
target = up;
type = BottomGhost;
},
{
horizontal = 1;
place = (427,71);
type = Stem;
},
{
place = (82,82);
type = Stem;
},
{
place = (389,82);
type = Stem;
},
{
horizontal = 1;
place = (486,-20);
target = down;
type = TopGhost;
}
);
layerId = "8B4EFE1E-6C47-485C-9646-016EA71CC488";
shapes = (
{
closed = 1;
nodes = (
(82,0,l),
(164,0,l),
(164,352,l),
(213,401,o),
(247,427,o),
(297,427,cs),
(361,427,o),
(389,388,o),
(389,297,cs),
(389,0,l),
(471,0,l),
(471,308,ls),
(471,432,o),
(425,498,o),
(323,498,cs),
(256,498,o),
(206,462,o),
(160,416,c),
(157,416,l),
(150,486,l),
(82,486,l)
);
}
);
width = 547;
}
);
note = n;
unicode = 110;
},
{
glyphname = o;
kernLeft = c;
kernRight = b;
lastChange = "2023-11-07 07:31:52 +0000";
layers = (
{
hints = (
{
horizontal = 1;
place = (-12,68);
type = Stem;
},
{
horizontal = 1;
place = (430,68);
type = Stem;
},
{
place = (46,85);
type = Stem;
},
{
place = (411,85);
type = Stem;
}
);
layerId = "8B4EFE1E-6C47-485C-9646-016EA71CC488";
shapes = (
{
closed = 1;
nodes = (
(46,81,o),
(152,-12,o),
(271,-12,cs),
(390,-12,o),
(496,81,o),
(496,242,cs),
(496,405,o),
(390,498,o),
(271,498,cs),
(152,498,o),
(46,405,o),
(46,242,cs)
);
},
{
closed = 1;
nodes = (
(131,354,o),
(188,430,o),
(271,430,cs),
(355,430,o),
(411,354,o),
(411,242,cs),
(411,131,o),
(355,56,o),
(271,56,cs),
(188,56,o),
(131,131,o),
(131,242,cs)
);
}
);
width = 542;
}
);
note = o;
unicode = 111;
},
{
glyphname = p;
kernLeft = m;
kernRight = b;
lastChange = "2023-11-07 07:31:52 +0000";
layers = (
{
hints = (
{
horizontal = 1;
place = (-205,21);
target = up;
type = BottomGhost;
},
{
horizontal = 1;
place = (-12,69);
type = Stem;
},
{
horizontal = 1;
place = (429,69);
type = Stem;
},
{
place = (82,82);
type = Stem;
},
{
place = (422,85);
type = Stem;
},
{
horizontal = 1;
place = (486,-20);
target = down;
type = TopGhost;
}
);
layerId = "8B4EFE1E-6C47-485C-9646-016EA71CC488";
shapes = (
{
closed = 1;
nodes = (
(162,44,l),
(207,9,o),
(252,-12,o),
(297,-12,cs),
(408,-12,o),
(507,85,o),
(507,250,cs),
(507,401,o),
(440,498,o),
(315,498,cs),
(258,498,o),
(204,467,o),
(160,430,c),
(157,430,l),
(150,486,l),
(82,486,l),
(82,-205,l),
(164,-205,l),
(164,-41,l)
);
},
{
closed = 1;
nodes = (
(164,363,l),
(212,406,o),
(253,429,o),
(294,429,cs),
(386,429,o),
(422,357,o),
(422,250,cs),
(422,130,o),
(363,57,o),
(283,57,cs),
(251,57,o),
(208,71,o),
(164,108,c)
);
}
);
width = 555;
}
);
note = p;
unicode = 112;
},
{
glyphname = q;
kernLeft = c;
kernRight = q;
lastChange = "2023-11-07 07:31:52 +0000";
layers = (
{
hints = (
{
horizontal = 1;
place = (-205,21);
target = up;
type = BottomGhost;
},
{
horizontal = 1;
place = (-12,69);
type = Stem;
},
{
horizontal = 1;
place = (429,69);
type = Stem;
},
{
place = (47,85);
type = Stem;
},
{
place = (390,83);
type = Stem;
},
{
horizontal = 1;
place = (486,-20);
target = down;
type = TopGhost;
}
);
layerId = "8B4EFE1E-6C47-485C-9646-016EA71CC488";
shapes = (
{
closed = 1;
nodes = (
(47,80,o),
(126,-12,o),
(248,-12,cs),
(304,-12,o),
(355,18,o),
(394,54,c),
(390,-32,l),
(390,-205,l),
(473,-205,l),
(473,486,l),
(407,486,l),
(399,440,l),
(397,440,l),
(353,478,o),
(314,498,o),
(258,498,cs),
(147,498,o),
(47,400,o),
(47,242,cs)
);
},
{
closed = 1;
nodes = (
(132,354,o),
(194,429,o),
(272,429,cs),
(312,429,o),
(349,415,o),
(390,378,c),
(390,124,l),
(350,79,o),
(311,57,o),
(266,57,cs),
(181,57,o),
(132,127,o),
(132,243,cs)
);
}
);
width = 550;
}
);
note = q;
unicode = 113;
},
{
glyphname = r;
kernLeft = m;
kernRight = r;
lastChange = "2023-11-07 07:31:52 +0000";
layers = (
{
hints = (
{
horizontal = 1;
place = (0,21);
target = up;
type = BottomGhost;
},
{
horizontal = 1;
place = (424,74);
type = Stem;
},
{
place = (82,82);
type = Stem;
},
{
horizontal = 1;
place = (488,-20);
target = down;
type = TopGhost;
},
{
horizontal = 1;
place = (486,-20);
target = down;
type = TopGhost;
}
);
layerId = "8B4EFE1E-6C47-485C-9646-016EA71CC488";
shapes = (
{
closed = 1;
nodes = (
(82,0,l),
(164,0,l),
(164,312,l),
(197,394,o),
(246,424,o),
(287,424,cs),
(307,424,o),
(318,421,o),
(334,416,c),
(350,488,l),
(334,495,o),
(319,498,o),
(298,498,cs),
(243,498,o),
(193,459,o),
(160,398,c),
(157,398,l),
(150,486,l),
(82,486,l)
);
}
);
width = 347;
}
);
note = r;
unicode = 114;
},
{
glyphname = s;
kernLeft = s;
kernRight = s;
lastChange = "2023-11-07 07:31:52 +0000";
layers = (
{
hints = (
{
horizontal = 1;
place = (-12,64);
type = Stem;
},
{
horizontal = 1;
place = (434,64);
type = Stem;
},
{
place = (52,79);
type = Stem;
},
{
place = (308,79);
type = Stem;
}
);
layerId = "8B4EFE1E-6C47-485C-9646-016EA71CC488";
shapes = (
{
closed = 1;
nodes = (
(28,55,l),
(74,17,o),
(140,-12,o),
(209,-12,cs),
(324,-12,o),
(387,54,o),
(387,133,cs),
(387,225,o),
(309,254,o),
(239,280,cs),
(184,301,o),
(131,319,o),
(131,364,cs),
(131,401,o),
(159,434,o),
(220,434,cs),
(263,434,o),
(298,416,o),
(331,391,c),
(370,443,l),
(333,473,o),
(280,498,o),
(219,498,cs),
(114,498,o),
(52,438,o),
(52,360,cs),
(52,278,o),
(128,245,o),
(197,220,cs),
(250,200,o),
(308,178,o),
(308,128,cs),
(308,86,o),
(276,52,o),
(212,52,cs),
(154,52,o),
(111,76,o),
(69,110,c)
);
}
);
width = 419;
}
);
note = s;
unicode = 115;
},
{
glyphname = t;
kernLeft = t;
kernRight = t;
lastChange = "2023-11-07 07:31:52 +0000";
layers = (
{
hints = (
{
horizontal = 1;
place = (-12,67);
type = Stem;
},
{
horizontal = 1;
place = (419,67);
type = Stem;
},
{
place = (96,83);
type = Stem;
}
);
layerId = "8B4EFE1E-6C47-485C-9646-016EA71CC488";
shapes = (
{
closed = 1;
nodes = (
(96,150,ls),
(96,54,o),
(131,-12,o),
(235,-12,cs),
(265,-12,o),
(298,-3,o),
(325,6,c),
(309,68,l),
(293,62,o),
(271,55,o),
(254,55,cs),
(198,55,o),
(179,89,o),
(179,149,cs),
(179,419,l),
(310,419,l),
(310,486,l),
(179,486,l),
(179,622,l),
(110,622,l),
(100,486,l),
(24,481,l),
(24,419,l),
(96,419,l)
);
}
);
width = 338;
}
);
note = t;
unicode = 116;
},
{
glyphname = u;
kernLeft = u;
kernRight = q;
lastChange = "2023-11-07 07:31:52 +0000";
layers = (
{
hints = (
{
horizontal = 1;
place = (-12,71);
type = Stem;
},
{
horizontal = 1;
place = (486,-20);
target = down;
type = TopGhost;
},
{
place = (75,83);
type = Stem;
},
{
place = (380,82);
type = Stem;
},
{
horizontal = 1;
place = (0,21);
target = up;
type = BottomGhost;
}
);
layerId = "8B4EFE1E-6C47-485C-9646-016EA71CC488";
shapes = (
{
closed = 1;
nodes = (
(75,178,ls),
(75,54,o),
(121,-12,o),
(224,-12,cs),
(291,-12,o),
(339,23,o),
(384,76,c),
(387,76,l),
(394,0,l),
(462,0,l),
(462,486,l),
(380,486,l),
(380,141,l),
(334,84,o),
(299,59,o),
(249,59,cs),
(185,59,o),
(158,98,o),
(158,189,cs),
(158,486,l),
(75,486,l)
);
}
);
width = 544;
}
);
note = u;
unicode = 117;
},
{
glyphname = v;
kernLeft = v;
kernRight = v;
lastChange = "2023-11-10 08:39:44 +0000";
layers = (
{
hints = (
{
horizontal = 1;
place = (0,67);
type = Stem;
},
{
horizontal = 1;
place = (486,-20);
target = down;
type = TopGhost;
},
{
place = (12,443);
type = Stem;
}
);
layerId = "8B4EFE1E-6C47-485C-9646-016EA71CC488";
shapes = (
{
closed = 1;
nodes = (
(187,0,l),
(283,0,l),
(455,486,l),
(374,486,l),
(282,210,ls),
(268,162,o),
(252,113,o),
(238,67,c),
(234,67,l),
(219,113,o),
(203,162,o),
(189,210,cs),
(97,486,l),
(12,486,l)
);
}
);
width = 467;
}
);
note = v;
unicode = 118;
},
{
glyphname = w;
kernLeft = w;
kernRight = w;
lastChange = "2023-11-07 07:31:52 +0000";
layers = (
{
hints = (
{
horizontal = 1;
place = (0,70);
type = Stem;
},
{
horizontal = 1;
place = (401,85);
type = Stem;
},
{
place = (24,670);
type = Stem;
}
);
layerId = "8B4EFE1E-6C47-485C-9646-016EA71CC488";
shapes = (
{
closed = 1;
nodes = (
(159,0,l),
(255,0,l),
(323,260,ls),
(336,306,o),
(346,352,o),
(357,401,c),
(361,401,l),
(373,352,o),
(382,307,o),
(394,261,cs),
(464,0,l),
(564,0,l),
(694,486,l),
(616,486,l),
(545,205,ls),
(535,159,o),
(526,115,o),
(515,70,c),
(511,70,l),
(500,115,o),
(489,159,o),
(477,205,cs),
(401,486,l),
(321,486,l),
(246,205,ls),
(234,160,o),
(224,115,o),
(213,70,c),
(209,70,l),
(200,115,o),
(191,159,o),
(180,205,cs),
(108,486,l),
(24,486,l)
);
}
);
width = 718;
}
);
note = w;
unicode = 119;
},
{
glyphname = x;
kernLeft = x;
kernRight = x;
lastChange = "2023-11-07 07:31:52 +0000";
layers = (
{
hints = (
{
horizontal = 1;
place = (0,21);
target = up;
type = BottomGhost;
},
{
horizontal = 1;
place = (486,-20);
target = down;
type = TopGhost;
},
{
place = (14,418);
type = Stem;
}
);
layerId = "8B4EFE1E-6C47-485C-9646-016EA71CC488";
shapes = (
{
closed = 1;
nodes = (
(14,0,l),
(100,0,l),
(166,113,ls),
(182,143,o),
(198,172,o),
(215,200,c),
(219,200,l),
(237,172,o),
(255,142,o),
(272,113,cs),
(343,0,l),
(432,0,l),
(274,245,l),
(421,486,l),
(335,486,l),
(276,379,ls),
(261,353,o),
(246,325,o),
(232,298,c),
(228,298,l),
(211,325,o),
(195,353,o),
(180,379,cs),
(115,486,l),
(26,486,l),
(173,254,l)
);
}
);
width = 446;
}
);
note = x;
unicode = 120;
},
{
glyphname = y;
kernLeft = y;
kernRight = y;
lastChange = "2023-11-07 07:31:52 +0000";
layers = (
{
hints = (
{
horizontal = 1;
place = (-209,68);
type = Stem;
},
{
horizontal = 1;
place = (486,-20);
target = down;
type = TopGhost;
},
{
place = (12,443);
type = Stem;
}
);
layerId = "8B4EFE1E-6C47-485C-9646-016EA71CC488";
shapes = (
{
closed = 1;
nodes = (
(33,-199,l),
(49,-205,o),
(68,-209,o),
(90,-209,cs),
(188,-209,o),
(238,-136,o),
(272,-40,cs),
(455,486,l),
(375,486,l),
(288,217,ls),
(275,174,o),
(261,124,o),
(247,80,c),
(243,80,l),
(228,125,o),
(211,175,o),
(196,217,cs),
(97,486,l),
(12,486,l),
(207,-1,l),
(196,-37,ls),
(176,-97,o),
(141,-141,o),
(86,-141,cs),
(74,-141,o),
(59,-137,o),
(49,-134,c)
);
}
);
width = 467;
}
);
note = y;
unicode = 121;
},
{
glyphname = z;
kernLeft = z;
kernRight = z;
lastChange = "2023-11-07 07:31:52 +0000";
layers = (
{
hints = (
{
horizontal = 1;
place = (0,67);
type = Stem;
},
{
horizontal = 1;
place = (419,67);
type = Stem;
},
{
place = (31,368);
type = Stem;
}
);
layerId = "8B4EFE1E-6C47-485C-9646-016EA71CC488";
shapes = (
{
closed = 1;
nodes = (
(31,0,l),
(399,0,l),
(399,67,l),
(135,67,l),
(391,442,l),
(391,486,l),
(59,486,l),
(59,419,l),
(287,419,l),
(31,44,l)
);
}
);
width = 425;
}
);
note = z;
unicode = 122;
},
{
glyphname = Agrave;
kernLeft = A;
kernRight = A;
lastChange = "2023-11-07 07:31:52 +0000";
layers = (
{
hints = (
{
horizontal = 1;
place = (0,21);
target = up;
type = BottomGhost;
},
{
horizontal = 1;
place = (200,67);
type = Stem;
},
{
horizontal = 1;
place = (588,68);
type = Stem;
},
{
horizontal = 1;
place = (706,112);
type = Stem;
},
{
place = (0,538);
type = Stem;
}
);
layerId = "8B4EFE1E-6C47-485C-9646-016EA71CC488";
shapes = (
{
closed = 1;
nodes = (
(319,706,l),
(231,818,l),
(137,818,l),
(250,706,l)
);
},
{
closed = 1;
nodes = (
(169,267,l),
(201,367,ls),
(224,440,o),
(245,512,o),
(266,588,c),
(270,588,l),
(291,512,o),
(312,440,o),
(335,367,cs),
(366,267,l)
);
},
{
closed = 1;
nodes = (
(450,0,l),
(538,0,l),
(316,656,l),
(222,656,l),
(0,0,l),
(85,0,l),
(148,200,l),
(387,200,l)
);
}
);
width = 538;
}
);
note = Agrave;
unicode = 192;
},
{
glyphname = Aacute;
kernLeft = A;
kernRight = A;
lastChange = "2023-11-07 07:31:52 +0000";
layers = (
{
hints = (
{
horizontal = 1;
place = (0,21);
target = up;
type = BottomGhost;
},
{
horizontal = 1;
place = (200,67);
type = Stem;
},
{
horizontal = 1;
place = (588,68);
type = Stem;
},
{
horizontal = 1;
place = (706,112);
type = Stem;
},
{
place = (0,538);
type = Stem;
}
);
layerId = "8B4EFE1E-6C47-485C-9646-016EA71CC488";
shapes = (
{
closed = 1;
nodes = (
(399,818,l),
(305,818,l),
(217,706,l),
(286,706,l)
);
},
{
closed = 1;
nodes = (
(169,267,l),
(201,367,ls),
(224,440,o),
(245,512,o),
(266,588,c),
(270,588,l),
(291,512,o),
(312,440,o),
(335,367,cs),
(366,267,l)
);
},
{
closed = 1;
nodes = (
(450,0,l),
(538,0,l),
(316,656,l),
(222,656,l),
(0,0,l),
(85,0,l),
(148,200,l),
(387,200,l)
);
}
);
width = 538;
}
);
note = Aacute;
unicode = 193;
},
{
glyphname = Acircumflex;
kernLeft = A;
kernRight = A;
lastChange = "2023-11-07 07:31:52 +0000";
layers = (
{
hints = (
{
horizontal = 1;
place = (0,21);
target = up;
type = BottomGhost;
},
{
horizontal = 1;
place = (200,67);
type = Stem;
},
{
horizontal = 1;
place = (588,68);
type = Stem;
},
{
horizontal = 1;
place = (706,112);
type = Stem;
},
{
place = (0,538);
type = Stem;
}
);
layerId = "8B4EFE1E-6C47-485C-9646-016EA71CC488";
shapes = (
{
closed = 1;
nodes = (
(266,774,l),
(270,774,l),
(337,706,l),
(404,706,l),
(308,818,l),
(228,818,l),
(132,706,l),
(199,706,l)
);
},
{
closed = 1;
nodes = (
(169,267,l),
(201,367,ls),
(224,440,o),
(245,512,o),
(266,588,c),
(270,588,l),
(291,512,o),
(312,440,o),
(335,367,cs),
(366,267,l)
);
},
{
closed = 1;
nodes = (
(450,0,l),
(538,0,l),
(316,656,l),
(222,656,l),
(0,0,l),
(85,0,l),
(148,200,l),
(387,200,l)
);
}
);
width = 538;
}
);
note = Acircumflex;
unicode = 194;
},
{
glyphname = Atilde;
kernLeft = A;
kernRight = A;
lastChange = "2023-11-07 07:31:52 +0000";
layers = (
{
hints = (
{
horizontal = 1;
place = (0,21);
target = up;
type = BottomGhost;
},
{
horizontal = 1;
place = (200,67);
type = Stem;
},
{
horizontal = 1;
place = (588,68);
type = Stem;
},
{
horizontal = 1;
place = (711,56);
type = Stem;
},
{
place = (123,46);
type = Stem;
},
{
place = (367,45);
type = Stem;
},
{
horizontal = 1;
place = (763,56);
type = Stem;
}
);
layerId = "8B4EFE1E-6C47-485C-9646-016EA71CC488";
shapes = (
{
closed = 1;
nodes = (
(367,819,l),
(361,786,o),
(346,767,o),
(326,767,cs),
(289,767,o),
(260,819,o),
(208,819,cs),
(160,819,o),
(129,773,o),
(123,711,c),
(169,711,l),
(174,745,o),
(189,763,o),
(209,763,cs),
(246,763,o),
(275,711,o),
(328,711,cs),
(376,711,o),
(407,758,o),
(412,819,c)
);
},
{
closed = 1;
nodes = (
(169,267,l),
(201,367,ls),
(224,440,o),
(245,512,o),
(266,588,c),
(270,588,l),
(291,512,o),
(312,440,o),
(335,367,cs),
(366,267,l)
);
},
{
closed = 1;
nodes = (
(450,0,l),
(538,0,l),
(316,656,l),
(222,656,l),
(0,0,l),
(85,0,l),
(148,200,l),
(387,200,l)
);
}
);
width = 538;
}
);
note = Atilde;
unicode = 195;
},
{
glyphname = Adieresis;
kernLeft = A;
kernRight = A;
lastChange = "2023-11-07 07:31:52 +0000";
layers = (
{
hints = (
{
horizontal = 1;
place = (0,21);
target = up;
type = BottomGhost;
},
{
horizontal = 1;
place = (200,67);
type = Stem;
},
{
horizontal = 1;
place = (588,68);
type = Stem;
},
{
horizontal = 1;
place = (715,98);
type = Stem;
},
{
place = (133,97);
type = Stem;
},
{
place = (305,98);
type = Stem;
}
);
layerId = "8B4EFE1E-6C47-485C-9646-016EA71CC488";
shapes = (
{
closed = 1;
nodes = (
(382,715,o),
(403,736,o),
(403,764,cs),
(403,793,o),
(382,813,o),
(354,813,cs),
(326,813,o),
(305,793,o),
(305,764,cs),
(305,736,o),
(326,715,o),
(354,715,cs)
);
},
{
closed = 1;
nodes = (
(210,715,o),
(230,736,o),
(230,764,cs),
(230,793,o),
(210,813,o),
(181,813,cs),
(153,813,o),
(133,793,o),
(133,764,cs),
(133,736,o),
(153,715,o),
(181,715,cs)
);
},
{
closed = 1;
nodes = (
(169,267,l),
(201,367,ls),
(224,440,o),
(245,512,o),
(266,588,c),
(270,588,l),
(291,512,o),
(312,440,o),
(335,367,cs),
(366,267,l)
);
},
{
closed = 1;
nodes = (
(450,0,l),
(538,0,l),
(316,656,l),
(222,656,l),
(0,0,l),
(85,0,l),
(148,200,l),
(387,200,l)
);
}
);
width = 538;
}
);
note = Adieresis;
unicode = 196;
},
{
glyphname = Amacron;
kernLeft = A;
kernRight = A;
lastChange = "2023-11-07 07:31:52 +0000";
layers = (
{
hints = (
{
horizontal = 1;
place = (0,21);
target = up;
type = BottomGhost;
},
{
horizontal = 1;
place = (200,67);
type = Stem;
},
{
horizontal = 1;
place = (588,68);
type = Stem;
},
{
horizontal = 1;
place = (729,57);
type = Stem;
},
{
place = (144,248);
type = Stem;
}
);
layerId = "8B4EFE1E-6C47-485C-9646-016EA71CC488";
shapes = (
{
closed = 1;
nodes = (
(392,786,l),
(144,786,l),
(144,729,l),
(392,729,l)
);
},
{
closed = 1;
nodes = (
(169,267,l),
(201,367,ls),
(224,440,o),
(245,512,o),
(266,588,c),
(270,588,l),
(291,512,o),
(312,440,o),
(335,367,cs),
(366,267,l)
);
},
{
closed = 1;
nodes = (
(450,0,l),
(538,0,l),
(316,656,l),
(222,656,l),
(0,0,l),
(85,0,l),
(148,200,l),
(387,200,l)
);
}
);
width = 538;
}
);
note = Amacron;
unicode = 256;
},
{
glyphname = Abreve;
kernLeft = A;
kernRight = A;
lastChange = "2023-11-07 07:31:52 +0000";
layers = (
{
hints = (
{
horizontal = 1;
place = (0,21);
target = up;
type = BottomGhost;
},
{
horizontal = 1;
place = (200,67);
type = Stem;
},
{
horizontal = 1;
place = (588,68);
type = Stem;
},
{
horizontal = 1;
place = (708,47);
type = Stem;
},
{
place = (0,538);
type = Stem;
}
);
layerId = "8B4EFE1E-6C47-485C-9646-016EA71CC488";
shapes = (
{
closed = 1;
nodes = (
(341,818,l),
(335,786,o),
(313,755,o),
(268,755,cs),
(223,755,o),
(201,786,o),
(195,818,c),
(145,818,l),
(151,762,o),
(188,708,o),
(268,708,cs),
(348,708,o),
(384,762,o),
(391,818,c)
);
},
{
closed = 1;
nodes = (
(169,267,l),
(201,367,ls),
(224,440,o),
(245,512,o),
(266,588,c),
(270,588,l),
(291,512,o),
(312,440,o),
(335,367,cs),
(366,267,l)
);
},
{
closed = 1;
nodes = (
(450,0,l),
(538,0,l),
(316,656,l),
(222,656,l),
(0,0,l),
(85,0,l),
(148,200,l),
(387,200,l)
);
}
);
width = 538;
}
);
note = Abreve;
unicode = 258;
},
{
glyphname = Aring;
kernLeft = A;
kernRight = A;
lastChange = "2023-11-07 07:31:52 +0000";
layers = (
{
hints = (
{
horizontal = 1;
place = (0,21);
target = up;
type = BottomGhost;
},
{
horizontal = 1;
place = (200,67);
type = Stem;
},
{
horizontal = 1;
place = (588,68);
type = Stem;
},
{
horizontal = 1;
place = (699,36);
type = Stem;
},
{
horizontal = 1;
place = (838,37);
type = Stem;
},
{
place = (174,46);
type = Stem;
},
{
place = (315,46);
type = Stem;
}
);
layerId = "8B4EFE1E-6C47-485C-9646-016EA71CC488";
shapes = (
{
closed = 1;
nodes = (
(293,838,o),
(315,818,o),
(315,787,cs),
(315,754,o),
(293,735,o),
(268,735,cs),
(241,735,o),
(220,754,o),
(220,787,cs),
(220,818,o),
(241,838,o),
(268,838,cs)
);
},
{
closed = 1;
nodes = (
(321,699,o),
(361,733,o),
(361,787,cs),
(361,840,o),
(321,875,o),
(268,875,cs),
(213,875,o),
(174,840,o),
(174,787,cs),
(174,733,o),
(213,699,o),
(268,699,cs)
);
},
{
closed = 1;
nodes = (
(169,267,l),
(201,367,ls),
(224,440,o),
(245,512,o),
(266,588,c),
(270,588,l),
(291,512,o),
(312,440,o),
(335,367,cs),
(366,267,l)
);
},
{
closed = 1;
nodes = (
(450,0,l),
(538,0,l),
(316,656,l),
(222,656,l),
(0,0,l),
(85,0,l),
(148,200,l),
(387,200,l)
);
}
);
width = 538;
}
);
note = Aring;
unicode = 197;
},
{
glyphname = uni01CD;
kernLeft = A;
kernRight = A;
lastChange = "2023-11-07 07:31:52 +0000";
layers = (
{
hints = (
{
horizontal = 1;
place = (0,21);
target = up;
type = BottomGhost;
},
{
horizontal = 1;
place = (200,67);
type = Stem;
},
{
horizontal = 1;
place = (588,68);
type = Stem;
},
{
horizontal = 1;
place = (706,112);
type = Stem;
},
{
place = (0,538);
type = Stem;
}
);
layerId = "8B4EFE1E-6C47-485C-9646-016EA71CC488";
shapes = (
{
closed = 1;
nodes = (
(308,706,l),
(404,818,l),
(337,818,l),
(270,750,l),
(266,750,l),
(199,818,l),
(132,818,l),
(228,706,l)
);
},
{
closed = 1;
nodes = (
(169,267,l),
(201,367,ls),
(224,440,o),
(245,512,o),
(266,588,c),
(270,588,l),
(291,512,o),
(312,440,o),
(335,367,cs),
(366,267,l)
);
},
{
closed = 1;
nodes = (
(450,0,l),
(538,0,l),
(316,656,l),
(222,656,l),
(0,0,l),
(85,0,l),
(148,200,l),
(387,200,l)
);
}
);
width = 538;
}
);
note = uni01CD;
unicode = 461;
},
{
glyphname = uni1EA0;
kernLeft = A;
kernRight = A;
lastChange = "2023-11-07 07:31:52 +0000";
layers = (
{
hints = (
{
horizontal = 1;
place = (-206,107);
type = Stem;
},
{
horizontal = 1;
place = (0,21);
target = up;
type = BottomGhost;
},
{
horizontal = 1;
place = (200,67);
type = Stem;
},
{
horizontal = 1;
place = (588,68);
type = Stem;
},
{
place = (214,108);
type = Stem;
}
);
layerId = "8B4EFE1E-6C47-485C-9646-016EA71CC488";
shapes = (
{
closed = 1;
nodes = (
(237,-99,o),
(214,-121,o),
(214,-152,cs),
(214,-184,o),
(237,-206,o),
(268,-206,cs),
(299,-206,o),
(322,-184,o),
(322,-152,cs),
(322,-121,o),
(299,-99,o),
(268,-99,cs)
);
},
{
closed = 1;
nodes = (
(169,267,l),
(201,367,ls),
(224,440,o),
(245,512,o),
(266,588,c),
(270,588,l),
(291,512,o),
(312,440,o),
(335,367,cs),
(366,267,l)
);
},
{
closed = 1;
nodes = (
(538,0,l),
(316,656,l),
(222,656,l),
(0,0,l),
(85,0,l),
(148,200,l),
(387,200,l),
(450,0,l)
);
}
);
width = 538;
}
);
note = uni1EA0;
unicode = 7840;
},
{
glyphname = uni1EA2;
kernLeft = A;
kernRight = A;
lastChange = "2023-11-07 07:31:52 +0000";
layers = (
{
hints = (
{
horizontal = 1;
place = (0,21);
target = up;
type = BottomGhost;
},
{
horizontal = 1;
place = (200,67);
type = Stem;
},
{
horizontal = 1;
place = (588,68);
type = Stem;
},
{
horizontal = 1;
place = (824,48);
type = Stem;
},
{
place = (287,64);
type = Stem;
}
);
layerId = "8B4EFE1E-6C47-485C-9646-016EA71CC488";
shapes = (
{
closed = 1;
nodes = (
(240,698,l),
(298,708,o),
(351,733,o),
(351,791,cs),
(351,842,o),
(300,869,o),
(212,872,c),
(204,824,l),
(259,822,o),
(287,808,o),
(287,782,cs),
(287,757,o),
(263,745,o),
(230,736,c)
);
},
{
closed = 1;
nodes = (
(169,267,l),
(201,367,ls),
(224,440,o),
(245,512,o),
(266,588,c),
(270,588,l),
(291,512,o),
(312,440,o),
(335,367,cs),
(366,267,l)
);
},
{
closed = 1;
nodes = (
(450,0,l),
(538,0,l),
(316,656,l),
(222,656,l),
(0,0,l),
(85,0,l),
(148,200,l),
(387,200,l)
);
}
);
width = 538;
}
);
note = uni1EA2;
unicode = 7842;
},
{
glyphname = uni1EA4;
kernLeft = A;
kernRight = A;
lastChange = "2023-11-07 07:31:52 +0000";
layers = (
{
hints = (
{
horizontal = 1;
place = (0,21);
target = up;
type = BottomGhost;
},
{
horizontal = 1;
place = (200,67);
type = Stem;
},
{
horizontal = 1;
place = (588,68);
type = Stem;
},
{
horizontal = 1;
place = (770,111);
type = Stem;
},
{
place = (0,538);
type = Stem;
},
{
horizontal = 1;
place = (706,106);
type = Stem;
}
);
layerId = "8B4EFE1E-6C47-485C-9646-016EA71CC488";
shapes = (
{
closed = 1;
nodes = (
(501,881,l),
(430,881,l),
(359,770,l),
(411,770,l)
);
},
{
closed = 1;
nodes = (
(266,768,l),
(270,768,l),
(333,706,l),
(396,706,l),
(304,812,l),
(232,812,l),
(139,706,l),
(203,706,l)
);
},
{
closed = 1;
nodes = (
(169,267,l),
(201,367,ls),
(224,440,o),
(245,512,o),
(266,588,c),
(270,588,l),
(291,512,o),
(312,440,o),
(335,367,cs),
(366,267,l)
);
},
{
closed = 1;
nodes = (
(450,0,l),
(538,0,l),
(316,656,l),
(222,656,l),
(0,0,l),
(85,0,l),
(148,200,l),
(387,200,l)
);
}
);
width = 538;
}
);
note = uni1EA4;
unicode = 7844;
},
{
glyphname = uni1EA6;
kernLeft = A;
kernRight = A;
lastChange = "2023-11-07 07:31:52 +0000";
layers = (
{
hints = (
{
horizontal = 1;
place = (0,21);
target = up;
type = BottomGhost;
},
{
horizontal = 1;
place = (200,67);
type = Stem;
},
{
horizontal = 1;
place = (588,68);
type = Stem;
},
{
horizontal = 1;
place = (770,111);
type = Stem;
},
{
place = (0,538);
type = Stem;
},
{
horizontal = 1;
place = (706,106);
type = Stem;
}
);
layerId = "8B4EFE1E-6C47-485C-9646-016EA71CC488";
shapes = (
{
closed = 1;
nodes = (
(452,770,l),
(381,881,l),
(309,881,l),
(400,770,l)
);
},
{
closed = 1;
nodes = (
(266,768,l),
(270,768,l),
(333,706,l),
(396,706,l),
(304,812,l),
(232,812,l),
(139,706,l),
(203,706,l)
);
},
{
closed = 1;
nodes = (
(169,267,l),
(201,367,ls),
(224,440,o),
(245,512,o),
(266,588,c),
(270,588,l),
(291,512,o),
(312,440,o),
(335,367,cs),
(366,267,l)
);
},
{
closed = 1;
nodes = (
(450,0,l),
(538,0,l),
(316,656,l),
(222,656,l),
(0,0,l),
(85,0,l),
(148,200,l),
(387,200,l)
);
}
);
width = 538;
}
);
note = uni1EA6;
unicode = 7846;
},
{
glyphname = uni1EA8;
kernLeft = A;
kernRight = A;
lastChange = "2023-11-07 07:31:52 +0000";
layers = (
{
hints = (
{
horizontal = 1;
place = (0,21);
target = up;
type = BottomGhost;
},
{
horizontal = 1;
place = (200,67);
type = Stem;
},
{
horizontal = 1;
place = (588,68);
type = Stem;
},
{
horizontal = 1;
place = (706,106);
type = Stem;
},
{
horizontal = 1;
place = (864,42);
type = Stem;
},
{
place = (417,58);
type = Stem;
}
);
layerId = "8B4EFE1E-6C47-485C-9646-016EA71CC488";
shapes = (
{
closed = 1;
nodes = (
(383,754,l),
(430,762,o),
(475,782,o),
(475,833,cs),
(475,879,o),
(432,903,o),
(355,906,c),
(346,864,l),
(395,861,o),
(417,851,o),
(417,825,cs),
(417,804,o),
(397,795,o),
(372,789,c)
);
},
{
closed = 1;
nodes = (
(266,768,l),
(270,768,l),
(333,706,l),
(396,706,l),
(304,812,l),
(232,812,l),
(139,706,l),
(203,706,l)
);
},
{
closed = 1;
nodes = (
(169,267,l),
(201,367,ls),
(224,440,o),
(245,512,o),
(266,588,c),
(270,588,l),
(291,512,o),
(312,440,o),
(335,367,cs),
(366,267,l)
);
},
{
closed = 1;
nodes = (
(450,0,l),
(538,0,l),
(316,656,l),
(222,656,l),
(0,0,l),
(85,0,l),
(148,200,l),
(387,200,l)
);
}
);
width = 538;
}
);
note = uni1EA8;
unicode = 7848;
},
{
glyphname = uni1EAA;
kernLeft = A;
kernRight = A;
lastChange = "2023-11-07 07:31:52 +0000";
layers = (
{
hints = (
{
horizontal = 1;
place = (0,21);
target = up;
type = BottomGhost;
},
{
horizontal = 1;
place = (200,67);
type = Stem;
},
{
horizontal = 1;
place = (588,68);
type = Stem;
},
{
horizontal = 1;
place = (706,106);
type = Stem;
},
{
horizontal = 1;
place = (891,48);
type = Stem;
},
{
place = (136,42);
type = Stem;
},
{
place = (357,43);
type = Stem;
},
{
horizontal = 1;
place = (846,48);
type = Stem;
}
);
layerId = "8B4EFE1E-6C47-485C-9646-016EA71CC488";
shapes = (
{
closed = 1;
nodes = (
(357,939,l),
(353,911,o),
(338,894,o),
(318,894,cs),
(286,894,o),
(263,939,o),
(215,939,cs),
(169,939,o),
(141,899,o),
(136,846,c),
(178,846,l),
(183,875,o),
(198,891,o),
(218,891,cs),
(250,891,o),
(273,846,o),
(321,846,cs),
(367,846,o),
(395,887,o),
(400,939,c)
);
},
{
closed = 1;
nodes = (
(232,812,l),
(139,706,l),
(203,706,l),
(266,768,l),
(270,768,l),
(333,706,l),
(396,706,l),
(304,812,l)
);
},
{
closed = 1;
nodes = (
(169,267,l),
(201,367,ls),
(224,440,o),
(245,512,o),
(266,588,c),
(270,588,l),
(291,512,o),
(312,440,o),
(335,367,cs),
(366,267,l)
);
},
{
closed = 1;
nodes = (
(450,0,l),
(538,0,l),
(316,656,l),
(222,656,l),
(0,0,l),
(85,0,l),
(148,200,l),
(387,200,l)
);
}
);
width = 538;
}
);
note = uni1EAA;
unicode = 7850;
},
{
glyphname = uni1EAC;
kernLeft = A;
kernRight = A;
lastChange = "2023-11-07 07:31:52 +0000";
layers = (
{
hints = (
{
horizontal = 1;
place = (-206,107);
type = Stem;
},
{
horizontal = 1;
place = (0,21);
target = up;
type = BottomGhost;
},
{
horizontal = 1;
place = (200,67);
type = Stem;
},
{
horizontal = 1;
place = (588,68);
type = Stem;
},
{
horizontal = 1;
place = (706,112);
type = Stem;
},
{
place = (214,108);
type = Stem;
}
);
layerId = "8B4EFE1E-6C47-485C-9646-016EA71CC488";
shapes = (
{
closed = 1;
nodes = (
(266,774,l),
(270,774,l),
(337,706,l),
(404,706,l),
(308,818,l),
(228,818,l),
(132,706,l),
(199,706,l)
);
},
{
closed = 1;
nodes = (
(237,-99,o),
(214,-121,o),
(214,-152,cs),
(214,-184,o),
(237,-206,o),
(268,-206,cs),
(299,-206,o),
(322,-184,o),
(322,-152,cs),
(322,-121,o),
(299,-99,o),
(268,-99,cs)
);
},
{
closed = 1;
nodes = (
(169,267,l),
(201,367,ls),
(224,440,o),
(245,512,o),
(266,588,c),
(270,588,l),
(291,512,o),
(312,440,o),
(335,367,cs),
(366,267,l)
);
},
{
closed = 1;
nodes = (
(538,0,l),
(316,656,l),
(222,656,l),
(0,0,l),
(85,0,l),
(148,200,l),
(387,200,l),
(450,0,l)
);
}
);
width = 538;
}
);
note = uni1EAC;
unicode = 7852;
},
{
glyphname = uni1EAE;
kernLeft = A;
kernRight = A;
lastChange = "2023-11-07 07:31:52 +0000";
layers = (
{
hints = (
{
horizontal = 1;
place = (0,21);
target = up;
type = BottomGhost;
},
{
horizontal = 1;
place = (200,67);
type = Stem;
},
{
horizontal = 1;
place = (588,68);
type = Stem;
},
{
horizontal = 1;
place = (708,43);
type = Stem;
},
{
horizontal = 1;
place = (802,13);
type = Stem;
},
{
place = (0,538);
type = Stem;
}
);
layerId = "8B4EFE1E-6C47-485C-9646-016EA71CC488";
shapes = (
{
closed = 1;
nodes = (
(375,907,l),
(303,907,l),
(229,802,l),
(278,802,l)
);
},
{
closed = 1;
nodes = (
(345,815,l),
(337,781,o),
(316,751,o),
(268,751,cs),
(219,751,o),
(198,781,o),
(190,815,c),
(146,815,l),
(153,760,o),
(190,708,o),
(268,708,cs),
(345,708,o),
(383,760,o),
(390,815,c)
);
},
{
closed = 1;
nodes = (
(169,267,l),
(201,367,ls),
(224,440,o),
(245,512,o),
(266,588,c),
(270,588,l),
(291,512,o),
(312,440,o),
(335,367,cs),
(366,267,l)
);
},
{
closed = 1;
nodes = (
(450,0,l),
(538,0,l),
(316,656,l),
(222,656,l),
(0,0,l),
(85,0,l),
(148,200,l),
(387,200,l)
);
}
);
width = 538;
}
);
note = uni1EAE;
unicode = 7854;
},
{
glyphname = uni1EB0;
kernLeft = A;
kernRight = A;
lastChange = "2023-11-07 07:31:52 +0000";
layers = (
{
hints = (
{
horizontal = 1;
place = (0,21);
target = up;
type = BottomGhost;
},
{
horizontal = 1;
place = (200,67);
type = Stem;
},
{
horizontal = 1;
place = (588,68);
type = Stem;
},
{
horizontal = 1;
place = (708,43);
type = Stem;
},
{
horizontal = 1;
place = (802,13);
type = Stem;
},
{
place = (0,538);
type = Stem;
}
);
layerId = "8B4EFE1E-6C47-485C-9646-016EA71CC488";
shapes = (
{
closed = 1;
nodes = (
(307,802,l),
(233,907,l),
(161,907,l),
(258,802,l)
);
},
{
closed = 1;
nodes = (
(345,815,l),
(337,781,o),
(316,751,o),
(268,751,cs),
(219,751,o),
(198,781,o),
(190,815,c),
(146,815,l),
(153,760,o),
(190,708,o),
(268,708,cs),
(345,708,o),
(383,760,o),
(390,815,c)
);
},
{
closed = 1;
nodes = (
(169,267,l),
(201,367,ls),
(224,440,o),
(245,512,o),
(266,588,c),
(270,588,l),
(291,512,o),
(312,440,o),
(335,367,cs),
(366,267,l)
);
},
{
closed = 1;
nodes = (
(450,0,l),
(538,0,l),
(316,656,l),
(222,656,l),
(0,0,l),
(85,0,l),
(148,200,l),
(387,200,l)
);
}
);
width = 538;
}
);
note = uni1EB0;
unicode = 7856;
},
{
glyphname = uni1EB2;
kernLeft = A;
kernRight = A;
lastChange = "2023-11-07 07:31:52 +0000";
layers = (
{
hints = (
{
horizontal = 1;
place = (0,21);
target = up;
type = BottomGhost;
},
{
horizontal = 1;
place = (200,67);
type = Stem;
},
{
horizontal = 1;
place = (588,68);
type = Stem;
},
{
horizontal = 1;
place = (708,43);
type = Stem;
},
{
horizontal = 1;
place = (910,42);
type = Stem;
},
{
place = (279,58);
type = Stem;
}
);
layerId = "8B4EFE1E-6C47-485C-9646-016EA71CC488";
shapes = (
{
closed = 1;
nodes = (
(245,800,l),
(293,808,o),
(337,828,o),
(337,879,cs),
(337,926,o),
(295,949,o),
(217,952,c),
(208,910,l),
(258,907,o),
(279,897,o),
(279,871,cs),
(279,850,o),
(259,841,o),
(234,835,c)
);
},
{
closed = 1;
nodes = (
(345,815,l),
(337,781,o),
(316,751,o),
(268,751,cs),
(219,751,o),
(198,781,o),
(190,815,c),
(146,815,l),
(153,760,o),
(190,708,o),
(268,708,cs),
(345,708,o),
(383,760,o),
(390,815,c)
);
},
{
closed = 1;
nodes = (
(169,267,l),
(201,367,ls),
(224,440,o),
(245,512,o),
(266,588,c),
(270,588,l),
(291,512,o),
(312,440,o),
(335,367,cs),
(366,267,l)
);
},
{
closed = 1;
nodes = (
(450,0,l),
(538,0,l),
(316,656,l),
(222,656,l),
(0,0,l),
(85,0,l),
(148,200,l),
(387,200,l)
);
}
);
width = 538;
}
);
note = uni1EB2;
unicode = 7858;
},
{
glyphname = uni1EB4;
kernLeft = A;
kernRight = A;
lastChange = "2023-11-07 07:31:52 +0000";
layers = (
{
hints = (
{
horizontal = 1;
place = (0,21);
target = up;
type = BottomGhost;
},
{
horizontal = 1;
place = (200,67);
type = Stem;
},
{
horizontal = 1;
place = (588,68);
type = Stem;
},
{
horizontal = 1;
place = (708,43);
type = Stem;
},
{
horizontal = 1;
place = (891,48);
type = Stem;
},
{
place = (136,42);
type = Stem;
},
{
place = (357,43);
type = Stem;
},
{
horizontal = 1;
place = (846,48);
type = Stem;
}
);
layerId = "8B4EFE1E-6C47-485C-9646-016EA71CC488";
shapes = (
{
closed = 1;
nodes = (
(357,939,l),
(353,911,o),
(338,894,o),
(318,894,cs),
(286,894,o),
(263,939,o),
(215,939,cs),
(169,939,o),
(141,899,o),
(136,846,c),
(178,846,l),
(183,875,o),
(198,891,o),
(218,891,cs),
(250,891,o),
(273,846,o),
(321,846,cs),
(367,846,o),
(395,887,o),
(400,939,c)
);
},
{
closed = 1;
nodes = (
(146,815,l),
(153,760,o),
(190,708,o),
(268,708,cs),
(345,708,o),
(383,760,o),
(390,815,c),
(345,815,l),
(337,781,o),
(316,751,o),
(268,751,cs),
(219,751,o),
(198,781,o),
(190,815,c)
);
},
{
closed = 1;
nodes = (
(169,267,l),
(201,367,ls),
(224,440,o),
(245,512,o),
(266,588,c),
(270,588,l),
(291,512,o),
(312,440,o),
(335,367,cs),
(366,267,l)
);
},
{
closed = 1;
nodes = (
(450,0,l),
(538,0,l),
(316,656,l),
(222,656,l),
(0,0,l),
(85,0,l),
(148,200,l),
(387,200,l)
);
}
);
width = 538;
}
);
note = uni1EB4;
unicode = 7860;
},
{
glyphname = uni1EB6;
kernLeft = A;
kernRight = A;
lastChange = "2023-11-07 07:31:52 +0000";
layers = (
{
hints = (
{
horizontal = 1;
place = (-206,107);
type = Stem;
},
{
horizontal = 1;
place = (0,21);
target = up;
type = BottomGhost;
},
{
horizontal = 1;
place = (200,67);
type = Stem;
},
{
horizontal = 1;
place = (588,68);
type = Stem;
},
{
horizontal = 1;
place = (708,47);
type = Stem;
},
{
place = (214,108);
type = Stem;
}
);
layerId = "8B4EFE1E-6C47-485C-9646-016EA71CC488";
shapes = (
{
closed = 1;
nodes = (
(341,818,l),
(335,786,o),
(313,755,o),
(268,755,cs),
(223,755,o),
(201,786,o),
(195,818,c),
(145,818,l),
(151,762,o),
(188,708,o),
(268,708,cs),
(348,708,o),
(384,762,o),
(391,818,c)
);
},
{
closed = 1;
nodes = (
(237,-99,o),
(214,-121,o),
(214,-152,cs),
(214,-184,o),
(237,-206,o),
(268,-206,cs),
(299,-206,o),
(322,-184,o),
(322,-152,cs),
(322,-121,o),
(299,-99,o),
(268,-99,cs)
);
},
{
closed = 1;
nodes = (
(169,267,l),
(201,367,ls),
(224,440,o),
(245,512,o),
(266,588,c),
(270,588,l),
(291,512,o),
(312,440,o),
(335,367,cs),
(366,267,l)
);
},
{
closed = 1;
nodes = (
(538,0,l),
(316,656,l),
(222,656,l),
(0,0,l),
(85,0,l),
(148,200,l),
(387,200,l),
(450,0,l)
);
}
);
width = 538;
}
);
note = uni1EB6;
unicode = 7862;
},
{
glyphname = Aogonek;
kernLeft = A;
kernRight = A;
lastChange = "2023-11-07 07:31:52 +0000";
layers = (
{
hints = (
{
horizontal = 1;
place = (-212,59);
type = Stem;
},
{
horizontal = 1;
place = (0,21);
target = up;
type = BottomGhost;
},
{
horizontal = 1;
place = (200,67);
type = Stem;
},
{
horizontal = 1;
place = (588,68);
type = Stem;
},
{
place = (394,64);
type = Stem;
}
);
layerId = "8B4EFE1E-6C47-485C-9646-016EA71CC488";
shapes = (
{
closed = 1;
nodes = (
(169,267,l),
(201,367,ls),
(224,440,o),
(245,512,o),
(266,588,c),
(270,588,l),
(291,512,o),
(312,440,o),
(335,367,cs),
(366,267,l)
);
},
{
closed = 1;
nodes = (
(546,-139,l),
(534,-148,o),
(521,-153,o),
(504,-153,cs),
(481,-153,o),
(458,-138,o),
(458,-107,cs),
(458,-65,o),
(492,-19,o),
(538,0,c),
(316,656,l),
(222,656,l),
(0,0,l),
(85,0,l),
(148,200,l),
(387,200,l),
(450,0,l),
(469,0,l),
(434,-23,o),
(394,-71,o),
(394,-125,cs),
(394,-182,o),
(436,-212,o),
(489,-212,cs),
(516,-212,o),
(550,-199,o),
(569,-184,c)
);
}
);
width = 538;
}
);
note = Aogonek;
unicode = 260;
},
{
glyphname = AE;
lastChange = "2023-11-07 07:31:52 +0000";
layers = (
{
hints = (
{
horizontal = 1;
place = (0,71);
type = Stem;
},
{
horizontal = 1;
place = (191,67);
type = Stem;
},
{
horizontal = 1;
place = (309,71);
type = Stem;
},
{
horizontal = 1;
place = (586,70);
type = Stem;
},
{
place = (399,83);
type = Stem;
},
{
horizontal = 1;
place = (590,66);
type = Stem;
}
);
layerId = "8B4EFE1E-6C47-485C-9646-016EA71CC488";
shapes = (
{
closed = 1;
nodes = (
(226,258,l),
(287,376,ls),
(322,447,o),
(360,519,o),
(395,590,c),
(399,590,l),
(399,258,l)
);
},
{
closed = 1;
nodes = (
(482,71,l),
(482,309,l),
(715,309,l),
(715,380,l),
(482,380,l),
(482,586,l),
(761,586,l),
(761,656,l),
(350,656,l),
(6,0,l),
(92,0,l),
(191,191,l),
(399,191,l),
(399,0,l),
(771,0,l),
(771,71,l)
);
}
);
width = 817;
}
);
note = AE;
unicode = 198;
},
{
glyphname = Ccedilla;
kernLeft = C;
kernRight = C;
lastChange = "2023-11-07 07:31:52 +0000";
layers = (
{
hints = (
{
horizontal = 1;
place = (-213,41);
type = Stem;
},
{
horizontal = 1;
place = (-11,72);
type = Stem;
},
{
horizontal = 1;
place = (595,73);
type = Stem;
},
{
place = (49,86);
type = Stem;
},
{
place = (345,64);
type = Stem;
}
);
layerId = "8B4EFE1E-6C47-485C-9646-016EA71CC488";
shapes = (
{
closed = 1;
nodes = (
(489,134,l),
(447,87,o),
(401,61,o),
(339,61,cs),
(214,61,o),
(135,165,o),
(135,330,cs),
(135,493,o),
(218,595,o),
(343,595,cs),
(397,595,o),
(439,571,o),
(474,534,c),
(521,587,l),
(482,630,o),
(420,668,o),
(342,668,cs),
(174,668,o),
(49,539,o),
(49,328,cs),
(49,124,o),
(161,0,o),
(314,-11,c),
(281,-75,l),
(322,-85,o),
(345,-98,o),
(345,-124,cs),
(345,-151,o),
(308,-165,o),
(256,-172,c),
(264,-213,l),
(340,-206,o),
(409,-179,o),
(409,-121,cs),
(409,-80,o),
(382,-61,o),
(349,-50,c),
(369,-10,l),
(437,-2,o),
(492,31,o),
(536,83,c)
);
}
);
width = 566;
}
);
note = Ccedilla;
unicode = 199;
},
{
glyphname = Cacute;
kernLeft = C;
kernRight = C;
lastChange = "2023-11-07 07:31:52 +0000";
layers = (
{
hints = (
{
horizontal = 1;
place = (-12,73);
type = Stem;
},
{
horizontal = 1;
place = (595,73);
type = Stem;
},
{
horizontal = 1;
place = (706,112);
type = Stem;
},
{
place = (49,86);
type = Stem;
}
);
layerId = "8B4EFE1E-6C47-485C-9646-016EA71CC488";
shapes = (
{
closed = 1;
nodes = (
(49,114,o),
(172,-12,o),
(337,-12,cs),
(420,-12,o),
(485,23,o),
(536,83,c),
(489,134,l),
(447,87,o),
(401,61,o),
(339,61,cs),
(214,61,o),
(135,165,o),
(135,330,cs),
(135,493,o),
(218,595,o),
(343,595,cs),
(397,595,o),
(439,571,o),
(474,534,c),
(521,587,l),
(482,630,o),
(420,668,o),
(342,668,cs),
(174,668,o),
(49,539,o),
(49,328,cs)
);
},
{
closed = 1;
nodes = (
(459,818,l),
(365,818,l),
(277,706,l),
(346,706,l)
);
}
);
width = 566;
}
);
note = Cacute;
unicode = 262;
},
{
glyphname = Ccircumflex;
kernLeft = C;
kernRight = C;
lastChange = "2023-11-07 07:31:52 +0000";
layers = (
{
hints = (
{
horizontal = 1;
place = (-12,73);
type = Stem;
},
{
horizontal = 1;
place = (595,73);
type = Stem;
},
{
horizontal = 1;
place = (706,112);
type = Stem;
},
{
place = (49,86);
type = Stem;
}
);
layerId = "8B4EFE1E-6C47-485C-9646-016EA71CC488";
shapes = (
{
closed = 1;
nodes = (
(49,114,o),
(172,-12,o),
(337,-12,cs),
(420,-12,o),
(485,23,o),
(536,83,c),
(489,134,l),
(447,87,o),
(401,61,o),
(339,61,cs),
(214,61,o),
(135,165,o),
(135,330,cs),
(135,493,o),
(218,595,o),
(343,595,cs),
(397,595,o),
(439,571,o),
(474,534,c),
(521,587,l),
(482,630,o),
(420,668,o),
(342,668,cs),
(174,668,o),
(49,539,o),
(49,328,cs)
);
},
{
closed = 1;
nodes = (
(259,706,l),
(326,774,l),
(330,774,l),
(397,706,l),
(464,706,l),
(368,818,l),
(288,818,l),
(192,706,l)
);
}
);
width = 566;
}
);
note = Ccircumflex;
unicode = 264;
},
{
glyphname = Ccaron;
kernLeft = C;
kernRight = C;
lastChange = "2023-11-07 07:31:52 +0000";
layers = (
{
hints = (
{
horizontal = 1;
place = (-12,73);
type = Stem;
},
{
horizontal = 1;
place = (595,73);
type = Stem;
},
{
horizontal = 1;
place = (706,112);
type = Stem;
},
{
place = (49,86);
type = Stem;
}
);
layerId = "8B4EFE1E-6C47-485C-9646-016EA71CC488";
shapes = (
{
closed = 1;
nodes = (
(49,114,o),
(172,-12,o),
(337,-12,cs),
(420,-12,o),
(485,23,o),
(536,83,c),
(489,134,l),
(447,87,o),
(401,61,o),
(339,61,cs),
(214,61,o),
(135,165,o),
(135,330,cs),
(135,493,o),
(218,595,o),
(343,595,cs),
(397,595,o),
(439,571,o),
(474,534,c),
(521,587,l),
(482,630,o),
(420,668,o),
(342,668,cs),
(174,668,o),
(49,539,o),
(49,328,cs)
);
},
{
closed = 1;
nodes = (
(397,818,l),
(330,750,l),
(326,750,l),
(259,818,l),
(192,818,l),
(288,706,l),
(368,706,l),
(464,818,l)
);
}
);
width = 566;
}
);
note = Ccaron;
unicode = 268;
},
{
glyphname = Cdotaccent;
kernLeft = C;
kernRight = C;
lastChange = "2023-11-07 07:31:52 +0000";
layers = (
{
hints = (
{
horizontal = 1;
place = (-12,73);
type = Stem;
},
{
horizontal = 1;
place = (595,73);
type = Stem;
},
{
horizontal = 1;
place = (714,107);
type = Stem;
},
{
place = (49,86);
type = Stem;
},
{
place = (271,114);
type = Stem;
}
);
layerId = "8B4EFE1E-6C47-485C-9646-016EA71CC488";
shapes = (
{
closed = 1;
nodes = (
(49,114,o),
(172,-12,o),
(337,-12,cs),
(420,-12,o),
(485,23,o),
(536,83,c),
(489,134,l),
(447,87,o),
(401,61,o),
(339,61,cs),
(214,61,o),
(135,165,o),
(135,330,cs),
(135,493,o),
(218,595,o),
(343,595,cs),
(397,595,o),
(439,571,o),
(474,534,c),
(521,587,l),
(482,630,o),
(420,668,o),
(342,668,cs),
(174,668,o),
(49,539,o),
(49,328,cs)
);
},
{
closed = 1;
nodes = (
(360,714,o),
(385,736,o),
(385,768,cs),
(385,799,o),
(360,821,o),
(328,821,cs),
(296,821,o),
(271,799,o),
(271,768,cs),
(271,736,o),
(296,714,o),
(328,714,cs)
);
}
);
width = 566;
}
);
note = Cdotaccent;
unicode = 266;
},
{
glyphname = Dcaron;
kernRight = D;
lastChange = "2023-11-07 07:31:52 +0000";
layers = (
{
hints = (
{
horizontal = 1;
place = (0,68);
type = Stem;
},
{
horizontal = 1;
place = (588,68);
type = Stem;
},
{
horizontal = 1;
place = (706,112);
type = Stem;
},
{
place = (87,84);
type = Stem;
},
{
place = (475,86);
type = Stem;
}
);
layerId = "8B4EFE1E-6C47-485C-9646-016EA71CC488";
shapes = (
{
closed = 1;
nodes = (
(87,0,l),
(255,0,ls),
(453,0,o),
(561,122,o),
(561,331,cs),
(561,539,o),
(453,656,o),
(251,656,cs),
(87,656,l)
);
},
{
closed = 1;
nodes = (
(171,68,l),
(171,588,l),
(245,588,ls),
(399,588,o),
(475,496,o),
(475,331,cs),
(475,165,o),
(399,68,o),
(245,68,cs)
);
},
{
closed = 1;
nodes = (
(375,818,l),
(308,750,l),
(304,750,l),
(237,818,l),
(170,818,l),
(266,706,l),
(345,706,l),
(441,818,l)
);
}
);
width = 612;
}
);
note = Dcaron;
unicode = 270;
},
{
glyphname = uni1E0C;
kernRight = D;
lastChange = "2023-11-07 07:31:52 +0000";
layers = (
{
hints = (
{
horizontal = 1;
place = (-206,107);
type = Stem;
},
{
horizontal = 1;
place = (0,68);
type = Stem;
},
{
horizontal = 1;
place = (588,68);
type = Stem;
},
{
place = (87,84);
type = Stem;
},
{
place = (248,108);
type = Stem;
},
{
place = (475,86);
type = Stem;
}
);
layerId = "8B4EFE1E-6C47-485C-9646-016EA71CC488";
shapes = (
{
closed = 1;
nodes = (
(87,0,l),
(255,0,ls),
(453,0,o),
(561,122,o),
(561,331,cs),
(561,539,o),
(453,656,o),
(251,656,cs),
(87,656,l)
);
},
{
closed = 1;
nodes = (
(171,68,l),
(171,588,l),
(245,588,ls),
(399,588,o),
(475,496,o),
(475,331,cs),
(475,165,o),
(399,68,o),
(245,68,cs)
);
},
{
closed = 1;
nodes = (
(333,-206,o),
(356,-184,o),
(356,-152,cs),
(356,-121,o),
(333,-99,o),
(302,-99,cs),
(271,-99,o),
(248,-121,o),
(248,-152,cs),
(248,-184,o),
(271,-206,o),
(302,-206,cs)
);
}
);
width = 612;
}
);
note = uni1E0C;
unicode = 7692;
},
{
glyphname = uni1E0E;
kernRight = D;
lastChange = "2023-11-07 07:31:52 +0000";
layers = (
{
hints = (
{
horizontal = 1;
place = (-171,58);
type = Stem;
},
{
horizontal = 1;
place = (0,68);
type = Stem;
},
{
horizontal = 1;
place = (588,68);
type = Stem;
},
{
place = (87,84);
type = Stem;
},
{
place = (475,86);
type = Stem;
},
{
place = (178,247);
type = Stem;
}
);
layerId = "8B4EFE1E-6C47-485C-9646-016EA71CC488";
shapes = (
{
closed = 1;
nodes = (
(87,0,l),
(255,0,ls),
(453,0,o),
(561,122,o),
(561,331,cs),
(561,539,o),
(453,656,o),
(251,656,cs),
(87,656,l)
);
},
{
closed = 1;
nodes = (
(171,68,l),
(171,588,l),
(245,588,ls),
(399,588,o),
(475,496,o),
(475,331,cs),
(475,165,o),
(399,68,o),
(245,68,cs)
);
},
{
closed = 1;
nodes = (
(425,-113,l),
(178,-113,l),
(178,-171,l),
(425,-171,l)
);
}
);
width = 612;
}
);
note = uni1E0E;
unicode = 7694;
},
{
glyphname = Dcroat;
kernRight = D;
lastChange = "2023-11-07 07:31:52 +0000";
layers = (
{
hints = (
{
horizontal = 1;
place = (0,68);
type = Stem;
},
{
horizontal = 1;
place = (321,47);
type = Stem;
},
{
horizontal = 1;
place = (588,68);
type = Stem;
},
{
place = (107,83);
type = Stem;
},
{
place = (495,86);
type = Stem;
}
);
layerId = "8B4EFE1E-6C47-485C-9646-016EA71CC488";
shapes = (
{
closed = 1;
nodes = (
(190,68,l),
(190,321,l),
(342,321,l),
(342,368,l),
(190,368,l),
(190,588,l),
(265,588,ls),
(418,588,o),
(495,496,o),
(495,331,cs),
(495,165,o),
(418,68,o),
(265,68,cs)
);
},
{
closed = 1;
nodes = (
(107,656,l),
(107,368,l),
(30,364,l),
(30,321,l),
(107,321,l),
(107,0,l),
(275,0,ls),
(473,0,o),
(581,122,o),
(581,331,cs),
(581,539,o),
(473,656,o),
(271,656,cs)
);
}
);
width = 631;
}
);
note = Dcroat;
unicode = 272;
},
{
glyphname = Egrave;
lastChange = "2023-11-07 07:31:52 +0000";
layers = (
{
hints = (
{
horizontal = 1;
place = (0,71);
type = Stem;
},
{
horizontal = 1;
place = (309,71);
type = Stem;
},
{
horizontal = 1;
place = (586,70);
type = Stem;
},
{
horizontal = 1;
place = (706,112);
type = Stem;
},
{
place = (87,84);
type = Stem;
}
);
layerId = "8B4EFE1E-6C47-485C-9646-016EA71CC488";
shapes = (
{
closed = 1;
nodes = (
(87,0,l),
(475,0,l),
(475,71,l),
(171,71,l),
(171,309,l),
(419,309,l),
(419,380,l),
(171,380,l),
(171,586,l),
(465,586,l),
(465,656,l),
(87,656,l)
);
},
{
closed = 1;
nodes = (
(264,706,l),
(333,706,l),
(245,818,l),
(151,818,l)
);
}
);
width = 522;
}
);
note = Egrave;
unicode = 200;
},
{
glyphname = Eacute;
lastChange = "2023-11-07 07:31:52 +0000";
layers = (
{
hints = (
{
horizontal = 1;
place = (0,71);
type = Stem;
},
{
horizontal = 1;
place = (309,71);
type = Stem;
},
{
horizontal = 1;
place = (586,70);
type = Stem;
},
{
horizontal = 1;
place = (706,112);
type = Stem;
},
{
place = (87,84);
type = Stem;
}
);
layerId = "8B4EFE1E-6C47-485C-9646-016EA71CC488";
shapes = (
{
closed = 1;
nodes = (
(87,0,l),
(475,0,l),
(475,71,l),
(171,71,l),
(171,309,l),
(419,309,l),
(419,380,l),
(171,380,l),
(171,586,l),
(465,586,l),
(465,656,l),
(87,656,l)
);
},
{
closed = 1;
nodes = (
(413,818,l),
(319,818,l),
(231,706,l),
(300,706,l)
);
}
);
width = 522;
}
);
note = Eacute;
unicode = 201;
},
{
glyphname = Ecircumflex;
lastChange = "2023-11-07 07:31:52 +0000";
layers = (
{
hints = (
{
horizontal = 1;
place = (0,71);
type = Stem;
},
{
horizontal = 1;
place = (309,71);
type = Stem;
},
{
horizontal = 1;
place = (586,70);
type = Stem;
},
{
horizontal = 1;
place = (706,112);
type = Stem;
},
{
place = (87,84);
type = Stem;
}
);
layerId = "8B4EFE1E-6C47-485C-9646-016EA71CC488";
shapes = (
{
closed = 1;
nodes = (
(87,0,l),
(475,0,l),
(475,71,l),
(171,71,l),
(171,309,l),
(419,309,l),
(419,380,l),
(171,380,l),
(171,586,l),
(465,586,l),
(465,656,l),
(87,656,l)
);
},
{
closed = 1;
nodes = (
(213,706,l),
(280,774,l),
(284,774,l),
(351,706,l),
(418,706,l),
(322,818,l),
(242,818,l),
(146,706,l)
);
}
);
width = 522;
}
);
note = Ecircumflex;
unicode = 202;
},
{
glyphname = Ecaron;
lastChange = "2023-11-07 07:31:52 +0000";
layers = (
{
hints = (
{
horizontal = 1;
place = (0,71);
type = Stem;
},
{
horizontal = 1;
place = (309,71);
type = Stem;
},
{
horizontal = 1;
place = (586,70);
type = Stem;
},
{
horizontal = 1;
place = (706,112);
type = Stem;
},
{
place = (87,84);
type = Stem;
}
);
layerId = "8B4EFE1E-6C47-485C-9646-016EA71CC488";
shapes = (
{
closed = 1;
nodes = (
(87,0,l),
(475,0,l),
(475,71,l),
(171,71,l),
(171,309,l),
(419,309,l),
(419,380,l),
(171,380,l),
(171,586,l),
(465,586,l),
(465,656,l),
(87,656,l)
);
},
{
closed = 1;
nodes = (
(351,818,l),
(284,750,l),
(280,750,l),
(213,818,l),
(146,818,l),
(242,706,l),
(322,706,l),
(418,818,l)
);
}
);
width = 522;
}
);
note = Ecaron;
unicode = 282;
},
{
glyphname = Edieresis;
lastChange = "2023-11-07 07:31:52 +0000";
layers = (
{
hints = (
{
horizontal = 1;
place = (0,71);
type = Stem;
},
{
horizontal = 1;
place = (309,71);
type = Stem;
},
{
horizontal = 1;
place = (586,70);
type = Stem;
},
{
place = (87,84);
type = Stem;
},
{
horizontal = 1;
place = (715,98);
type = Stem;
},
{
place = (147,97);
type = Stem;
},
{
place = (319,98);
type = Stem;
}
);
layerId = "8B4EFE1E-6C47-485C-9646-016EA71CC488";
shapes = (
{
closed = 1;
nodes = (
(87,0,l),
(475,0,l),
(475,71,l),
(171,71,l),
(171,309,l),
(419,309,l),
(419,380,l),
(171,380,l),
(171,586,l),
(465,586,l),
(465,656,l),
(87,656,l)
);
},
{
closed = 1;
nodes = (
(224,715,o),
(244,736,o),
(244,764,cs),
(244,793,o),
(224,813,o),
(195,813,cs),
(167,813,o),
(147,793,o),
(147,764,cs),
(147,736,o),
(167,715,o),
(195,715,cs)
);
},
{
closed = 1;
nodes = (
(396,715,o),
(417,736,o),
(417,764,cs),
(417,793,o),
(396,813,o),
(368,813,cs),
(340,813,o),
(319,793,o),
(319,764,cs),
(319,736,o),
(340,715,o),
(368,715,cs)
);
}
);
width = 522;
}
);
note = Edieresis;
unicode = 203;
},
{
glyphname = Emacron;
lastChange = "2023-11-07 07:31:52 +0000";
layers = (
{
hints = (
{
horizontal = 1;
place = (0,71);
type = Stem;
},
{
horizontal = 1;
place = (309,71);
type = Stem;
},
{
horizontal = 1;
place = (586,70);
type = Stem;
},
{
horizontal = 1;
place = (729,57);
type = Stem;
},
{
place = (87,84);
type = Stem;
},
{
place = (158,248);
type = Stem;
}
);
layerId = "8B4EFE1E-6C47-485C-9646-016EA71CC488";
shapes = (
{
closed = 1;
nodes = (
(87,0,l),
(475,0,l),
(475,71,l),
(171,71,l),
(171,309,l),
(419,309,l),
(419,380,l),
(171,380,l),
(171,586,l),
(465,586,l),
(465,656,l),
(87,656,l)
);
},
{
closed = 1;
nodes = (
(158,729,l),
(406,729,l),
(406,786,l),
(158,786,l)
);
}
);
width = 522;
}
);
note = Emacron;
unicode = 274;
},
{
glyphname = Ebreve;
lastChange = "2023-11-07 07:31:52 +0000";
layers = (
{
hints = (
{
horizontal = 1;
place = (0,71);
type = Stem;
},
{
horizontal = 1;
place = (309,71);
type = Stem;
},
{
horizontal = 1;
place = (586,70);
type = Stem;
},
{
horizontal = 1;
place = (708,47);
type = Stem;
},
{
place = (87,84);
type = Stem;
}
);
layerId = "8B4EFE1E-6C47-485C-9646-016EA71CC488";
shapes = (
{
closed = 1;
nodes = (
(87,0,l),
(475,0,l),
(475,71,l),
(171,71,l),
(171,309,l),
(419,309,l),
(419,380,l),
(171,380,l),
(171,586,l),
(465,586,l),
(465,656,l),
(87,656,l)
);
},
{
closed = 1;
nodes = (
(362,708,o),
(398,762,o),
(405,818,c),
(355,818,l),
(349,786,o),
(327,755,o),
(282,755,cs),
(237,755,o),
(215,786,o),
(209,818,c),
(159,818,l),
(165,762,o),
(202,708,o),
(282,708,cs)
);
}
);
width = 522;
}
);
note = Ebreve;
unicode = 276;
},
{
glyphname = Edotaccent;
lastChange = "2023-11-07 07:31:52 +0000";
layers = (
{
hints = (
{
horizontal = 1;
place = (0,71);
type = Stem;
},
{
horizontal = 1;
place = (309,71);
type = Stem;
},
{
horizontal = 1;
place = (586,70);
type = Stem;
},
{
horizontal = 1;
place = (714,107);
type = Stem;
},
{
place = (87,84);
type = Stem;
},
{
place = (225,114);
type = Stem;
}
);
layerId = "8B4EFE1E-6C47-485C-9646-016EA71CC488";
shapes = (
{
closed = 1;
nodes = (
(87,0,l),
(475,0,l),
(475,71,l),
(171,71,l),
(171,309,l),
(419,309,l),
(419,380,l),
(171,380,l),
(171,586,l),
(465,586,l),
(465,656,l),
(87,656,l)
);
},
{
closed = 1;
nodes = (
(314,714,o),
(339,736,o),
(339,768,cs),
(339,799,o),
(314,821,o),
(282,821,cs),
(250,821,o),
(225,799,o),
(225,768,cs),
(225,736,o),
(250,714,o),
(282,714,cs)
);
}
);
width = 522;
}
);
note = Edotaccent;
unicode = 278;
},
{
glyphname = uni1EB8;
lastChange = "2023-11-07 07:31:52 +0000";
layers = (
{
hints = (
{
horizontal = 1;
place = (-206,107);
type = Stem;
},
{
horizontal = 1;
place = (0,71);
type = Stem;
},
{
horizontal = 1;
place = (309,71);
type = Stem;
},
{
horizontal = 1;
place = (586,70);
type = Stem;
},
{
place = (87,84);
type = Stem;
},
{
place = (239,108);
type = Stem;
}
);
layerId = "8B4EFE1E-6C47-485C-9646-016EA71CC488";
shapes = (
{
closed = 1;
nodes = (
(87,0,l),
(475,0,l),
(475,71,l),
(171,71,l),
(171,309,l),
(419,309,l),
(419,380,l),
(171,380,l),
(171,586,l),
(465,586,l),
(465,656,l),
(87,656,l)
);
},
{
closed = 1;
nodes = (
(325,-206,o),
(347,-184,o),
(347,-152,cs),
(347,-121,o),
(325,-99,o),
(293,-99,cs),
(262,-99,o),
(239,-121,o),
(239,-152,cs),
(239,-184,o),
(262,-206,o),
(293,-206,cs)
);
}
);
width = 522;
}
);
note = uni1EB8;
unicode = 7864;
},
{
glyphname = uni1EBA;
lastChange = "2023-11-07 07:31:52 +0000";
layers = (
{
hints = (
{
horizontal = 1;
place = (0,71);
type = Stem;
},
{
horizontal = 1;
place = (309,71);
type = Stem;
},
{
horizontal = 1;
place = (586,70);
type = Stem;
},
{
horizontal = 1;
place = (824,48);
type = Stem;
},
{
place = (87,84);
type = Stem;
},
{
place = (301,64);
type = Stem;
}
);
layerId = "8B4EFE1E-6C47-485C-9646-016EA71CC488";
shapes = (
{
closed = 1;
nodes = (
(87,0,l),
(475,0,l),
(475,71,l),
(171,71,l),
(171,309,l),
(419,309,l),
(419,380,l),
(171,380,l),
(171,586,l),
(465,586,l),
(465,656,l),
(87,656,l)
);
},
{
closed = 1;
nodes = (
(254,698,l),
(312,708,o),
(365,733,o),
(365,791,cs),
(365,842,o),
(314,869,o),
(226,872,c),
(218,824,l),
(273,822,o),
(301,808,o),
(301,782,cs),
(301,757,o),
(277,745,o),
(244,736,c)
);
}
);
width = 522;
}
);
note = uni1EBA;
unicode = 7866;
},
{
glyphname = uni1EBC;
lastChange = "2023-11-07 07:31:52 +0000";
layers = (
{
hints = (
{
horizontal = 1;
place = (0,71);
type = Stem;
},
{
horizontal = 1;
place = (309,71);
type = Stem;
},
{
horizontal = 1;
place = (586,70);
type = Stem;
},
{
horizontal = 1;
place = (711,56);
type = Stem;
},
{
place = (87,84);
type = Stem;
},
{
place = (381,45);
type = Stem;
},
{
place = (137,46);
type = Stem;
},
{
horizontal = 1;
place = (763,56);
type = Stem;
}
);
layerId = "8B4EFE1E-6C47-485C-9646-016EA71CC488";
shapes = (
{
closed = 1;
nodes = (
(87,0,l),
(475,0,l),
(475,71,l),
(171,71,l),
(171,309,l),
(419,309,l),
(419,380,l),
(171,380,l),
(171,586,l),
(465,586,l),
(465,656,l),
(87,656,l)
);
},
{
closed = 1;
nodes = (
(390,711,o),
(421,758,o),
(426,819,c),
(381,819,l),
(375,786,o),
(360,767,o),
(340,767,cs),
(303,767,o),
(274,819,o),
(222,819,cs),
(174,819,o),
(143,773,o),
(137,711,c),
(183,711,l),
(188,745,o),
(203,763,o),
(223,763,cs),
(260,763,o),
(289,711,o),
(342,711,cs)
);
}
);
width = 522;
}
);
note = uni1EBC;
unicode = 7868;
},
{
glyphname = uni1EBE;
lastChange = "2023-11-07 07:31:52 +0000";
layers = (
{
hints = (
{
horizontal = 1;
place = (0,71);
type = Stem;
},
{
horizontal = 1;
place = (309,71);
type = Stem;
},
{
horizontal = 1;
place = (586,70);
type = Stem;
},
{
horizontal = 1;
place = (706,106);
type = Stem;
},
{
place = (87,84);
type = Stem;
},
{
horizontal = 1;
place = (770,111);
type = Stem;
}
);
layerId = "8B4EFE1E-6C47-485C-9646-016EA71CC488";
shapes = (
{
closed = 1;
nodes = (
(87,0,l),
(475,0,l),
(475,71,l),
(171,71,l),
(171,309,l),
(419,309,l),
(419,380,l),
(171,380,l),
(171,586,l),
(465,586,l),
(465,656,l),
(87,656,l)
);
},
{
closed = 1;
nodes = (
(373,770,l),
(425,770,l),
(515,881,l),
(444,881,l)
);
},
{
closed = 1;
nodes = (
(153,706,l),
(217,706,l),
(280,768,l),
(284,768,l),
(347,706,l),
(410,706,l),
(318,812,l),
(246,812,l)
);
}
);
width = 522;
}
);
note = uni1EBE;
unicode = 7870;
},
{
glyphname = uni1EC0;
lastChange = "2023-11-07 07:31:52 +0000";
layers = (
{
hints = (
{
horizontal = 1;
place = (0,71);
type = Stem;
},
{
horizontal = 1;
place = (309,71);
type = Stem;
},
{
horizontal = 1;
place = (586,70);
type = Stem;
},
{
horizontal = 1;
place = (706,106);
type = Stem;
},
{
place = (87,84);
type = Stem;
},
{
horizontal = 1;
place = (770,111);
type = Stem;
}
);
layerId = "8B4EFE1E-6C47-485C-9646-016EA71CC488";
shapes = (
{
closed = 1;
nodes = (
(87,0,l),
(475,0,l),
(475,71,l),
(171,71,l),
(171,309,l),
(419,309,l),
(419,380,l),
(171,380,l),
(171,586,l),
(465,586,l),
(465,656,l),
(87,656,l)
);
},
{
closed = 1;
nodes = (
(395,881,l),
(323,881,l),
(414,770,l),
(466,770,l)
);
},
{
closed = 1;
nodes = (
(153,706,l),
(217,706,l),
(280,768,l),
(284,768,l),
(347,706,l),
(410,706,l),
(318,812,l),
(246,812,l)
);
}
);
width = 522;
}
);
note = uni1EC0;
unicode = 7872;
},
{
glyphname = uni1EC2;
lastChange = "2023-11-07 07:31:52 +0000";
layers = (
{
hints = (
{
horizontal = 1;
place = (0,71);
type = Stem;
},
{
horizontal = 1;
place = (309,71);
type = Stem;
},
{
horizontal = 1;
place = (586,70);
type = Stem;
},
{
horizontal = 1;
place = (706,106);
type = Stem;
},
{
horizontal = 1;
place = (864,42);
type = Stem;
},
{
place = (87,84);
type = Stem;
},
{
place = (431,58);
type = Stem;
}
);
layerId = "8B4EFE1E-6C47-485C-9646-016EA71CC488";
shapes = (
{
closed = 1;
nodes = (
(87,0,l),
(475,0,l),
(475,71,l),
(171,71,l),
(171,309,l),
(419,309,l),
(419,380,l),
(171,380,l),
(171,586,l),
(465,586,l),
(465,656,l),
(87,656,l)
);
},
{
closed = 1;
nodes = (
(397,754,l),
(444,762,o),
(489,782,o),
(489,833,cs),
(489,879,o),
(446,903,o),
(369,906,c),
(360,864,l),
(409,861,o),
(431,851,o),
(431,825,cs),
(431,804,o),
(411,795,o),
(386,789,c)
);
},
{
closed = 1;
nodes = (
(153,706,l),
(217,706,l),
(280,768,l),
(284,768,l),
(347,706,l),
(410,706,l),
(318,812,l),
(246,812,l)
);
}
);
width = 522;
}
);
note = uni1EC2;
unicode = 7874;
},
{
glyphname = uni1EC4;
lastChange = "2023-11-07 07:31:52 +0000";
layers = (
{
hints = (
{
horizontal = 1;
place = (0,71);
type = Stem;
},
{
horizontal = 1;
place = (309,71);
type = Stem;
},
{
horizontal = 1;
place = (586,70);
type = Stem;
},
{
horizontal = 1;
place = (706,106);
type = Stem;
},
{
horizontal = 1;
place = (891,48);
type = Stem;
},
{
place = (87,84);
type = Stem;
},
{
place = (150,42);
type = Stem;
},
{
place = (371,43);
type = Stem;
},
{
horizontal = 1;
place = (846,48);
type = Stem;
}
);
layerId = "8B4EFE1E-6C47-485C-9646-016EA71CC488";
shapes = (
{
closed = 1;
nodes = (
(87,0,l),
(475,0,l),
(475,71,l),
(171,71,l),
(171,309,l),
(419,309,l),
(419,380,l),
(171,380,l),
(171,586,l),
(465,586,l),
(465,656,l),
(87,656,l)
);
},
{
closed = 1;
nodes = (
(153,706,l),
(217,706,l),
(280,768,l),
(284,768,l),
(347,706,l),
(410,706,l),
(318,812,l),
(246,812,l)
);
},
{
closed = 1;
nodes = (
(192,846,l),
(197,875,o),
(212,891,o),
(232,891,cs),
(264,891,o),
(287,846,o),
(335,846,cs),
(381,846,o),
(409,887,o),
(414,939,c),
(371,939,l),
(367,911,o),
(352,894,o),
(332,894,cs),
(300,894,o),
(277,939,o),
(229,939,cs),
(183,939,o),
(155,899,o),
(150,846,c)
);
}
);
width = 522;
}
);
note = uni1EC4;
unicode = 7876;
},
{
glyphname = uni1EC6;
lastChange = "2023-11-07 07:31:52 +0000";
layers = (
{
hints = (
{
horizontal = 1;
place = (-206,107);
type = Stem;
},
{
horizontal = 1;
place = (0,71);
type = Stem;
},
{
horizontal = 1;
place = (309,71);
type = Stem;
},
{
horizontal = 1;
place = (586,70);
type = Stem;
},
{
horizontal = 1;
place = (706,112);
type = Stem;
},
{
place = (87,84);
type = Stem;
},
{
place = (239,108);
type = Stem;
}
);
layerId = "8B4EFE1E-6C47-485C-9646-016EA71CC488";
shapes = (
{
closed = 1;
nodes = (
(87,0,l),
(475,0,l),
(475,71,l),
(171,71,l),
(171,309,l),
(419,309,l),
(419,380,l),
(171,380,l),
(171,586,l),
(465,586,l),
(465,656,l),
(87,656,l)
);
},
{
closed = 1;
nodes = (
(213,706,l),
(280,774,l),
(284,774,l),
(351,706,l),
(418,706,l),
(322,818,l),
(242,818,l),
(146,706,l)
);
},
{
closed = 1;
nodes = (
(325,-206,o),
(347,-184,o),
(347,-152,cs),
(347,-121,o),
(325,-99,o),
(293,-99,cs),
(262,-99,o),
(239,-121,o),
(239,-152,cs),
(239,-184,o),
(262,-206,o),
(293,-206,cs)
);
}
);
width = 522;
}
);
note = uni1EC6;
unicode = 7878;
},
{
glyphname = Eogonek;
lastChange = "2023-11-07 07:31:52 +0000";
layers = (
{
hints = (
{
horizontal = 1;
place = (-212,59);
type = Stem;
},
{
horizontal = 1;
place = (0,71);
type = Stem;
},
{
horizontal = 1;
place = (309,71);
type = Stem;
},
{
horizontal = 1;
place = (586,70);
type = Stem;
},
{
place = (87,84);
type = Stem;
},
{
place = (316,64);
type = Stem;
}
);
layerId = "8B4EFE1E-6C47-485C-9646-016EA71CC488";
shapes = (
{
closed = 1;
nodes = (
(87,0,l),
(391,0,l),
(353,-24,o),
(316,-70,o),
(316,-125,cs),
(316,-182,o),
(358,-212,o),
(411,-212,cs),
(438,-212,o),
(472,-199,o),
(491,-184,c),
(468,-139,l),
(456,-148,o),
(444,-153,o),
(428,-153,cs),
(404,-153,o),
(380,-138,o),
(380,-107,cs),
(380,-54,o),
(427,-6,o),
(472,0,cs),
(475,0,l),
(475,71,l),
(171,71,l),
(171,309,l),
(419,309,l),
(419,380,l),
(171,380,l),
(171,586,l),
(465,586,l),
(465,656,l),
(87,656,l)
);
}
);
width = 522;
}
);
note = Eogonek;
unicode = 280;
},
{
glyphname = Gcircumflex;
kernLeft = C;
kernRight = G;
lastChange = "2023-11-07 07:31:52 +0000";
layers = (
{
hints = (
{
horizontal = 1;
place = (-12,73);
type = Stem;
},
{
horizontal = 1;
place = (271,69);
type = Stem;
},
{
horizontal = 1;
place = (595,73);
type = Stem;
},
{
horizontal = 1;
place = (706,112);
type = Stem;
},
{
place = (49,86);
type = Stem;
},
{
place = (472,76);
type = Stem;
}
);
layerId = "8B4EFE1E-6C47-485C-9646-016EA71CC488";
shapes = (
{
closed = 1;
nodes = (
(49,114,o),
(172,-12,o),
(344,-12,cs),
(432,-12,o),
(505,22,o),
(548,64,c),
(548,340,l),
(333,340,l),
(333,271,l),
(472,271,l),
(472,100,l),
(446,76,o),
(400,61,o),
(353,61,cs),
(213,61,o),
(135,165,o),
(135,330,cs),
(135,493,o),
(220,595,o),
(353,595,cs),
(418,595,o),
(459,569,o),
(492,534,c),
(540,587,l),
(501,627,o),
(441,668,o),
(352,668,cs),
(176,668,o),
(49,539,o),
(49,328,cs)
);
},
{
closed = 1;
nodes = (
(282,706,l),
(349,774,l),
(353,774,l),
(420,706,l),
(487,706,l),
(391,818,l),
(311,818,l),
(215,706,l)
);
}
);
width = 612;
}
);
note = Gcircumflex;
unicode = 284;
},
{
glyphname = Gbreve;
kernLeft = C;
kernRight = G;
lastChange = "2023-11-07 07:31:52 +0000";
layers = (
{
hints = (
{
horizontal = 1;
place = (-12,73);
type = Stem;
},
{
horizontal = 1;
place = (271,69);
type = Stem;
},
{
horizontal = 1;
place = (595,73);
type = Stem;
},
{
horizontal = 1;
place = (708,47);
type = Stem;
},
{
place = (49,86);
type = Stem;
},
{
place = (472,76);
type = Stem;
}
);
layerId = "8B4EFE1E-6C47-485C-9646-016EA71CC488";
shapes = (
{
closed = 1;
nodes = (
(49,114,o),
(172,-12,o),
(344,-12,cs),
(432,-12,o),
(505,22,o),
(548,64,c),
(548,340,l),
(333,340,l),
(333,271,l),
(472,271,l),
(472,100,l),
(446,76,o),
(400,61,o),
(353,61,cs),
(213,61,o),
(135,165,o),
(135,330,cs),
(135,493,o),
(220,595,o),
(353,595,cs),
(418,595,o),
(459,569,o),
(492,534,c),
(540,587,l),
(501,627,o),
(441,668,o),
(352,668,cs),
(176,668,o),
(49,539,o),
(49,328,cs)
);
},
{
closed = 1;
nodes = (
(431,708,o),
(467,762,o),
(474,818,c),
(424,818,l),
(418,786,o),
(396,755,o),
(351,755,cs),
(306,755,o),
(284,786,o),
(278,818,c),
(228,818,l),
(235,762,o),
(271,708,o),
(351,708,cs)
);
}
);
width = 612;
}
);
note = Gbreve;
unicode = 286;
},
{
glyphname = Gdotaccent;
kernLeft = C;
kernRight = G;
lastChange = "2023-11-07 07:31:52 +0000";
layers = (
{
hints = (
{
horizontal = 1;
place = (-12,73);
type = Stem;
},
{
horizontal = 1;
place = (271,69);
type = Stem;
},
{
horizontal = 1;
place = (595,73);
type = Stem;
},
{
horizontal = 1;
place = (714,107);
type = Stem;
},
{
place = (49,86);
type = Stem;
},
{
place = (294,114);
type = Stem;
},
{
place = (472,76);
type = Stem;
}
);
layerId = "8B4EFE1E-6C47-485C-9646-016EA71CC488";
shapes = (
{
closed = 1;
nodes = (
(49,114,o),
(172,-12,o),
(344,-12,cs),
(432,-12,o),
(505,22,o),
(548,64,c),
(548,340,l),
(333,340,l),
(333,271,l),
(472,271,l),
(472,100,l),
(446,76,o),
(400,61,o),
(353,61,cs),
(213,61,o),
(135,165,o),
(135,330,cs),
(135,493,o),
(220,595,o),
(353,595,cs),
(418,595,o),
(459,569,o),
(492,534,c),
(540,587,l),
(501,627,o),
(441,668,o),
(352,668,cs),
(176,668,o),
(49,539,o),
(49,328,cs)
);
},
{
closed = 1;
nodes = (
(383,714,o),
(408,736,o),
(408,768,cs),
(408,799,o),
(383,821,o),
(351,821,cs),
(319,821,o),
(294,799,o),
(294,768,cs),
(294,736,o),
(319,714,o),
(351,714,cs)
);
}
);
width = 612;
}
);
note = Gdotaccent;
unicode = 288;
},
{
glyphname = uni0122;
kernLeft = C;
kernRight = G;
lastChange = "2023-11-07 07:31:52 +0000";
layers = (
{
hints = (
{
horizontal = 1;
place = (-216,40);
type = Stem;
},
{
horizontal = 1;
place = (-12,73);
type = Stem;
},
{
horizontal = 1;
place = (271,69);
type = Stem;
},
{
horizontal = 1;
place = (595,73);
type = Stem;
},
{
place = (49,86);
type = Stem;
},
{
place = (350,64);
type = Stem;
},
{
place = (472,76);
type = Stem;
}
);
layerId = "8B4EFE1E-6C47-485C-9646-016EA71CC488";
shapes = (
{
closed = 1;
nodes = (
(49,114,o),
(172,-12,o),
(344,-12,cs),
(432,-12,o),
(505,22,o),
(548,64,c),
(548,340,l),
(333,340,l),
(333,271,l),
(472,271,l),
(472,100,l),
(446,76,o),
(400,61,o),
(353,61,cs),
(213,61,o),
(135,165,o),
(135,330,cs),
(135,493,o),
(220,595,o),
(353,595,cs),
(418,595,o),
(459,569,o),
(492,534,c),
(540,587,l),
(501,627,o),
(441,668,o),
(352,668,cs),
(176,668,o),
(49,539,o),
(49,328,cs)
);
},
{
closed = 1;
nodes = (
(299,-86,l),
(327,-93,o),
(350,-104,o),
(350,-130,cs),
(350,-156,o),
(313,-169,o),
(261,-176,c),
(269,-216,l),
(345,-210,o),
(414,-183,o),
(414,-125,cs),
(414,-80,o),
(384,-58,o),
(317,-48,c)
);
}
);
width = 612;
}
);
note = uni0122;
unicode = 290;
},
{
glyphname = Gcaron;
kernLeft = C;
kernRight = G;
lastChange = "2023-11-07 07:31:52 +0000";
layers = (
{
hints = (
{
horizontal = 1;
place = (-12,73);
type = Stem;
},
{
horizontal = 1;
place = (271,69);
type = Stem;
},
{
horizontal = 1;
place = (595,73);
type = Stem;
},
{
horizontal = 1;
place = (706,112);
type = Stem;
},
{
place = (49,86);
type = Stem;
},
{
place = (472,76);
type = Stem;
}
);
layerId = "8B4EFE1E-6C47-485C-9646-016EA71CC488";
shapes = (
{
closed = 1;
nodes = (
(49,114,o),
(172,-12,o),
(344,-12,cs),
(432,-12,o),
(505,22,o),
(548,64,c),
(548,340,l),
(333,340,l),
(333,271,l),
(472,271,l),
(472,100,l),
(446,76,o),
(400,61,o),
(353,61,cs),
(213,61,o),
(135,165,o),
(135,330,cs),
(135,493,o),
(220,595,o),
(353,595,cs),
(418,595,o),
(459,569,o),
(492,534,c),
(540,587,l),
(501,627,o),
(441,668,o),
(352,668,cs),
(176,668,o),
(49,539,o),
(49,328,cs)
);
},
{
closed = 1;
nodes = (
(420,818,l),
(353,750,l),
(349,750,l),
(282,818,l),
(215,818,l),
(311,706,l),
(391,706,l),
(487,818,l)
);
}
);
width = 612;
}
);
note = Gcaron;
unicode = 486;
},
{
glyphname = uni1E20;
kernLeft = C;
kernRight = G;
lastChange = "2023-11-07 07:31:52 +0000";
layers = (
{
hints = (
{
horizontal = 1;
place = (-12,73);
type = Stem;
},
{
horizontal = 1;
place = (271,69);
type = Stem;
},
{
horizontal = 1;
place = (595,73);
type = Stem;
},
{
horizontal = 1;
place = (729,57);
type = Stem;
},
{
place = (49,86);
type = Stem;
},
{
place = (472,76);
type = Stem;
},
{
place = (227,248);
type = Stem;
}
);
layerId = "8B4EFE1E-6C47-485C-9646-016EA71CC488";
shapes = (
{
closed = 1;
nodes = (
(49,114,o),
(172,-12,o),
(344,-12,cs),
(432,-12,o),
(505,22,o),
(548,64,c),
(548,340,l),
(333,340,l),
(333,271,l),
(472,271,l),
(472,100,l),
(446,76,o),
(400,61,o),
(353,61,cs),
(213,61,o),
(135,165,o),
(135,330,cs),
(135,493,o),
(220,595,o),
(353,595,cs),
(418,595,o),
(459,569,o),
(492,534,c),
(540,587,l),
(501,627,o),
(441,668,o),
(352,668,cs),
(176,668,o),
(49,539,o),
(49,328,cs)
);
},
{
closed = 1;
nodes = (
(227,729,l),
(475,729,l),
(475,786,l),
(227,786,l)
);
}
);
width = 612;
}
);
note = uni1E20;
unicode = 7712;
},
{
glyphname = uni00470303;
kernLeft = C;
kernRight = G;
lastChange = "2023-11-07 07:31:52 +0000";
layers = (
{
hints = (
{
horizontal = 1;
place = (-12,73);
type = Stem;
},
{
horizontal = 1;
place = (271,69);
type = Stem;
},
{
horizontal = 1;
place = (595,73);
type = Stem;
},
{
horizontal = 1;
place = (763,56);
type = Stem;
},
{
place = (49,86);
type = Stem;
},
{
place = (472,76);
type = Stem;
},
{
horizontal = 1;
place = (711,56);
type = Stem;
},
{
place = (450,46);
type = Stem;
},
{
place = (207,45);
type = Stem;
}
);
layerId = "8B4EFE1E-6C47-485C-9646-016EA71CC488";
shapes = (
{
closed = 1;
nodes = (
(49,114,o),
(172,-12,o),
(344,-12,cs),
(432,-12,o),
(505,22,o),
(548,64,c),
(548,340,l),
(333,340,l),
(333,271,l),
(472,271,l),
(472,100,l),
(446,76,o),
(400,61,o),
(353,61,cs),
(213,61,o),
(135,165,o),
(135,330,cs),
(135,493,o),
(220,595,o),
(353,595,cs),
(418,595,o),
(459,569,o),
(492,534,c),
(540,587,l),
(501,627,o),
(441,668,o),
(352,668,cs),
(176,668,o),
(49,539,o),
(49,328,cs)
);
},
{
closed = 1;
nodes = (
(459,711,o),
(490,758,o),
(496,819,c),
(450,819,l),
(445,786,o),
(429,767,o),
(410,767,cs),
(373,767,o),
(344,819,o),
(291,819,cs),
(243,819,o),
(212,773,o),
(207,711,c),
(252,711,l),
(258,745,o),
(273,763,o),
(293,763,cs),
(329,763,o),
(359,711,o),
(411,711,cs)
);
}
);
width = 612;
}
);
note = uni00470303;
},
{
glyphname = Hcircumflex;
lastChange = "2023-11-07 07:31:52 +0000";
layers = (
{
hints = (
{
horizontal = 1;
place = (0,21);
target = up;
type = BottomGhost;
},
{
horizontal = 1;
place = (309,72);
type = Stem;
},
{
horizontal = 1;
place = (656,-20);
target = down;
type = TopGhost;
},
{
horizontal = 1;
place = (706,112);
type = Stem;
},
{
place = (87,84);
type = Stem;
},
{
place = (476,83);
type = Stem;
}
);
layerId = "8B4EFE1E-6C47-485C-9646-016EA71CC488";
shapes = (
{
closed = 1;
nodes = (
(87,0,l),
(171,0,l),
(171,309,l),
(476,309,l),
(476,0,l),
(559,0,l),
(559,656,l),
(476,656,l),
(476,381,l),
(171,381,l),
(171,656,l),
(87,656,l)
);
},
{
closed = 1;
nodes = (
(254,706,l),
(321,774,l),
(325,774,l),
(392,706,l),
(459,706,l),
(363,818,l),
(283,818,l),
(187,706,l)
);
}
);
width = 647;
}
);
note = Hcircumflex;
unicode = 292;
},
{
glyphname = uni1E24;
lastChange = "2023-11-07 07:31:52 +0000";
layers = (
{
hints = (
{
horizontal = 1;
place = (-206,107);
type = Stem;
},
{
horizontal = 1;
place = (0,21);
target = up;
type = BottomGhost;
},
{
horizontal = 1;
place = (309,72);
type = Stem;
},
{
horizontal = 1;
place = (656,-20);
target = down;
type = TopGhost;
},
{
place = (87,84);
type = Stem;
},
{
place = (269,108);
type = Stem;
},
{
place = (476,83);
type = Stem;
}
);
layerId = "8B4EFE1E-6C47-485C-9646-016EA71CC488";
shapes = (
{
closed = 1;
nodes = (
(87,0,l),
(171,0,l),
(171,309,l),
(476,309,l),
(476,0,l),
(559,0,l),
(559,656,l),
(476,656,l),
(476,381,l),
(171,381,l),
(171,656,l),
(87,656,l)
);
},
{
closed = 1;
nodes = (
(354,-206,o),
(377,-184,o),
(377,-152,cs),
(377,-121,o),
(354,-99,o),
(323,-99,cs),
(292,-99,o),
(269,-121,o),
(269,-152,cs),
(269,-184,o),
(292,-206,o),
(323,-206,cs)
);
}
);
width = 647;
}
);
note = uni1E24;
unicode = 7716;
},
{
glyphname = uni1E2A;
lastChange = "2023-11-07 07:31:52 +0000";
layers = (
{
hints = (
{
horizontal = 1;
place = (-206,51);
type = Stem;
},
{
horizontal = 1;
place = (0,21);
target = up;
type = BottomGhost;
},
{
horizontal = 1;
place = (309,72);
type = Stem;
},
{
horizontal = 1;
place = (656,-20);
target = down;
type = TopGhost;
},
{
place = (87,84);
type = Stem;
},
{
place = (476,83);
type = Stem;
},
{
place = (197,51);
type = Stem;
},
{
place = (398,51);
type = Stem;
}
);
layerId = "8B4EFE1E-6C47-485C-9646-016EA71CC488";
shapes = (
{
closed = 1;
nodes = (
(87,0,l),
(171,0,l),
(171,309,l),
(476,309,l),
(476,0,l),
(559,0,l),
(559,656,l),
(476,656,l),
(476,381,l),
(171,381,l),
(171,656,l),
(87,656,l)
);
},
{
closed = 1;
nodes = (
(409,-206,o),
(445,-138,o),
(449,-79,c),
(398,-79,l),
(393,-118,o),
(370,-155,o),
(323,-155,cs),
(276,-155,o),
(253,-118,o),
(248,-79,c),
(197,-79,l),
(201,-138,o),
(237,-206,o),
(323,-206,cs)
);
}
);
width = 647;
}
);
note = uni1E2A;
unicode = 7722;
},
{
glyphname = Hbar;
lastChange = "2023-11-07 07:31:52 +0000";
layers = (
{
hints = (
{
horizontal = 1;
place = (0,21);
target = up;
type = BottomGhost;
},
{
horizontal = 1;
place = (309,72);
type = Stem;
},
{
horizontal = 1;
place = (492,47);
type = Stem;
},
{
place = (105,83);
type = Stem;
},
{
place = (493,84);
type = Stem;
},
{
horizontal = 1;
place = (492,164);
type = Stem;
}
);
layerId = "8B4EFE1E-6C47-485C-9646-016EA71CC488";
shapes = (
{
closed = 1;
nodes = (
(493,381,l),
(188,381,l),
(188,492,l),
(493,492,l)
);
},
{
closed = 1;
nodes = (
(652,539,l),
(577,539,l),
(577,656,l),
(493,656,l),
(493,539,l),
(188,539,l),
(188,656,l),
(105,656,l),
(105,539,l),
(30,534,l),
(30,492,l),
(105,492,l),
(105,0,l),
(188,0,l),
(188,309,l),
(493,309,l),
(493,0,l),
(577,0,l),
(577,492,l),
(652,492,l)
);
}
);
width = 682;
}
);
note = Hbar;
unicode = 294;
},
{
glyphname = Igrave;
lastChange = "2023-11-07 07:31:52 +0000";
layers = (
{
hints = (
{
horizontal = 1;
place = (0,21);
target = up;
type = BottomGhost;
},
{
horizontal = 1;
place = (656,-20);
target = down;
type = TopGhost;
},
{
horizontal = 1;
place = (706,112);
type = Stem;
},
{
place = (87,84);
type = Stem;
}
);
layerId = "8B4EFE1E-6C47-485C-9646-016EA71CC488";
shapes = (
{
closed = 1;
nodes = (
(87,0,l),
(171,0,l),
(171,656,l),
(87,656,l)
);
},
{
closed = 1;
nodes = (
(111,706,l),
(180,706,l),
(92,818,l),
(-2,818,l)
);
}
);
width = 258;
}
);
note = Igrave;
unicode = 204;
},
{
glyphname = Iacute;
lastChange = "2023-11-07 07:31:52 +0000";
layers = (
{
hints = (
{
horizontal = 1;
place = (0,21);
target = up;
type = BottomGhost;
},
{
horizontal = 1;
place = (656,-20);
target = down;
type = TopGhost;
},
{
horizontal = 1;
place = (706,112);
type = Stem;
},
{
place = (87,84);
type = Stem;
}
);
layerId = "8B4EFE1E-6C47-485C-9646-016EA71CC488";
shapes = (
{
closed = 1;
nodes = (
(87,0,l),
(171,0,l),
(171,656,l),
(87,656,l)
);
},
{
closed = 1;
nodes = (
(260,818,l),
(166,818,l),
(78,706,l),
(147,706,l)
);
}
);
width = 258;
}
);
note = Iacute;
unicode = 205;
},
{
glyphname = Icircumflex;
lastChange = "2023-11-07 07:31:52 +0000";
layers = (
{
hints = (
{
horizontal = 1;
place = (0,21);
target = up;
type = BottomGhost;
},
{
horizontal = 1;
place = (656,-20);
target = down;
type = TopGhost;
},
{
horizontal = 1;
place = (706,112);
type = Stem;
},
{
place = (87,84);
type = Stem;
}
);
layerId = "8B4EFE1E-6C47-485C-9646-016EA71CC488";
shapes = (
{
closed = 1;
nodes = (
(87,0,l),
(171,0,l),
(171,656,l),
(87,656,l)
);
},
{
closed = 1;
nodes = (
(60,706,l),
(127,774,l),
(131,774,l),
(198,706,l),
(265,706,l),
(169,818,l),
(89,818,l),
(-7,706,l)
);
}
);
width = 258;
}
);
note = Icircumflex;
unicode = 206;
},
{
glyphname = Itilde;
lastChange = "2023-11-07 07:31:52 +0000";
layers = (
{
hints = (
{
horizontal = 1;
place = (0,21);
target = up;
type = BottomGhost;
},
{
horizontal = 1;
place = (656,-20);
target = down;
type = TopGhost;
},
{
horizontal = 1;
place = (711,56);
type = Stem;
},
{
place = (-16,46);
type = Stem;
},
{
place = (87,84);
type = Stem;
},
{
place = (228,46);
type = Stem;
},
{
horizontal = 1;
place = (763,56);
type = Stem;
}
);
layerId = "8B4EFE1E-6C47-485C-9646-016EA71CC488";
shapes = (
{
closed = 1;
nodes = (
(87,0,l),
(171,0,l),
(171,656,l),
(87,656,l)
);
},
{
closed = 1;
nodes = (
(237,711,o),
(268,758,o),
(274,819,c),
(228,819,l),
(223,786,o),
(207,767,o),
(187,767,cs),
(151,767,o),
(121,819,o),
(69,819,cs),
(21,819,o),
(-10,773,o),
(-16,711,c),
(30,711,l),
(35,745,o),
(51,763,o),
(70,763,cs),
(107,763,o),
(136,711,o),
(189,711,cs)
);
}
);
width = 258;
}
);
note = Itilde;
unicode = 296;
},
{
glyphname = Idieresis;
lastChange = "2023-11-07 07:31:52 +0000";
layers = (
{
hints = (
{
horizontal = 1;
place = (0,21);
target = up;
type = BottomGhost;
},
{
horizontal = 1;
place = (656,-20);
target = down;
type = TopGhost;
},
{
horizontal = 1;
place = (715,98);
type = Stem;
},
{
place = (87,84);
type = Stem;
},
{
place = (-6,98);
type = Stem;
},
{
place = (166,98);
type = Stem;
}
);
layerId = "8B4EFE1E-6C47-485C-9646-016EA71CC488";
shapes = (
{
closed = 1;
nodes = (
(87,0,l),
(171,0,l),
(171,656,l),
(87,656,l)
);
},
{
closed = 1;
nodes = (
(71,715,o),
(92,736,o),
(92,764,cs),
(92,793,o),
(71,813,o),
(43,813,cs),
(14,813,o),
(-6,793,o),
(-6,764,cs),
(-6,736,o),
(14,715,o),
(43,715,cs)
);
},
{
closed = 1;
nodes = (
(244,715,o),
(264,736,o),
(264,764,cs),
(264,793,o),
(244,813,o),
(215,813,cs),
(187,813,o),
(166,793,o),
(166,764,cs),
(166,736,o),
(187,715,o),
(215,715,cs)
);
}
);
width = 258;
}
);
note = Idieresis;
unicode = 207;
},
{
glyphname = Imacron;
lastChange = "2023-11-07 07:31:52 +0000";
layers = (
{
hints = (
{
horizontal = 1;
place = (0,21);
target = up;
type = BottomGhost;
},
{
horizontal = 1;
place = (656,-20);
target = down;
type = TopGhost;
},
{
horizontal = 1;
place = (729,57);
type = Stem;
},
{
place = (87,84);
type = Stem;
}
);
layerId = "8B4EFE1E-6C47-485C-9646-016EA71CC488";
shapes = (
{
closed = 1;
nodes = (
(87,0,l),
(171,0,l),
(171,656,l),
(87,656,l)
);
},
{
closed = 1;
nodes = (
(5,729,l),
(253,729,l),
(253,786,l),
(5,786,l)
);
}
);
width = 258;
}
);
note = Imacron;
unicode = 298;
},
{
glyphname = Idotaccent;
lastChange = "2023-11-07 07:31:52 +0000";
layers = (
{
hints = (
{
horizontal = 1;
place = (0,21);
target = up;
type = BottomGhost;
},
{
horizontal = 1;
place = (656,-20);
target = down;
type = TopGhost;
},
{
horizontal = 1;
place = (714,107);
type = Stem;
},
{
place = (87,84);
type = Stem;
}
);
layerId = "8B4EFE1E-6C47-485C-9646-016EA71CC488";
shapes = (
{
closed = 1;
nodes = (
(87,0,l),
(171,0,l),
(171,656,l),
(87,656,l)
);
},
{
closed = 1;
nodes = (
(161,714,o),
(186,736,o),
(186,768,cs),
(186,799,o),
(161,821,o),
(129,821,cs),
(97,821,o),
(72,799,o),
(72,768,cs),
(72,736,o),
(97,714,o),
(129,714,cs)
);
}
);
width = 258;
}
);
note = Idotaccent;
unicode = 304;
},
{
glyphname = uni01CF;
lastChange = "2023-11-07 07:31:52 +0000";
layers = (
{
hints = (
{
horizontal = 1;
place = (0,21);
target = up;
type = BottomGhost;
},
{
horizontal = 1;
place = (656,-20);
target = down;
type = TopGhost;
},
{
horizontal = 1;
place = (706,112);
type = Stem;
},
{
place = (87,84);
type = Stem;
}
);
layerId = "8B4EFE1E-6C47-485C-9646-016EA71CC488";
shapes = (
{
closed = 1;
nodes = (
(87,0,l),
(171,0,l),
(171,656,l),
(87,656,l)
);
},
{
closed = 1;
nodes = (
(198,818,l),
(131,750,l),
(127,750,l),
(60,818,l),
(-7,818,l),
(89,706,l),
(169,706,l),
(265,818,l)
);
}
);
width = 258;
}
);
note = uni01CF;
unicode = 463;
},
{
glyphname = uni1EC8;
lastChange = "2023-11-07 07:31:52 +0000";
layers = (
{
hints = (
{
horizontal = 1;
place = (0,21);
target = up;
type = BottomGhost;
},
{
horizontal = 1;
place = (656,-20);
target = down;
type = TopGhost;
},
{
horizontal = 1;
place = (824,48);
type = Stem;
},
{
place = (87,84);
type = Stem;
},
{
place = (148,64);
type = Stem;
}
);
layerId = "8B4EFE1E-6C47-485C-9646-016EA71CC488";
shapes = (
{
closed = 1;
nodes = (
(87,0,l),
(171,0,l),
(171,656,l),
(87,656,l)
);
},
{
closed = 1;
nodes = (
(101,698,l),
(159,708,o),
(212,733,o),
(212,791,cs),
(212,842,o),
(161,869,o),
(74,872,c),
(65,824,l),
(120,822,o),
(148,808,o),
(148,782,cs),
(148,757,o),
(124,745,o),
(92,736,c)
);
}
);
width = 258;
}
);
note = uni1EC8;
unicode = 7880;
},
{
glyphname = uni1ECA;
lastChange = "2023-11-07 07:31:52 +0000";
layers = (
{
hints = (
{
horizontal = 1;
place = (-206,107);
type = Stem;
},
{
horizontal = 1;
place = (0,21);
target = up;
type = BottomGhost;
},
{
horizontal = 1;
place = (656,-20);
target = down;
type = TopGhost;
},
{
place = (87,84);
type = Stem;
},
{
place = (75,109);
type = Stem;
}
);
layerId = "8B4EFE1E-6C47-485C-9646-016EA71CC488";
shapes = (
{
closed = 1;
nodes = (
(87,0,l),
(171,0,l),
(171,656,l),
(87,656,l)
);
},
{
closed = 1;
nodes = (
(161,-206,o),
(184,-184,o),
(184,-152,cs),
(184,-121,o),
(161,-99,o),
(130,-99,cs),
(98,-99,o),
(75,-121,o),
(75,-152,cs),
(75,-184,o),
(98,-206,o),
(130,-206,cs)
);
}
);
width = 258;
}
);
note = uni1ECA;
unicode = 7882;
},
{
glyphname = Iogonek;
lastChange = "2023-11-07 07:31:52 +0000";
layers = (
{
hints = (
{
horizontal = 1;
place = (-212,59);
type = Stem;
},
{
horizontal = 1;
place = (0,21);
target = up;
type = BottomGhost;
},
{
horizontal = 1;
place = (656,-20);
target = down;
type = TopGhost;
},
{
place = (87,84);
type = Stem;
},
{
place = (41,64);
type = Stem;
}
);
layerId = "8B4EFE1E-6C47-485C-9646-016EA71CC488";
shapes = (
{
closed = 1;
nodes = (
(87,0,l),
(107,0,l),
(75,-29,o),
(41,-68,o),
(41,-125,cs),
(41,-182,o),
(83,-212,o),
(136,-212,cs),
(163,-212,o),
(197,-199,o),
(216,-184,c),
(193,-139,l),
(181,-148,o),
(169,-153,o),
(153,-153,cs),
(129,-153,o),
(105,-138,o),
(105,-107,cs),
(105,-66,o),
(129,-32,o),
(171,0,c),
(171,656,l),
(87,656,l)
);
}
);
width = 258;
}
);
note = Iogonek;
unicode = 302;
},
{
glyphname = Jcircumflex;
kernLeft = J;
kernRight = J;
lastChange = "2023-11-07 07:31:52 +0000";
layers = (
{
hints = (
{
horizontal = 1;
place = (-12,73);
type = Stem;
},
{
horizontal = 1;
place = (656,-20);
target = down;
type = TopGhost;
},
{
horizontal = 1;
place = (706,112);
type = Stem;
},
{
place = (307,83);
type = Stem;
}
);
layerId = "8B4EFE1E-6C47-485C-9646-016EA71CC488";
shapes = (
{
closed = 1;
nodes = (
(29,93,l),
(67,24,o),
(126,-12,o),
(209,-12,cs),
(338,-12,o),
(390,80,o),
(390,193,cs),
(390,656,l),
(307,656,l),
(307,201,ls),
(307,101,o),
(272,61,o),
(202,61,cs),
(155,61,o),
(118,83,o),
(88,135,c)
);
},
{
closed = 1;
nodes = (
(276,706,l),
(343,774,l),
(347,774,l),
(414,706,l),
(481,706,l),
(385,818,l),
(305,818,l),
(209,706,l)
);
}
);
width = 474;
}
);
note = Jcircumflex;
unicode = 308;
},
{
glyphname = uni0136;
kernRight = K;
lastChange = "2023-11-07 07:31:52 +0000";
layers = (
{
hints = (
{
horizontal = 1;
place = (-216,40);
type = Stem;
},
{
horizontal = 1;
place = (0,21);
target = up;
type = BottomGhost;
},
{
horizontal = 1;
place = (656,-20);
target = down;
type = TopGhost;
},
{
place = (87,84);
type = Stem;
},
{
place = (327,64);
type = Stem;
}
);
layerId = "8B4EFE1E-6C47-485C-9646-016EA71CC488";
shapes = (
{
closed = 1;
nodes = (
(87,0,l),
(171,0,l),
(171,208,l),
(283,341,l),
(479,0,l),
(572,0,l),
(335,406,l),
(541,656,l),
(446,656,l),
(173,327,l),
(171,327,l),
(171,656,l),
(87,656,l)
);
},
{
closed = 1;
nodes = (
(276,-86,l),
(305,-93,o),
(327,-104,o),
(327,-130,cs),
(327,-156,o),
(291,-169,o),
(239,-176,c),
(247,-216,l),
(322,-210,o),
(391,-183,o),
(391,-125,cs),
(391,-80,o),
(362,-58,o),
(294,-48,c)
);
}
);
width = 574;
}
);
note = uni0136;
unicode = 310;
},
{
glyphname = Lacute;
kernRight = L;
lastChange = "2023-11-07 07:31:52 +0000";
layers = (
{
hints = (
{
horizontal = 1;
place = (0,71);
type = Stem;
},
{
horizontal = 1;
place = (656,-20);
target = down;
type = TopGhost;
},
{
horizontal = 1;
place = (706,112);
type = Stem;
},
{
place = (87,84);
type = Stem;
}
);
layerId = "8B4EFE1E-6C47-485C-9646-016EA71CC488";
shapes = (
{
closed = 1;
nodes = (
(87,0,l),
(457,0,l),
(457,71,l),
(171,71,l),
(171,656,l),
(87,656,l)
);
},
{
closed = 1;
nodes = (
(263,818,l),
(169,818,l),
(81,706,l),
(150,706,l)
);
}
);
width = 481;
}
);
note = Lacute;
unicode = 313;
},
{
glyphname = Lcaron;
kernRight = Lcaron;
lastChange = "2023-11-07 07:31:52 +0000";
layers = (
{
hints = (
{
horizontal = 1;
place = (0,71);
type = Stem;
},
{
horizontal = 1;
place = (656,-20);
target = down;
type = TopGhost;
},
{
place = (87,84);
type = Stem;
},
{
place = (329,49);
type = Stem;
},
{
horizontal = 1;
place = (514,212);
type = Stem;
}
);
layerId = "8B4EFE1E-6C47-485C-9646-016EA71CC488";
shapes = (
{
closed = 1;
nodes = (
(87,0,l),
(457,0,l),
(457,71,l),
(171,71,l),
(171,656,l),
(87,656,l)
);
},
{
closed = 1;
nodes = (
(371,514,l),
(385,669,l),
(386,726,l),
(327,726,l),
(331,514,l)
);
}
);
width = 481;
}
);
note = Lcaron;
unicode = 317;
},
{
glyphname = uni013B;
kernRight = L;
lastChange = "2023-11-07 07:31:52 +0000";
layers = (
{
hints = (
{
horizontal = 1;
place = (-216,40);
type = Stem;
},
{
horizontal = 1;
place = (0,71);
type = Stem;
},
{
horizontal = 1;
place = (656,-20);
target = down;
type = TopGhost;
},
{
place = (87,84);
type = Stem;
},
{
place = (289,64);
type = Stem;
}
);
layerId = "8B4EFE1E-6C47-485C-9646-016EA71CC488";
shapes = (
{
closed = 1;
nodes = (
(87,0,l),
(457,0,l),
(457,71,l),
(171,71,l),
(171,656,l),
(87,656,l)
);
},
{
closed = 1;
nodes = (
(238,-86,l),
(267,-93,o),
(289,-104,o),
(289,-130,cs),
(289,-156,o),
(253,-169,o),
(201,-176,c),
(209,-216,l),
(284,-210,o),
(353,-183,o),
(353,-125,cs),
(353,-80,o),
(324,-58,o),
(256,-48,c)
);
}
);
width = 481;
}
);
note = uni013B;
unicode = 315;
},
{
glyphname = Ldot;
kernRight = L;
lastChange = "2023-11-07 07:31:52 +0000";
layers = (
{
hints = (
{
horizontal = 1;
place = (0,71);
type = Stem;
},
{
horizontal = 1;
place = (263,125);
type = Stem;
},
{
horizontal = 1;
place = (656,-20);
target = down;
type = TopGhost;
},
{
place = (87,84);
type = Stem;
},
{
place = (315,119);
type = Stem;
}
);
layerId = "8B4EFE1E-6C47-485C-9646-016EA71CC488";
shapes = (
{
closed = 1;
nodes = (
(87,0,l),
(457,0,l),
(457,71,l),
(171,71,l),
(171,656,l),
(87,656,l)
);
},
{
closed = 1;
nodes = (
(315,288,o),
(342,263,o),
(374,263,cs),
(407,263,o),
(434,288,o),
(434,325,cs),
(434,363,o),
(407,388,o),
(374,388,cs),
(342,388,o),
(315,363,o),
(315,325,cs)
);
}
);
width = 481;
}
);
note = Ldot;
unicode = 319;
},
{
glyphname = uni1E36;
kernRight = L;
lastChange = "2023-11-07 07:31:52 +0000";
layers = (
{
hints = (
{
horizontal = 1;
place = (-206,107);
type = Stem;
},
{
horizontal = 1;
place = (0,71);
type = Stem;
},
{
horizontal = 1;
place = (656,-20);
target = down;
type = TopGhost;
},
{
place = (87,84);
type = Stem;
},
{
place = (231,108);
type = Stem;
}
);
layerId = "8B4EFE1E-6C47-485C-9646-016EA71CC488";
shapes = (
{
closed = 1;
nodes = (
(87,0,l),
(457,0,l),
(457,71,l),
(171,71,l),
(171,656,l),
(87,656,l)
);
},
{
closed = 1;
nodes = (
(317,-206,o),
(339,-184,o),
(339,-152,cs),
(339,-121,o),
(317,-99,o),
(285,-99,cs),
(254,-99,o),
(231,-121,o),
(231,-152,cs),
(231,-184,o),
(254,-206,o),
(285,-206,cs)
);
}
);
width = 481;
}
);
note = uni1E36;
unicode = 7734;
},
{
glyphname = uni1E38;
kernRight = L;
lastChange = "2023-11-07 07:31:52 +0000";
layers = (
{
hints = (
{
horizontal = 1;
place = (-206,107);
type = Stem;
},
{
horizontal = 1;
place = (0,71);
type = Stem;
},
{
horizontal = 1;
place = (656,-20);
target = down;
type = TopGhost;
},
{
horizontal = 1;
place = (729,57);
type = Stem;
},
{
place = (87,84);
type = Stem;
},
{
place = (231,108);
type = Stem;
}
);
layerId = "8B4EFE1E-6C47-485C-9646-016EA71CC488";
shapes = (
{
closed = 1;
nodes = (
(87,0,l),
(457,0,l),
(457,71,l),
(171,71,l),
(171,656,l),
(87,656,l)
);
},
{
closed = 1;
nodes = (
(8,729,l),
(256,729,l),
(256,786,l),
(8,786,l)
);
},
{
closed = 1;
nodes = (
(317,-206,o),
(339,-184,o),
(339,-152,cs),
(339,-121,o),
(317,-99,o),
(285,-99,cs),
(254,-99,o),
(231,-121,o),
(231,-152,cs),
(231,-184,o),
(254,-206,o),
(285,-206,cs)
);
}
);
width = 481;
}
);
note = uni1E38;
unicode = 7736;
},
{
glyphname = uni1E3A;
kernRight = L;
lastChange = "2023-11-07 07:31:52 +0000";
layers = (
{
hints = (
{
horizontal = 1;
place = (-171,58);
type = Stem;
},
{
horizontal = 1;
place = (0,71);
type = Stem;
},
{
horizontal = 1;
place = (656,-20);
target = down;
type = TopGhost;
},
{
place = (87,84);
type = Stem;
},
{
place = (162,246);
type = Stem;
}
);
layerId = "8B4EFE1E-6C47-485C-9646-016EA71CC488";
shapes = (
{
closed = 1;
nodes = (
(87,0,l),
(457,0,l),
(457,71,l),
(171,71,l),
(171,656,l),
(87,656,l)
);
},
{
closed = 1;
nodes = (
(408,-113,l),
(162,-113,l),
(162,-171,l),
(408,-171,l)
);
}
);
width = 481;
}
);
note = uni1E3A;
unicode = 7738;
},
{
glyphname = Lslash;
kernRight = L;
lastChange = "2023-11-07 07:31:52 +0000";
layers = (
{
hints = (
{
horizontal = 1;
place = (0,71);
type = Stem;
},
{
horizontal = 1;
place = (656,-20);
target = down;
type = TopGhost;
},
{
place = (90,84);
type = Stem;
}
);
layerId = "8B4EFE1E-6C47-485C-9646-016EA71CC488";
shapes = (
{
closed = 1;
nodes = (
(174,71,l),
(174,277,l),
(362,377,l),
(362,445,l),
(174,344,l),
(174,656,l),
(90,656,l),
(90,303,l),
(10,261,l),
(10,194,l),
(90,236,l),
(90,0,l),
(460,0,l),
(460,71,l)
);
}
);
width = 484;
}
);
note = Lslash;
unicode = 321;
},
{
glyphname = uni1E42;
lastChange = "2023-11-07 07:31:52 +0000";
layers = (
{
hints = (
{
horizontal = 1;
place = (-206,107);
type = Stem;
},
{
horizontal = 1;
place = (0,21);
target = up;
type = BottomGhost;
},
{
horizontal = 1;
place = (66,104);
type = Stem;
},
{
horizontal = 1;
place = (555,101);
type = Stem;
},
{
place = (87,77);
type = Stem;
},
{
place = (308,108);
type = Stem;
},
{
place = (555,79);
type = Stem;
}
);
layerId = "8B4EFE1E-6C47-485C-9646-016EA71CC488";
shapes = (
{
closed = 1;
nodes = (
(87,0,l),
(164,0,l),
(164,361,ls),
(164,419,o),
(158,497,o),
(154,555,c),
(158,555,l),
(210,409,l),
(336,66,l),
(384,66,l),
(510,409,l),
(562,555,l),
(566,555,l),
(562,497,o),
(555,419,o),
(555,361,cs),
(555,0,l),
(634,0,l),
(634,656,l),
(536,656,l),
(410,304,l),
(364,170,l),
(360,170,l),
(313,304,l),
(186,656,l),
(87,656,l)
);
},
{
closed = 1;
nodes = (
(393,-206,o),
(416,-184,o),
(416,-152,cs),
(416,-121,o),
(393,-99,o),
(362,-99,cs),
(331,-99,o),
(308,-121,o),
(308,-152,cs),
(308,-184,o),
(331,-206,o),
(362,-206,cs)
);
}
);
width = 722;
}
);
note = uni1E42;
unicode = 7746;
},
{
glyphname = Nacute;
lastChange = "2023-11-07 07:31:52 +0000";
layers = (
{
hints = (
{
horizontal = 1;
place = (0,21);
target = up;
type = BottomGhost;
},
{
horizontal = 1;
place = (656,-20);
target = down;
type = TopGhost;
},
{
horizontal = 1;
place = (706,112);
type = Stem;
},
{
place = (87,79);
type = Stem;
},
{
place = (475,79);
type = Stem;
},
{
horizontal = 1;
place = (548,108);
type = Stem;
},
{
horizontal = 1;
place = (0,108);
type = Stem;
}
);
layerId = "8B4EFE1E-6C47-485C-9646-016EA71CC488";
shapes = (
{
closed = 1;
nodes = (
(87,0,l),
(166,0,l),
(166,343,ls),
(166,412,o),
(160,482,o),
(156,548,c),
(160,548,l),
(231,413,l),
(468,0,l),
(554,0,l),
(554,656,l),
(475,656,l),
(475,317,ls),
(475,248,o),
(482,174,o),
(486,108,c),
(482,108,l),
(411,244,l),
(173,656,l),
(87,656,l)
);
},
{
closed = 1;
nodes = (
(455,818,l),
(361,818,l),
(273,706,l),
(342,706,l)
);
}
);
width = 642;
}
);
note = Nacute;
unicode = 323;
},
{
glyphname = Ncaron;
lastChange = "2023-11-07 07:31:52 +0000";
layers = (
{
hints = (
{
horizontal = 1;
place = (0,21);
target = up;
type = BottomGhost;
},
{
horizontal = 1;
place = (656,-20);
target = down;
type = TopGhost;
},
{
horizontal = 1;
place = (706,112);
type = Stem;
},
{
place = (87,79);
type = Stem;
},
{
place = (475,79);
type = Stem;
},
{
horizontal = 1;
place = (548,108);
type = Stem;
},
{
horizontal = 1;
place = (0,108);
type = Stem;
}
);
layerId = "8B4EFE1E-6C47-485C-9646-016EA71CC488";
shapes = (
{
closed = 1;
nodes = (
(87,0,l),
(166,0,l),
(166,343,ls),
(166,412,o),
(160,482,o),
(156,548,c),
(160,548,l),
(231,413,l),
(468,0,l),
(554,0,l),
(554,656,l),
(475,656,l),
(475,317,ls),
(475,248,o),
(482,174,o),
(486,108,c),
(482,108,l),
(411,244,l),
(173,656,l),
(87,656,l)
);
},
{
closed = 1;
nodes = (
(393,818,l),
(326,750,l),
(322,750,l),
(255,818,l),
(188,818,l),
(284,706,l),
(364,706,l),
(460,818,l)
);
}
);
width = 642;
}
);
note = Ncaron;
unicode = 327;
},
{
glyphname = Ntilde;
lastChange = "2023-11-07 07:31:52 +0000";
layers = (
{
hints = (
{
horizontal = 1;
place = (0,21);
target = up;
type = BottomGhost;
},
{
horizontal = 1;
place = (656,-20);
target = down;
type = TopGhost;
},
{
horizontal = 1;
place = (763,56);
type = Stem;
},
{
place = (87,79);
type = Stem;
},
{
place = (475,79);
type = Stem;
},
{
horizontal = 1;
place = (548,108);
type = Stem;
},
{
horizontal = 1;
place = (0,108);
type = Stem;
},
{
horizontal = 1;
place = (711,56);
type = Stem;
},
{
place = (423,46);
type = Stem;
},
{
place = (179,46);
type = Stem;
}
);
layerId = "8B4EFE1E-6C47-485C-9646-016EA71CC488";
shapes = (
{
closed = 1;
nodes = (
(87,0,l),
(166,0,l),
(166,343,ls),
(166,412,o),
(160,482,o),
(156,548,c),
(160,548,l),
(231,413,l),
(468,0,l),
(554,0,l),
(554,656,l),
(475,656,l),
(475,317,ls),
(475,248,o),
(482,174,o),
(486,108,c),
(482,108,l),
(411,244,l),
(173,656,l),
(87,656,l)
);
},
{
closed = 1;
nodes = (
(432,711,o),
(463,758,o),
(469,819,c),
(423,819,l),
(418,786,o),
(402,767,o),
(383,767,cs),
(346,767,o),
(317,819,o),
(264,819,cs),
(216,819,o),
(185,773,o),
(179,711,c),
(225,711,l),
(230,745,o),
(246,763,o),
(265,763,cs),
(302,763,o),
(331,711,o),
(384,711,cs)
);
}
);
width = 642;
}
);
note = Ntilde;
unicode = 209;
},
{
glyphname = uni0145;
lastChange = "2023-11-07 07:31:52 +0000";
layers = (
{
hints = (
{
horizontal = 1;
place = (-216,40);
type = Stem;
},
{
horizontal = 1;
place = (0,21);
target = up;
type = BottomGhost;
},
{
horizontal = 1;
place = (656,-20);
target = down;
type = TopGhost;
},
{
place = (87,79);
type = Stem;
},
{
place = (475,79);
type = Stem;
},
{
horizontal = 1;
place = (548,108);
type = Stem;
},
{
horizontal = 1;
place = (0,108);
type = Stem;
},
{
place = (329,64);
type = Stem;
}
);
layerId = "8B4EFE1E-6C47-485C-9646-016EA71CC488";
shapes = (
{
closed = 1;
nodes = (
(87,0,l),
(166,0,l),
(166,343,ls),
(166,412,o),
(160,482,o),
(156,548,c),
(160,548,l),
(231,413,l),
(468,0,l),
(554,0,l),
(554,656,l),
(475,656,l),
(475,317,ls),
(475,248,o),
(482,174,o),
(486,108,c),
(482,108,l),
(411,244,l),
(173,656,l),
(87,656,l)
);
},
{
closed = 1;
nodes = (
(278,-86,l),
(307,-93,o),
(329,-104,o),
(329,-130,cs),
(329,-156,o),
(293,-169,o),
(241,-176,c),
(249,-216,l),
(324,-210,o),
(393,-183,o),
(393,-125,cs),
(393,-80,o),
(364,-58,o),
(296,-48,c)
);
}
);
width = 642;
}
);
note = uni0145;
unicode = 325;
},
{
glyphname = uni1E44;
lastChange = "2023-11-07 07:31:52 +0000";
layers = (
{
hints = (
{
horizontal = 1;
place = (0,21);
target = up;
type = BottomGhost;
},
{
horizontal = 1;
place = (656,-20);
target = down;
type = TopGhost;
},
{
horizontal = 1;
place = (714,107);
type = Stem;
},
{
place = (87,79);
type = Stem;
},
{
place = (475,79);
type = Stem;
},
{
horizontal = 1;
place = (548,108);
type = Stem;
},
{
horizontal = 1;
place = (0,108);
type = Stem;
},
{
place = (267,114);
type = Stem;
}
);
layerId = "8B4EFE1E-6C47-485C-9646-016EA71CC488";
shapes = (
{
closed = 1;
nodes = (
(87,0,l),
(166,0,l),
(166,343,ls),
(166,412,o),
(160,482,o),
(156,548,c),
(160,548,l),
(231,413,l),
(468,0,l),
(554,0,l),
(554,656,l),
(475,656,l),
(475,317,ls),
(475,248,o),
(482,174,o),
(486,108,c),
(482,108,l),
(411,244,l),
(173,656,l),
(87,656,l)
);
},
{
closed = 1;
nodes = (
(356,714,o),
(381,736,o),
(381,768,cs),
(381,799,o),
(356,821,o),
(324,821,cs),
(292,821,o),
(267,799,o),
(267,768,cs),
(267,736,o),
(292,714,o),
(324,714,cs)
);
}
);
width = 642;
}
);
note = uni1E44;
unicode = 7748;
},
{
glyphname = uni1E46;
lastChange = "2023-11-07 07:31:52 +0000";
layers = (
{
hints = (
{
horizontal = 1;
place = (-206,107);
type = Stem;
},
{
horizontal = 1;
place = (0,21);
target = up;
type = BottomGhost;
},
{
horizontal = 1;
place = (656,-20);
target = down;
type = TopGhost;
},
{
place = (87,79);
type = Stem;
},
{
place = (475,79);
type = Stem;
},
{
horizontal = 1;
place = (548,108);
type = Stem;
},
{
horizontal = 1;
place = (0,108);
type = Stem;
},
{
place = (271,108);
type = Stem;
}
);
layerId = "8B4EFE1E-6C47-485C-9646-016EA71CC488";
shapes = (
{
closed = 1;
nodes = (
(87,0,l),
(166,0,l),
(166,343,ls),
(166,412,o),
(160,482,o),
(156,548,c),
(160,548,l),
(231,413,l),
(468,0,l),
(554,0,l),
(554,656,l),
(475,656,l),
(475,317,ls),
(475,248,o),
(482,174,o),
(486,108,c),
(482,108,l),
(411,244,l),
(173,656,l),
(87,656,l)
);
},
{
closed = 1;
nodes = (
(357,-206,o),
(379,-184,o),
(379,-152,cs),
(379,-121,o),
(357,-99,o),
(325,-99,cs),
(294,-99,o),
(271,-121,o),
(271,-152,cs),
(271,-184,o),
(294,-206,o),
(325,-206,cs)
);
}
);
width = 642;
}
);
note = uni1E46;
unicode = 7750;
},
{
glyphname = uni1E48;
lastChange = "2023-11-07 07:31:52 +0000";
layers = (
{
hints = (
{
horizontal = 1;
place = (-171,58);
type = Stem;
},
{
horizontal = 1;
place = (0,21);
target = up;
type = BottomGhost;
},
{
horizontal = 1;
place = (656,-20);
target = down;
type = TopGhost;
},
{
place = (87,79);
type = Stem;
},
{
place = (475,79);
type = Stem;
},
{
horizontal = 1;
place = (548,108);
type = Stem;
},
{
horizontal = 1;
place = (0,108);
type = Stem;
},
{
place = (202,246);
type = Stem;
}
);
layerId = "8B4EFE1E-6C47-485C-9646-016EA71CC488";
shapes = (
{
closed = 1;
nodes = (
(87,0,l),
(166,0,l),
(166,343,ls),
(166,412,o),
(160,482,o),
(156,548,c),
(160,548,l),
(231,413,l),
(468,0,l),
(554,0,l),
(554,656,l),
(475,656,l),
(475,317,ls),
(475,248,o),
(482,174,o),
(486,108,c),
(482,108,l),
(411,244,l),
(173,656,l),
(87,656,l)
);
},
{
closed = 1;
nodes = (
(448,-113,l),
(202,-113,l),
(202,-171,l),
(448,-171,l)
);
}
);
width = 642;
}
);
note = uni1E48;
unicode = 7752;
},
{
glyphname = Ograve;
kernLeft = C;
kernRight = D;
lastChange = "2023-11-07 07:31:52 +0000";
layers = (
{
hints = (
{
horizontal = 1;
place = (-12,73);
type = Stem;
},
{
horizontal = 1;
place = (595,73);
type = Stem;
},
{
horizontal = 1;
place = (706,112);
type = Stem;
},
{
place = (49,86);
type = Stem;
},
{
place = (524,86);
type = Stem;
}
);
layerId = "8B4EFE1E-6C47-485C-9646-016EA71CC488";
shapes = (
{
closed = 1;
nodes = (
(494,-12,o),
(610,120,o),
(610,331,cs),
(610,540,o),
(494,668,o),
(330,668,cs),
(165,668,o),
(49,541,o),
(49,331,cs),
(49,120,o),
(165,-12,o),
(330,-12,cs)
);
},
{
closed = 1;
nodes = (
(212,61,o),
(135,167,o),
(135,331,cs),
(135,494,o),
(212,595,o),
(330,595,cs),
(447,595,o),
(524,494,o),
(524,331,cs),
(524,167,o),
(447,61,o),
(330,61,cs)
);
},
{
closed = 1;
nodes = (
(312,706,l),
(381,706,l),
(293,818,l),
(199,818,l)
);
}
);
width = 659;
}
);
note = Ograve;
unicode = 210;
},
{
glyphname = Oacute;
kernLeft = C;
kernRight = D;
lastChange = "2023-11-07 07:31:52 +0000";
layers = (
{
hints = (
{
horizontal = 1;
place = (-12,73);
type = Stem;
},
{
horizontal = 1;
place = (595,73);
type = Stem;
},
{
horizontal = 1;
place = (706,112);
type = Stem;
},
{
place = (49,86);
type = Stem;
},
{
place = (524,86);
type = Stem;
}
);
layerId = "8B4EFE1E-6C47-485C-9646-016EA71CC488";
shapes = (
{
closed = 1;
nodes = (
(494,-12,o),
(610,120,o),
(610,331,cs),
(610,540,o),
(494,668,o),
(330,668,cs),
(165,668,o),
(49,541,o),
(49,331,cs),
(49,120,o),
(165,-12,o),
(330,-12,cs)
);
},
{
closed = 1;
nodes = (
(212,61,o),
(135,167,o),
(135,331,cs),
(135,494,o),
(212,595,o),
(330,595,cs),
(447,595,o),
(524,494,o),
(524,331,cs),
(524,167,o),
(447,61,o),
(330,61,cs)
);
},
{
closed = 1;
nodes = (
(461,818,l),
(367,818,l),
(278,706,l),
(347,706,l)
);
}
);
width = 659;
}
);
note = Oacute;
unicode = 211;
},
{
glyphname = Ocircumflex;
kernLeft = C;
kernRight = D;
lastChange = "2023-11-07 07:31:52 +0000";
layers = (
{
hints = (
{
horizontal = 1;
place = (-12,73);
type = Stem;
},
{
horizontal = 1;
place = (595,73);
type = Stem;
},
{
horizontal = 1;
place = (706,112);
type = Stem;
},
{
place = (49,86);
type = Stem;
},
{
place = (524,86);
type = Stem;
}
);
layerId = "8B4EFE1E-6C47-485C-9646-016EA71CC488";
shapes = (
{
closed = 1;
nodes = (
(494,-12,o),
(610,120,o),
(610,331,cs),
(610,540,o),
(494,668,o),
(330,668,cs),
(165,668,o),
(49,541,o),
(49,331,cs),
(49,120,o),
(165,-12,o),
(330,-12,cs)
);
},
{
closed = 1;
nodes = (
(212,61,o),
(135,167,o),
(135,331,cs),
(135,494,o),
(212,595,o),
(330,595,cs),
(447,595,o),
(524,494,o),
(524,331,cs),
(524,167,o),
(447,61,o),
(330,61,cs)
);
},
{
closed = 1;
nodes = (
(261,706,l),
(328,774,l),
(332,774,l),
(399,706,l),
(465,706,l),
(369,818,l),
(290,818,l),
(194,706,l)
);
}
);
width = 659;
}
);
note = Ocircumflex;
unicode = 212;
},
{
glyphname = Otilde;
kernLeft = C;
kernRight = D;
lastChange = "2023-11-07 07:31:52 +0000";
layers = (
{
hints = (
{
horizontal = 1;
place = (-12,73);
type = Stem;
},
{
horizontal = 1;
place = (595,73);
type = Stem;
},
{
horizontal = 1;
place = (763,56);
type = Stem;
},
{
place = (49,86);
type = Stem;
},
{
place = (524,86);
type = Stem;
},
{
horizontal = 1;
place = (711,56);
type = Stem;
},
{
place = (185,46);
type = Stem;
},
{
place = (429,45);
type = Stem;
}
);
layerId = "8B4EFE1E-6C47-485C-9646-016EA71CC488";
shapes = (
{
closed = 1;
nodes = (
(494,-12,o),
(610,120,o),
(610,331,cs),
(610,540,o),
(494,668,o),
(330,668,cs),
(165,668,o),
(49,541,o),
(49,331,cs),
(49,120,o),
(165,-12,o),
(330,-12,cs)
);
},
{
closed = 1;
nodes = (
(212,61,o),
(135,167,o),
(135,331,cs),
(135,494,o),
(212,595,o),
(330,595,cs),
(447,595,o),
(524,494,o),
(524,331,cs),
(524,167,o),
(447,61,o),
(330,61,cs)
);
},
{
closed = 1;
nodes = (
(437,711,o),
(468,758,o),
(474,819,c),
(429,819,l),
(423,786,o),
(408,767,o),
(388,767,cs),
(351,767,o),
(322,819,o),
(269,819,cs),
(222,819,o),
(191,773,o),
(185,711,c),
(231,711,l),
(236,745,o),
(251,763,o),
(271,763,cs),
(308,763,o),
(337,711,o),
(390,711,cs)
);
}
);
width = 659;
}
);
note = Otilde;
unicode = 213;
},
{
glyphname = Odieresis;
kernLeft = C;
kernRight = D;
lastChange = "2023-11-07 07:31:52 +0000";
layers = (
{
hints = (
{
horizontal = 1;
place = (-12,73);
type = Stem;
},
{
horizontal = 1;
place = (595,73);
type = Stem;
},
{
horizontal = 1;
place = (715,98);
type = Stem;
},
{
place = (49,86);
type = Stem;
},
{
place = (194,98);
type = Stem;
},
{
place = (367,98);
type = Stem;
},
{
place = (524,86);
type = Stem;
}
);
layerId = "8B4EFE1E-6C47-485C-9646-016EA71CC488";
shapes = (
{
closed = 1;
nodes = (
(494,-12,o),
(610,120,o),
(610,331,cs),
(610,540,o),
(494,668,o),
(330,668,cs),
(165,668,o),
(49,541,o),
(49,331,cs),
(49,120,o),
(165,-12,o),
(330,-12,cs)
);
},
{
closed = 1;
nodes = (
(212,61,o),
(135,167,o),
(135,331,cs),
(135,494,o),
(212,595,o),
(330,595,cs),
(447,595,o),
(524,494,o),
(524,331,cs),
(524,167,o),
(447,61,o),
(330,61,cs)
);
},
{
closed = 1;
nodes = (
(272,715,o),
(292,736,o),
(292,764,cs),
(292,793,o),
(272,813,o),
(243,813,cs),
(215,813,o),
(194,793,o),
(194,764,cs),
(194,736,o),
(215,715,o),
(243,715,cs)
);
},
{
closed = 1;
nodes = (
(444,715,o),
(465,736,o),
(465,764,cs),
(465,793,o),
(444,813,o),
(416,813,cs),
(388,813,o),
(367,793,o),
(367,764,cs),
(367,736,o),
(388,715,o),
(416,715,cs)
);
}
);
width = 659;
}
);
note = Odieresis;
unicode = 214;
},
{
glyphname = Omacron;
kernLeft = C;
kernRight = D;
lastChange = "2023-11-07 07:31:52 +0000";
layers = (
{
hints = (
{
horizontal = 1;
place = (-12,73);
type = Stem;
},
{
horizontal = 1;
place = (595,73);
type = Stem;
},
{
horizontal = 1;
place = (729,57);
type = Stem;
},
{
place = (49,86);
type = Stem;
},
{
place = (206,248);
type = Stem;
},
{
place = (524,86);
type = Stem;
}
);
layerId = "8B4EFE1E-6C47-485C-9646-016EA71CC488";
shapes = (
{
closed = 1;
nodes = (
(494,-12,o),
(610,120,o),
(610,331,cs),
(610,540,o),
(494,668,o),
(330,668,cs),
(165,668,o),
(49,541,o),
(49,331,cs),
(49,120,o),
(165,-12,o),
(330,-12,cs)
);
},
{
closed = 1;
nodes = (
(212,61,o),
(135,167,o),
(135,331,cs),
(135,494,o),
(212,595,o),
(330,595,cs),
(447,595,o),
(524,494,o),
(524,331,cs),
(524,167,o),
(447,61,o),
(330,61,cs)
);
},
{
closed = 1;
nodes = (
(206,729,l),
(454,729,l),
(454,786,l),
(206,786,l)
);
}
);
width = 659;
}
);
note = Omacron;
unicode = 332;
},
{
glyphname = Ohungarumlaut;
kernLeft = C;
kernRight = D;
lastChange = "2023-11-07 07:31:52 +0000";
layers = (
{
hints = (
{
horizontal = 1;
place = (-12,73);
type = Stem;
},
{
horizontal = 1;
place = (595,73);
type = Stem;
},
{
horizontal = 1;
place = (706,112);
type = Stem;
},
{
place = (49,86);
type = Stem;
},
{
place = (524,86);
type = Stem;
}
);
layerId = "8B4EFE1E-6C47-485C-9646-016EA71CC488";
shapes = (
{
closed = 1;
nodes = (
(494,-12,o),
(610,120,o),
(610,331,cs),
(610,540,o),
(494,668,o),
(330,668,cs),
(165,668,o),
(49,541,o),
(49,331,cs),
(49,120,o),
(165,-12,o),
(330,-12,cs)
);
},
{
closed = 1;
nodes = (
(212,61,o),
(135,167,o),
(135,331,cs),
(135,494,o),
(212,595,o),
(330,595,cs),
(447,595,o),
(524,494,o),
(524,331,cs),
(524,167,o),
(447,61,o),
(330,61,cs)
);
},
{
closed = 1;
nodes = (
(280,706,l),
(364,818,l),
(287,818,l),
(221,706,l)
);
},
{
closed = 1;
nodes = (
(378,706,l),
(438,706,l),
(521,818,l),
(444,818,l)
);
}
);
width = 659;
}
);
note = Ohungarumlaut;
unicode = 336;
},
{
glyphname = uni01D1;
kernLeft = C;
kernRight = D;
lastChange = "2023-11-07 07:31:52 +0000";
layers = (
{
hints = (
{
horizontal = 1;
place = (-12,73);
type = Stem;
},
{
horizontal = 1;
place = (595,73);
type = Stem;
},
{
horizontal = 1;
place = (706,112);
type = Stem;
},
{
place = (49,86);
type = Stem;
},
{
place = (524,86);
type = Stem;
}
);
layerId = "8B4EFE1E-6C47-485C-9646-016EA71CC488";
shapes = (
{
closed = 1;
nodes = (
(494,-12,o),
(610,120,o),
(610,331,cs),
(610,540,o),
(494,668,o),
(330,668,cs),
(165,668,o),
(49,541,o),
(49,331,cs),
(49,120,o),
(165,-12,o),
(330,-12,cs)
);
},
{
closed = 1;
nodes = (
(212,61,o),
(135,167,o),
(135,331,cs),
(135,494,o),
(212,595,o),
(330,595,cs),
(447,595,o),
(524,494,o),
(524,331,cs),
(524,167,o),
(447,61,o),
(330,61,cs)
);
},
{
closed = 1;
nodes = (
(399,818,l),
(332,750,l),
(328,750,l),
(261,818,l),
(194,818,l),
(290,706,l),
(369,706,l),
(465,818,l)
);
}
);
width = 659;
}
);
note = uni01D1;
unicode = 465;
},
{
glyphname = uni1ECC;
kernLeft = C;
kernRight = D;
lastChange = "2023-11-07 07:31:52 +0000";
layers = (
{
hints = (
{
horizontal = 1;
place = (-206,107);
type = Stem;
},
{
horizontal = 1;
place = (-12,73);
type = Stem;
},
{
horizontal = 1;
place = (595,73);
type = Stem;
},
{
place = (49,86);
type = Stem;
},
{
place = (275,109);
type = Stem;
},
{
place = (524,86);
type = Stem;
}
);
layerId = "8B4EFE1E-6C47-485C-9646-016EA71CC488";
shapes = (
{
closed = 1;
nodes = (
(494,-12,o),
(610,120,o),
(610,331,cs),
(610,540,o),
(494,668,o),
(330,668,cs),
(165,668,o),
(49,541,o),
(49,331,cs),
(49,120,o),
(165,-12,o),
(330,-12,cs)
);
},
{
closed = 1;
nodes = (
(212,61,o),
(135,167,o),
(135,331,cs),
(135,494,o),
(212,595,o),
(330,595,cs),
(447,595,o),
(524,494,o),
(524,331,cs),
(524,167,o),
(447,61,o),
(330,61,cs)
);
},
{
closed = 1;
nodes = (
(361,-206,o),
(384,-184,o),
(384,-152,cs),
(384,-121,o),
(361,-99,o),
(330,-99,cs),
(298,-99,o),
(275,-121,o),
(275,-152,cs),
(275,-184,o),
(298,-206,o),
(330,-206,cs)
);
}
);
width = 659;
}
);
note = uni1ECC;
unicode = 7884;
},
{
glyphname = uni1ECE;
kernLeft = C;
kernRight = D;
lastChange = "2023-11-07 07:31:52 +0000";
layers = (
{
hints = (
{
horizontal = 1;
place = (-12,73);
type = Stem;
},
{
horizontal = 1;
place = (595,73);
type = Stem;
},
{
horizontal = 1;
place = (824,48);
type = Stem;
},
{
place = (49,86);
type = Stem;
},
{
place = (349,63);
type = Stem;
},
{
place = (524,86);
type = Stem;
}
);
layerId = "8B4EFE1E-6C47-485C-9646-016EA71CC488";
shapes = (
{
closed = 1;
nodes = (
(494,-12,o),
(610,120,o),
(610,331,cs),
(610,540,o),
(494,668,o),
(330,668,cs),
(165,668,o),
(49,541,o),
(49,331,cs),
(49,120,o),
(165,-12,o),
(330,-12,cs)
);
},
{
closed = 1;
nodes = (
(212,61,o),
(135,167,o),
(135,331,cs),
(135,494,o),
(212,595,o),
(330,595,cs),
(447,595,o),
(524,494,o),
(524,331,cs),
(524,167,o),
(447,61,o),
(330,61,cs)
);
},
{
closed = 1;
nodes = (
(302,698,l),
(360,708,o),
(412,733,o),
(412,791,cs),
(412,842,o),
(362,869,o),
(274,872,c),
(266,824,l),
(321,822,o),
(349,808,o),
(349,782,cs),
(349,757,o),
(324,745,o),
(292,736,c)
);
}
);
width = 659;
}
);
note = uni1ECE;
unicode = 7886;
},
{
glyphname = uni1ED0;
kernLeft = C;
kernRight = D;
lastChange = "2023-11-07 07:31:52 +0000";
layers = (
{
hints = (
{
horizontal = 1;
place = (-12,73);
type = Stem;
},
{
horizontal = 1;
place = (595,73);
type = Stem;
},
{
horizontal = 1;
place = (706,106);
type = Stem;
},
{
place = (49,86);
type = Stem;
},
{
place = (524,86);
type = Stem;
},
{
horizontal = 1;
place = (770,111);
type = Stem;
}
);
layerId = "8B4EFE1E-6C47-485C-9646-016EA71CC488";
shapes = (
{
closed = 1;
nodes = (
(494,-12,o),
(610,120,o),
(610,331,cs),
(610,540,o),
(494,668,o),
(330,668,cs),
(165,668,o),
(49,541,o),
(49,331,cs),
(49,120,o),
(165,-12,o),
(330,-12,cs)
);
},
{
closed = 1;
nodes = (
(212,61,o),
(135,167,o),
(135,331,cs),
(135,494,o),
(212,595,o),
(330,595,cs),
(447,595,o),
(524,494,o),
(524,331,cs),
(524,167,o),
(447,61,o),
(330,61,cs)
);
},
{
closed = 1;
nodes = (
(421,770,l),
(473,770,l),
(563,881,l),
(491,881,l)
);
},
{
closed = 1;
nodes = (
(201,706,l),
(264,706,l),
(328,768,l),
(332,768,l),
(395,706,l),
(458,706,l),
(366,812,l),
(293,812,l)
);
}
);
width = 659;
}
);
note = uni1ED0;
unicode = 7888;
},
{
glyphname = uni1ED2;
kernLeft = C;
kernRight = D;
lastChange = "2023-11-07 07:31:52 +0000";
layers = (
{
hints = (
{
horizontal = 1;
place = (-12,73);
type = Stem;
},
{
horizontal = 1;
place = (595,73);
type = Stem;
},
{
horizontal = 1;
place = (706,106);
type = Stem;
},
{
place = (49,86);
type = Stem;
},
{
place = (524,86);
type = Stem;
},
{
horizontal = 1;
place = (770,111);
type = Stem;
}
);
layerId = "8B4EFE1E-6C47-485C-9646-016EA71CC488";
shapes = (
{
closed = 1;
nodes = (
(494,-12,o),
(610,120,o),
(610,331,cs),
(610,540,o),
(494,668,o),
(330,668,cs),
(165,668,o),
(49,541,o),
(49,331,cs),
(49,120,o),
(165,-12,o),
(330,-12,cs)
);
},
{
closed = 1;
nodes = (
(212,61,o),
(135,167,o),
(135,331,cs),
(135,494,o),
(212,595,o),
(330,595,cs),
(447,595,o),
(524,494,o),
(524,331,cs),
(524,167,o),
(447,61,o),
(330,61,cs)
);
},
{
closed = 1;
nodes = (
(443,881,l),
(371,881,l),
(462,770,l),
(513,770,l)
);
},
{
closed = 1;
nodes = (
(201,706,l),
(264,706,l),
(328,768,l),
(332,768,l),
(395,706,l),
(458,706,l),
(366,812,l),
(293,812,l)
);
}
);
width = 659;
}
);
note = uni1ED2;
unicode = 7890;
},
{
glyphname = uni1ED4;
kernLeft = C;
kernRight = D;
lastChange = "2023-11-07 07:31:52 +0000";
layers = (
{
hints = (
{
horizontal = 1;
place = (-12,73);
type = Stem;
},
{
horizontal = 1;
place = (595,73);
type = Stem;
},
{
horizontal = 1;
place = (706,106);
type = Stem;
},
{
horizontal = 1;
place = (864,42);
type = Stem;
},
{
place = (49,86);
type = Stem;
},
{
place = (524,86);
type = Stem;
},
{
place = (478,59);
type = Stem;
}
);
layerId = "8B4EFE1E-6C47-485C-9646-016EA71CC488";
shapes = (
{
closed = 1;
nodes = (
(494,-12,o),
(610,120,o),
(610,331,cs),
(610,540,o),
(494,668,o),
(330,668,cs),
(165,668,o),
(49,541,o),
(49,331,cs),
(49,120,o),
(165,-12,o),
(330,-12,cs)
);
},
{
closed = 1;
nodes = (
(212,61,o),
(135,167,o),
(135,331,cs),
(135,494,o),
(212,595,o),
(330,595,cs),
(447,595,o),
(524,494,o),
(524,331,cs),
(524,167,o),
(447,61,o),
(330,61,cs)
);
},
{
closed = 1;
nodes = (
(445,754,l),
(492,762,o),
(537,782,o),
(537,833,cs),
(537,879,o),
(494,903,o),
(416,906,c),
(408,864,l),
(457,861,o),
(478,851,o),
(478,825,cs),
(478,804,o),
(459,795,o),
(434,789,c)
);
},
{
closed = 1;
nodes = (
(201,706,l),
(264,706,l),
(328,768,l),
(332,768,l),
(395,706,l),
(458,706,l),
(366,812,l),
(293,812,l)
);
}
);
width = 659;
}
);
note = uni1ED4;
unicode = 7892;
},
{
glyphname = uni1ED6;
kernLeft = C;
kernRight = D;
lastChange = "2023-11-07 07:31:52 +0000";
layers = (
{
hints = (
{
horizontal = 1;
place = (-12,73);
type = Stem;
},
{
horizontal = 1;
place = (595,73);
type = Stem;
},
{
horizontal = 1;
place = (706,106);
type = Stem;
},
{
horizontal = 1;
place = (846,48);
type = Stem;
},
{
place = (49,86);
type = Stem;
},
{
place = (198,42);
type = Stem;
},
{
place = (524,86);
type = Stem;
},
{
horizontal = 1;
place = (891,48);
type = Stem;
},
{
place = (419,43);
type = Stem;
}
);
layerId = "8B4EFE1E-6C47-485C-9646-016EA71CC488";
shapes = (
{
closed = 1;
nodes = (
(494,-12,o),
(610,120,o),
(610,331,cs),
(610,540,o),
(494,668,o),
(330,668,cs),
(165,668,o),
(49,541,o),
(49,331,cs),
(49,120,o),
(165,-12,o),
(330,-12,cs)
);
},
{
closed = 1;
nodes = (
(212,61,o),
(135,167,o),
(135,331,cs),
(135,494,o),
(212,595,o),
(330,595,cs),
(447,595,o),
(524,494,o),
(524,331,cs),
(524,167,o),
(447,61,o),
(330,61,cs)
);
},
{
closed = 1;
nodes = (
(201,706,l),
(264,706,l),
(328,768,l),
(332,768,l),
(395,706,l),
(458,706,l),
(366,812,l),
(293,812,l)
);
},
{
closed = 1;
nodes = (
(240,846,l),
(245,875,o),
(260,891,o),
(279,891,cs),
(312,891,o),
(335,846,o),
(383,846,cs),
(428,846,o),
(457,887,o),
(462,939,c),
(419,939,l),
(414,911,o),
(400,894,o),
(380,894,cs),
(347,894,o),
(325,939,o),
(277,939,cs),
(231,939,o),
(203,899,o),
(198,846,c)
);
}
);
width = 659;
}
);
note = uni1ED6;
unicode = 7894;
},
{
glyphname = uni1ED8;
kernLeft = C;
kernRight = D;
lastChange = "2023-11-07 07:31:52 +0000";
layers = (
{
hints = (
{
horizontal = 1;
place = (-206,107);
type = Stem;
},
{
horizontal = 1;
place = (-12,73);
type = Stem;
},
{
horizontal = 1;
place = (595,73);
type = Stem;
},
{
horizontal = 1;
place = (706,112);
type = Stem;
},
{
place = (49,86);
type = Stem;
},
{
place = (275,109);
type = Stem;
},
{
place = (524,86);
type = Stem;
}
);
layerId = "8B4EFE1E-6C47-485C-9646-016EA71CC488";
shapes = (
{
closed = 1;
nodes = (
(494,-12,o),
(610,120,o),
(610,331,cs),
(610,540,o),
(494,668,o),
(330,668,cs),
(165,668,o),
(49,541,o),
(49,331,cs),
(49,120,o),
(165,-12,o),
(330,-12,cs)
);
},
{
closed = 1;
nodes = (
(212,61,o),
(135,167,o),
(135,331,cs),
(135,494,o),
(212,595,o),
(330,595,cs),
(447,595,o),
(524,494,o),
(524,331,cs),
(524,167,o),
(447,61,o),
(330,61,cs)
);
},
{
closed = 1;
nodes = (
(261,706,l),
(328,774,l),
(332,774,l),
(399,706,l),
(465,706,l),
(369,818,l),
(290,818,l),
(194,706,l)
);
},
{
closed = 1;
nodes = (
(361,-206,o),
(384,-184,o),
(384,-152,cs),
(384,-121,o),
(361,-99,o),
(330,-99,cs),
(298,-99,o),
(275,-121,o),
(275,-152,cs),
(275,-184,o),
(298,-206,o),
(330,-206,cs)
);
}
);
width = 659;
}
);
note = uni1ED8;
unicode = 7896;
},
{
glyphname = Oslash;
kernLeft = C;
kernRight = D;
lastChange = "2023-11-07 07:31:52 +0000";
layers = (
{
hints = (
{
horizontal = 1;
place = (-12,73);
type = Stem;
},
{
horizontal = 1;
place = (595,73);
type = Stem;
},
{
place = (49,86);
type = Stem;
},
{
place = (524,86);
type = Stem;
},
{
horizontal = 1;
place = (-12,21);
target = up;
type = BottomGhost;
}
);
layerId = "8B4EFE1E-6C47-485C-9646-016EA71CC488";
shapes = (
{
closed = 1;
nodes = (
(492,489,l),
(513,447,o),
(524,393,o),
(524,331,cs),
(524,167,o),
(447,61,o),
(330,61,cs),
(280,61,o),
(237,80,o),
(205,114,c)
);
},
{
closed = 1;
nodes = (
(170,165,l),
(147,209,o),
(135,266,o),
(135,331,cs),
(135,494,o),
(212,595,o),
(330,595,cs),
(381,595,o),
(425,576,o),
(458,540,c)
);
},
{
closed = 1;
nodes = (
(617,651,l),
(570,686,l),
(507,603,l),
(460,645,o),
(399,668,o),
(330,668,cs),
(165,668,o),
(49,541,o),
(49,331,cs),
(49,234,o),
(73,154,o),
(116,96,c),
(47,6,l),
(94,-30,l),
(156,51,l),
(203,10,o),
(262,-12,o),
(330,-12,cs),
(494,-12,o),
(610,120,o),
(610,331,cs),
(610,425,o),
(587,502,o),
(546,559,c)
);
}
);
width = 659;
}
);
note = Oslash;
unicode = 216;
},
{
glyphname = OE;
kernLeft = C;
lastChange = "2023-11-07 07:31:52 +0000";
layers = (
{
hints = (
{
horizontal = 1;
place = (0,71);
type = Stem;
},
{
horizontal = 1;
place = (309,71);
type = Stem;
},
{
horizontal = 1;
place = (586,70);
type = Stem;
},
{
place = (49,86);
type = Stem;
},
{
place = (424,84);
type = Stem;
},
{
horizontal = 1;
place = (0,68);
type = Stem;
}
);
layerId = "8B4EFE1E-6C47-485C-9646-016EA71CC488";
shapes = (
{
closed = 1;
nodes = (
(49,122,o),
(167,0,o),
(366,0,cs),
(796,0,l),
(796,71,l),
(508,71,l),
(508,309,l),
(740,309,l),
(740,380,l),
(508,380,l),
(508,586,l),
(786,586,l),
(786,656,l),
(370,656,ls),
(167,656,o),
(49,539,o),
(49,331,cs)
);
},
{
closed = 1;
nodes = (
(135,497,o),
(218,588,o),
(376,588,cs),
(424,588,l),
(424,68,l),
(376,68,ls),
(218,68,o),
(135,164,o),
(135,331,cs)
);
}
);
width = 842;
}
);
note = OE;
unicode = 338;
},
{
glyphname = Ohorn;
kernLeft = C;
kernRight = Ohorn;
lastChange = "2023-11-07 07:31:52 +0000";
layers = (
{
hints = (
{
horizontal = 1;
place = (-12,73);
type = Stem;
},
{
horizontal = 1;
place = (595,73);
type = Stem;
},
{
place = (49,86);
type = Stem;
},
{
place = (524,86);
type = Stem;
},
{
place = (541,68);
type = Stem;
}
);
layerId = "8B4EFE1E-6C47-485C-9646-016EA71CC488";
shapes = (
{
closed = 1;
nodes = (
(212,61,o),
(135,167,o),
(135,331,cs),
(135,494,o),
(212,595,o),
(330,595,cs),
(447,595,o),
(524,494,o),
(524,331,cs),
(524,167,o),
(447,61,o),
(330,61,cs)
);
},
{
closed = 1;
nodes = (
(527,744,l),
(535,731,o),
(541,718,o),
(541,703,cs),
(541,666,o),
(515,646,o),
(460,636,c),
(422,657,o),
(378,668,o),
(330,668,cs),
(165,668,o),
(49,541,o),
(49,331,cs),
(49,120,o),
(165,-12,o),
(330,-12,cs),
(494,-12,o),
(610,120,o),
(610,331,cs),
(610,452,o),
(571,545,o),
(507,603,c),
(569,618,o),
(609,651,o),
(609,708,cs),
(609,733,o),
(599,755,o),
(586,773,c)
);
}
);
width = 659;
}
);
note = Ohorn;
unicode = 416;
},
{
glyphname = uni1EDA;
kernLeft = C;
kernRight = Ohorn;
lastChange = "2023-11-07 07:31:52 +0000";
layers = (
{
hints = (
{
horizontal = 1;
place = (-12,73);
type = Stem;
},
{
horizontal = 1;
place = (595,73);
type = Stem;
},
{
horizontal = 1;
place = (706,112);
type = Stem;
},
{
place = (49,86);
type = Stem;
},
{
place = (524,86);
type = Stem;
},
{
place = (541,68);
type = Stem;
}
);
layerId = "8B4EFE1E-6C47-485C-9646-016EA71CC488";
shapes = (
{
closed = 1;
nodes = (
(461,818,l),
(367,818,l),
(278,706,l),
(347,706,l)
);
},
{
closed = 1;
nodes = (
(212,61,o),
(135,167,o),
(135,331,cs),
(135,494,o),
(212,595,o),
(330,595,cs),
(447,595,o),
(524,494,o),
(524,331,cs),
(524,167,o),
(447,61,o),
(330,61,cs)
);
},
{
closed = 1;
nodes = (
(527,744,l),
(535,731,o),
(541,718,o),
(541,703,cs),
(541,666,o),
(515,646,o),
(460,636,c),
(422,657,o),
(378,668,o),
(330,668,cs),
(165,668,o),
(49,541,o),
(49,331,cs),
(49,120,o),
(165,-12,o),
(330,-12,cs),
(494,-12,o),
(610,120,o),
(610,331,cs),
(610,452,o),
(571,545,o),
(507,603,c),
(569,618,o),
(609,651,o),
(609,708,cs),
(609,733,o),
(599,755,o),
(586,773,c)
);
}
);
width = 659;
}
);
note = uni1EDA;
unicode = 7898;
},
{
glyphname = uni1EDC;
kernLeft = C;
kernRight = Ohorn;
lastChange = "2023-11-07 07:31:52 +0000";
layers = (
{
hints = (
{
horizontal = 1;
place = (-12,73);
type = Stem;
},
{
horizontal = 1;
place = (595,73);
type = Stem;
},
{
horizontal = 1;
place = (706,112);
type = Stem;
},
{
place = (49,86);
type = Stem;
},
{
place = (524,86);
type = Stem;
},
{
place = (541,68);
type = Stem;
}
);
layerId = "8B4EFE1E-6C47-485C-9646-016EA71CC488";
shapes = (
{
closed = 1;
nodes = (
(381,706,l),
(293,818,l),
(199,818,l),
(312,706,l)
);
},
{
closed = 1;
nodes = (
(212,61,o),
(135,167,o),
(135,331,cs),
(135,494,o),
(212,595,o),
(330,595,cs),
(447,595,o),
(524,494,o),
(524,331,cs),
(524,167,o),
(447,61,o),
(330,61,cs)
);
},
{
closed = 1;
nodes = (
(527,744,l),
(535,731,o),
(541,718,o),
(541,703,cs),
(541,666,o),
(515,646,o),
(460,636,c),
(422,657,o),
(378,668,o),
(330,668,cs),
(165,668,o),
(49,541,o),
(49,331,cs),
(49,120,o),
(165,-12,o),
(330,-12,cs),
(494,-12,o),
(610,120,o),
(610,331,cs),
(610,452,o),
(571,545,o),
(507,603,c),
(569,618,o),
(609,651,o),
(609,708,cs),
(609,733,o),
(599,755,o),
(586,773,c)
);
}
);
width = 659;
}
);
note = uni1EDC;
unicode = 7900;
},
{
glyphname = uni1EDE;
kernLeft = C;
kernRight = Ohorn;
lastChange = "2023-11-07 07:31:52 +0000";
layers = (
{
hints = (
{
horizontal = 1;
place = (-12,73);
type = Stem;
},
{
horizontal = 1;
place = (595,73);
type = Stem;
},
{
horizontal = 1;
place = (824,48);
type = Stem;
},
{
place = (49,86);
type = Stem;
},
{
place = (349,63);
type = Stem;
},
{
place = (524,86);
type = Stem;
},
{
place = (541,68);
type = Stem;
}
);
layerId = "8B4EFE1E-6C47-485C-9646-016EA71CC488";
shapes = (
{
closed = 1;
nodes = (
(302,698,l),
(360,708,o),
(412,733,o),
(412,791,cs),
(412,842,o),
(362,869,o),
(274,872,c),
(266,824,l),
(321,822,o),
(349,808,o),
(349,782,cs),
(349,757,o),
(324,745,o),
(292,736,c)
);
},
{
closed = 1;
nodes = (
(212,61,o),
(135,167,o),
(135,331,cs),
(135,494,o),
(212,595,o),
(330,595,cs),
(447,595,o),
(524,494,o),
(524,331,cs),
(524,167,o),
(447,61,o),
(330,61,cs)
);
},
{
closed = 1;
nodes = (
(527,744,l),
(535,731,o),
(541,718,o),
(541,703,cs),
(541,666,o),
(515,646,o),
(460,636,c),
(422,657,o),
(378,668,o),
(330,668,cs),
(165,668,o),
(49,541,o),
(49,331,cs),
(49,120,o),
(165,-12,o),
(330,-12,cs),
(494,-12,o),
(610,120,o),
(610,331,cs),
(610,452,o),
(571,545,o),
(507,603,c),
(569,618,o),
(609,651,o),
(609,708,cs),
(609,733,o),
(599,755,o),
(586,773,c)
);
}
);
width = 659;
}
);
note = uni1EDE;
unicode = 7902;
},
{
glyphname = uni1EE0;
kernLeft = C;
kernRight = Ohorn;
lastChange = "2023-11-07 07:31:52 +0000";
layers = (
{
hints = (
{
horizontal = 1;
place = (-12,73);
type = Stem;
},
{
horizontal = 1;
place = (595,73);
type = Stem;
},
{
horizontal = 1;
place = (711,56);
type = Stem;
},
{
place = (49,86);
type = Stem;
},
{
place = (185,46);
type = Stem;
},
{
place = (429,45);
type = Stem;
},
{
place = (524,86);
type = Stem;
},
{
horizontal = 1;
place = (763,56);
type = Stem;
},
{
place = (541,68);
type = Stem;
}
);
layerId = "8B4EFE1E-6C47-485C-9646-016EA71CC488";
shapes = (
{
closed = 1;
nodes = (
(429,819,l),
(423,786,o),
(408,767,o),
(388,767,cs),
(351,767,o),
(322,819,o),
(269,819,cs),
(222,819,o),
(191,773,o),
(185,711,c),
(231,711,l),
(236,745,o),
(251,763,o),
(271,763,cs),
(308,763,o),
(337,711,o),
(390,711,cs),
(437,711,o),
(468,758,o),
(474,819,c)
);
},
{
closed = 1;
nodes = (
(212,61,o),
(135,167,o),
(135,331,cs),
(135,494,o),
(212,595,o),
(330,595,cs),
(447,595,o),
(524,494,o),
(524,331,cs),
(524,167,o),
(447,61,o),
(330,61,cs)
);
},
{
closed = 1;
nodes = (
(527,744,l),
(535,731,o),
(541,718,o),
(541,703,cs),
(541,666,o),
(515,646,o),
(460,636,c),
(422,657,o),
(378,668,o),
(330,668,cs),
(165,668,o),
(49,541,o),
(49,331,cs),
(49,120,o),
(165,-12,o),
(330,-12,cs),
(494,-12,o),
(610,120,o),
(610,331,cs),
(610,452,o),
(571,545,o),
(507,603,c),
(569,618,o),
(609,651,o),
(609,708,cs),
(609,733,o),
(599,755,o),
(586,773,c)
);
}
);
width = 659;
}
);
note = uni1EE0;
unicode = 7904;
},
{
glyphname = uni1EE2;
kernLeft = C;
kernRight = Ohorn;
lastChange = "2023-11-07 07:31:52 +0000";
layers = (
{
hints = (
{
horizontal = 1;
place = (-206,107);
type = Stem;
},
{
horizontal = 1;
place = (-12,73);
type = Stem;
},
{
horizontal = 1;
place = (595,73);
type = Stem;
},
{
place = (49,86);
type = Stem;
},
{
place = (275,109);
type = Stem;
},
{
place = (524,86);
type = Stem;
},
{
place = (541,68);
type = Stem;
}
);
layerId = "8B4EFE1E-6C47-485C-9646-016EA71CC488";
shapes = (
{
closed = 1;
nodes = (
(298,-99,o),
(275,-121,o),
(275,-152,cs),
(275,-184,o),
(298,-206,o),
(330,-206,cs),
(361,-206,o),
(384,-184,o),
(384,-152,cs),
(384,-121,o),
(361,-99,o),
(330,-99,cs)
);
},
{
closed = 1;
nodes = (
(212,61,o),
(135,167,o),
(135,331,cs),
(135,494,o),
(212,595,o),
(330,595,cs),
(447,595,o),
(524,494,o),
(524,331,cs),
(524,167,o),
(447,61,o),
(330,61,cs)
);
},
{
closed = 1;
nodes = (
(527,744,l),
(535,731,o),
(541,718,o),
(541,703,cs),
(541,666,o),
(515,646,o),
(460,636,c),
(422,657,o),
(378,668,o),
(330,668,cs),
(165,668,o),
(49,541,o),
(49,331,cs),
(49,120,o),
(165,-12,o),
(330,-12,cs),
(494,-12,o),
(610,120,o),
(610,331,cs),
(610,452,o),
(571,545,o),
(507,603,c),
(569,618,o),
(609,651,o),
(609,708,cs),
(609,733,o),
(599,755,o),
(586,773,c)
);
}
);
width = 659;
}
);
note = uni1EE2;
unicode = 7906;
},
{
glyphname = uni01EA;
kernLeft = C;
kernRight = D;
lastChange = "2023-11-07 07:31:52 +0000";
layers = (
{
hints = (
{
horizontal = 1;
place = (-212,59);
type = Stem;
},
{
horizontal = 1;
place = (-11,72);
type = Stem;
},
{
horizontal = 1;
place = (595,73);
type = Stem;
},
{
place = (49,86);
type = Stem;
},
{
place = (263,65);
type = Stem;
},
{
place = (524,86);
type = Stem;
}
);
layerId = "8B4EFE1E-6C47-485C-9646-016EA71CC488";
shapes = (
{
closed = 1;
nodes = (
(263,-182,o),
(306,-212,o),
(359,-212,cs),
(385,-212,o),
(419,-199,o),
(438,-184,c),
(416,-139,l),
(404,-148,o),
(391,-153,o),
(375,-153,cs),
(352,-153,o),
(328,-138,o),
(328,-107,cs),
(328,-73,o),
(352,-31,o),
(406,-7,cs),
(536,53,o),
(610,152,o),
(610,331,cs),
(610,540,o),
(494,668,o),
(330,668,cs),
(165,668,o),
(49,541,o),
(49,331,cs),
(49,126,o),
(156,-7,o),
(325,-11,c),
(289,-40,o),
(263,-81,o),
(263,-125,cs)
);
},
{
closed = 1;
nodes = (
(212,61,o),
(135,167,o),
(135,331,cs),
(135,494,o),
(212,595,o),
(330,595,cs),
(447,595,o),
(524,494,o),
(524,331,cs),
(524,167,o),
(447,61,o),
(330,61,cs)
);
}
);
width = 659;
}
);
note = uni01EA;
unicode = 490;
},
{
glyphname = Racute;
kernRight = R;
lastChange = "2023-11-07 07:31:52 +0000";
layers = (
{
hints = (
{
horizontal = 1;
place = (0,21);
target = up;
type = BottomGhost;
},
{
horizontal = 1;
place = (277,68);
type = Stem;
},
{
horizontal = 1;
place = (589,67);
type = Stem;
},
{
horizontal = 1;
place = (706,112);
type = Stem;
},
{
place = (87,84);
type = Stem;
},
{
place = (439,83);
type = Stem;
}
);
layerId = "8B4EFE1E-6C47-485C-9646-016EA71CC488";
shapes = (
{
closed = 1;
nodes = (
(422,818,l),
(328,818,l),
(240,706,l),
(309,706,l)
);
},
{
closed = 1;
nodes = (
(171,589,l),
(281,589,ls),
(383,589,o),
(439,558,o),
(439,472,cs),
(439,387,o),
(383,345,o),
(281,345,cs),
(171,345,l)
);
},
{
closed = 1;
nodes = (
(542,0,l),
(375,286,l),
(464,309,o),
(522,370,o),
(522,472,cs),
(522,608,o),
(426,656,o),
(293,656,cs),
(87,656,l),
(87,0,l),
(171,0,l),
(171,277,l),
(289,277,l),
(447,0,l)
);
}
);
width = 576;
}
);
note = Racute;
unicode = 340;
},
{
glyphname = Rcaron;
kernRight = R;
lastChange = "2023-11-07 07:31:52 +0000";
layers = (
{
hints = (
{
horizontal = 1;
place = (0,21);
target = up;
type = BottomGhost;
},
{
horizontal = 1;
place = (277,68);
type = Stem;
},
{
horizontal = 1;
place = (589,67);
type = Stem;
},
{
horizontal = 1;
place = (706,112);
type = Stem;
},
{
place = (87,84);
type = Stem;
},
{
place = (439,83);
type = Stem;
}
);
layerId = "8B4EFE1E-6C47-485C-9646-016EA71CC488";
shapes = (
{
closed = 1;
nodes = (
(331,706,l),
(427,818,l),
(360,818,l),
(293,750,l),
(289,750,l),
(222,818,l),
(156,818,l),
(252,706,l)
);
},
{
closed = 1;
nodes = (
(171,589,l),
(281,589,ls),
(383,589,o),
(439,558,o),
(439,472,cs),
(439,387,o),
(383,345,o),
(281,345,cs),
(171,345,l)
);
},
{
closed = 1;
nodes = (
(542,0,l),
(375,286,l),
(464,309,o),
(522,370,o),
(522,472,cs),
(522,608,o),
(426,656,o),
(293,656,cs),
(87,656,l),
(87,0,l),
(171,0,l),
(171,277,l),
(289,277,l),
(447,0,l)
);
}
);
width = 576;
}
);
note = Rcaron;
unicode = 344;
},
{
glyphname = uni0156;
kernRight = R;
lastChange = "2023-11-07 07:31:52 +0000";
layers = (
{
hints = (
{
horizontal = 1;
place = (-216,40);
type = Stem;
},
{
horizontal = 1;
place = (0,21);
target = up;
type = BottomGhost;
},
{
horizontal = 1;
place = (277,68);
type = Stem;
},
{
horizontal = 1;
place = (589,67);
type = Stem;
},
{
place = (87,84);
type = Stem;
},
{
place = (311,64);
type = Stem;
},
{
place = (439,83);
type = Stem;
}
);
layerId = "8B4EFE1E-6C47-485C-9646-016EA71CC488";
shapes = (
{
closed = 1;
nodes = (
(260,-86,l),
(288,-93,o),
(311,-104,o),
(311,-130,cs),
(311,-156,o),
(274,-169,o),
(222,-176,c),
(230,-216,l),
(306,-210,o),
(375,-183,o),
(375,-125,cs),
(375,-80,o),
(345,-58,o),
(278,-48,c)
);
},
{
closed = 1;
nodes = (
(171,589,l),
(281,589,ls),
(383,589,o),
(439,558,o),
(439,472,cs),
(439,387,o),
(383,345,o),
(281,345,cs),
(171,345,l)
);
},
{
closed = 1;
nodes = (
(375,286,l),
(464,309,o),
(522,370,o),
(522,472,cs),
(522,608,o),
(426,656,o),
(293,656,cs),
(87,656,l),
(87,0,l),
(171,0,l),
(171,277,l),
(289,277,l),
(447,0,l),
(542,0,l)
);
}
);
width = 576;
}
);
note = uni0156;
unicode = 342;
},
{
glyphname = uni1E5A;
kernRight = R;
lastChange = "2023-11-07 07:31:52 +0000";
layers = (
{
hints = (
{
horizontal = 1;
place = (-206,107);
type = Stem;
},
{
horizontal = 1;
place = (0,21);
target = up;
type = BottomGhost;
},
{
horizontal = 1;
place = (277,68);
type = Stem;
},
{
horizontal = 1;
place = (589,67);
type = Stem;
},
{
place = (87,84);
type = Stem;
},
{
place = (253,108);
type = Stem;
},
{
place = (439,83);
type = Stem;
}
);
layerId = "8B4EFE1E-6C47-485C-9646-016EA71CC488";
shapes = (
{
closed = 1;
nodes = (
(276,-99,o),
(253,-121,o),
(253,-152,cs),
(253,-184,o),
(276,-206,o),
(307,-206,cs),
(338,-206,o),
(361,-184,o),
(361,-152,cs),
(361,-121,o),
(338,-99,o),
(307,-99,cs)
);
},
{
closed = 1;
nodes = (
(171,589,l),
(281,589,ls),
(383,589,o),
(439,558,o),
(439,472,cs),
(439,387,o),
(383,345,o),
(281,345,cs),
(171,345,l)
);
},
{
closed = 1;
nodes = (
(375,286,l),
(464,309,o),
(522,370,o),
(522,472,cs),
(522,608,o),
(426,656,o),
(293,656,cs),
(87,656,l),
(87,0,l),
(171,0,l),
(171,277,l),
(289,277,l),
(447,0,l),
(542,0,l)
);
}
);
width = 576;
}
);
note = uni1E5A;
unicode = 7770;
},
{
glyphname = uni1E5C;
kernRight = R;
lastChange = "2023-11-07 07:31:52 +0000";
layers = (
{
hints = (
{
horizontal = 1;
place = (-206,107);
type = Stem;
},
{
horizontal = 1;
place = (0,21);
target = up;
type = BottomGhost;
},
{
horizontal = 1;
place = (277,68);
type = Stem;
},
{
horizontal = 1;
place = (589,67);
type = Stem;
},
{
horizontal = 1;
place = (729,57);
type = Stem;
},
{
place = (167,248);
type = Stem;
},
{
place = (439,83);
type = Stem;
},
{
place = (87,84);
type = Stem;
},
{
place = (253,108);
type = Stem;
}
);
layerId = "8B4EFE1E-6C47-485C-9646-016EA71CC488";
shapes = (
{
closed = 1;
nodes = (
(415,786,l),
(167,786,l),
(167,729,l),
(415,729,l)
);
},
{
closed = 1;
nodes = (
(276,-99,o),
(253,-121,o),
(253,-152,cs),
(253,-184,o),
(276,-206,o),
(307,-206,cs),
(338,-206,o),
(361,-184,o),
(361,-152,cs),
(361,-121,o),
(338,-99,o),
(307,-99,cs)
);
},
{
closed = 1;
nodes = (
(171,589,l),
(281,589,ls),
(383,589,o),
(439,558,o),
(439,472,cs),
(439,387,o),
(383,345,o),
(281,345,cs),
(171,345,l)
);
},
{
closed = 1;
nodes = (
(375,286,l),
(464,309,o),
(522,370,o),
(522,472,cs),
(522,608,o),
(426,656,o),
(293,656,cs),
(87,656,l),
(87,0,l),
(171,0,l),
(171,277,l),
(289,277,l),
(447,0,l),
(542,0,l)
);
}
);
width = 576;
}
);
note = uni1E5C;
unicode = 7772;
},
{
glyphname = uni1E5E;
kernRight = R;
lastChange = "2023-11-07 07:31:52 +0000";
layers = (
{
hints = (
{
horizontal = 1;
place = (-171,58);
type = Stem;
},
{
horizontal = 1;
place = (0,21);
target = up;
type = BottomGhost;
},
{
horizontal = 1;
place = (277,68);
type = Stem;
},
{
horizontal = 1;
place = (589,67);
type = Stem;
},
{
place = (87,84);
type = Stem;
},
{
place = (183,246);
type = Stem;
},
{
place = (439,83);
type = Stem;
}
);
layerId = "8B4EFE1E-6C47-485C-9646-016EA71CC488";
shapes = (
{
closed = 1;
nodes = (
(183,-171,l),
(429,-171,l),
(429,-113,l),
(183,-113,l)
);
},
{
closed = 1;
nodes = (
(171,589,l),
(281,589,ls),
(383,589,o),
(439,558,o),
(439,472,cs),
(439,387,o),
(383,345,o),
(281,345,cs),
(171,345,l)
);
},
{
closed = 1;
nodes = (
(375,286,l),
(464,309,o),
(522,370,o),
(522,472,cs),
(522,608,o),
(426,656,o),
(293,656,cs),
(87,656,l),
(87,0,l),
(171,0,l),
(171,277,l),
(289,277,l),
(447,0,l),
(542,0,l)
);
}
);
width = 576;
}
);
note = uni1E5E;
unicode = 7774;
},
{
glyphname = Sacute;
kernLeft = S;
kernRight = S;
lastChange = "2023-11-07 07:31:52 +0000";
layers = (
{
hints = (
{
horizontal = 1;
place = (-12,73);
type = Stem;
},
{
horizontal = 1;
place = (595,73);
type = Stem;
},
{
horizontal = 1;
place = (706,112);
type = Stem;
},
{
place = (71,84);
type = Stem;
},
{
place = (408,85);
type = Stem;
}
);
layerId = "8B4EFE1E-6C47-485C-9646-016EA71CC488";
shapes = (
{
closed = 1;
nodes = (
(40,85,l),
(97,26,o),
(177,-12,o),
(269,-12,cs),
(407,-12,o),
(493,71,o),
(493,175,cs),
(493,272,o),
(434,317,o),
(358,350,cs),
(264,390,ls),
(213,412,o),
(155,436,o),
(155,499,cs),
(155,558,o),
(204,595,o),
(278,595,cs),
(338,595,o),
(387,571,o),
(427,533,c),
(471,587,l),
(425,635,o),
(356,668,o),
(278,668,cs),
(159,668,o),
(71,594,o),
(71,494,cs),
(71,398,o),
(143,351,o),
(204,325,cs),
(298,284,ls),
(360,256,o),
(408,235,o),
(408,168,cs),
(408,104,o),
(357,61,o),
(271,61,cs),
(202,61,o),
(137,94,o),
(90,143,c)
);
},
{
closed = 1;
nodes = (
(407,818,l),
(313,818,l),
(225,706,l),
(294,706,l)
);
}
);
width = 529;
}
);
note = Sacute;
unicode = 346;
},
{
glyphname = Scircumflex;
kernLeft = S;
kernRight = S;
lastChange = "2023-11-07 07:31:52 +0000";
layers = (
{
hints = (
{
horizontal = 1;
place = (-12,73);
type = Stem;
},
{
horizontal = 1;
place = (595,73);
type = Stem;
},
{
horizontal = 1;
place = (706,112);
type = Stem;
},
{
place = (71,84);
type = Stem;
},
{
place = (408,85);
type = Stem;
}
);
layerId = "8B4EFE1E-6C47-485C-9646-016EA71CC488";
shapes = (
{
closed = 1;
nodes = (
(40,85,l),
(97,26,o),
(177,-12,o),
(269,-12,cs),
(407,-12,o),
(493,71,o),
(493,175,cs),
(493,272,o),
(434,317,o),
(358,350,cs),
(264,390,ls),
(213,412,o),
(155,436,o),
(155,499,cs),
(155,558,o),
(204,595,o),
(278,595,cs),
(338,595,o),
(387,571,o),
(427,533,c),
(471,587,l),
(425,635,o),
(356,668,o),
(278,668,cs),
(159,668,o),
(71,594,o),
(71,494,cs),
(71,398,o),
(143,351,o),
(204,325,cs),
(298,284,ls),
(360,256,o),
(408,235,o),
(408,168,cs),
(408,104,o),
(357,61,o),
(271,61,cs),
(202,61,o),
(137,94,o),
(90,143,c)
);
},
{
closed = 1;
nodes = (
(207,706,l),
(274,774,l),
(278,774,l),
(345,706,l),
(412,706,l),
(316,818,l),
(237,818,l),
(141,706,l)
);
}
);
width = 529;
}
);
note = Scircumflex;
unicode = 348;
},
{
glyphname = Scaron;
kernLeft = S;
kernRight = S;
lastChange = "2023-11-07 07:31:52 +0000";
layers = (
{
hints = (
{
horizontal = 1;
place = (-12,73);
type = Stem;
},
{
horizontal = 1;
place = (595,73);
type = Stem;
},
{
horizontal = 1;
place = (706,112);
type = Stem;
},
{
place = (71,84);
type = Stem;
},
{
place = (408,85);
type = Stem;
}
);
layerId = "8B4EFE1E-6C47-485C-9646-016EA71CC488";
shapes = (
{
closed = 1;
nodes = (
(40,85,l),
(97,26,o),
(177,-12,o),
(269,-12,cs),
(407,-12,o),
(493,71,o),
(493,175,cs),
(493,272,o),
(434,317,o),
(358,350,cs),
(264,390,ls),
(213,412,o),
(155,436,o),
(155,499,cs),
(155,558,o),
(204,595,o),
(278,595,cs),
(338,595,o),
(387,571,o),
(427,533,c),
(471,587,l),
(425,635,o),
(356,668,o),
(278,668,cs),
(159,668,o),
(71,594,o),
(71,494,cs),
(71,398,o),
(143,351,o),
(204,325,cs),
(298,284,ls),
(360,256,o),
(408,235,o),
(408,168,cs),
(408,104,o),
(357,61,o),
(271,61,cs),
(202,61,o),
(137,94,o),
(90,143,c)
);
},
{
closed = 1;
nodes = (
(345,818,l),
(278,750,l),
(274,750,l),
(207,818,l),
(141,818,l),
(237,706,l),
(316,706,l),
(412,818,l)
);
}
);
width = 529;
}
);
note = Scaron;
unicode = 352;
},
{
glyphname = uni015E;
kernLeft = S;
kernRight = S;
lastChange = "2023-11-07 07:31:52 +0000";
layers = (
{
hints = (
{
horizontal = 1;
place = (-213,41);
type = Stem;
},
{
horizontal = 1;
place = (-11,72);
type = Stem;
},
{
horizontal = 1;
place = (595,73);
type = Stem;
},
{
place = (71,84);
type = Stem;
},
{
place = (274,64);
type = Stem;
},
{
place = (408,85);
type = Stem;
}
);
layerId = "8B4EFE1E-6C47-485C-9646-016EA71CC488";
shapes = (
{
closed = 1;
nodes = (
(264,390,ls),
(213,412,o),
(155,436,o),
(155,499,cs),
(155,558,o),
(204,595,o),
(278,595,cs),
(338,595,o),
(387,571,o),
(427,533,c),
(471,587,l),
(425,635,o),
(356,668,o),
(278,668,cs),
(159,668,o),
(71,594,o),
(71,494,cs),
(71,398,o),
(143,351,o),
(204,325,cs),
(298,284,ls),
(360,256,o),
(408,235,o),
(408,168,cs),
(408,104,o),
(357,61,o),
(271,61,cs),
(202,61,o),
(137,94,o),
(90,143,c),
(40,85,l),
(92,31,o),
(162,-5,o),
(244,-11,c),
(211,-75,l),
(251,-85,o),
(274,-98,o),
(274,-124,cs),
(274,-151,o),
(238,-165,o),
(185,-172,c),
(193,-213,l),
(269,-206,o),
(338,-179,o),
(338,-121,cs),
(338,-80,o),
(311,-61,o),
(279,-50,c),
(298,-11,l),
(419,0,o),
(493,78,o),
(493,175,cs),
(493,272,o),
(434,317,o),
(358,350,cs)
);
}
);
width = 529;
}
);
note = uni015E;
unicode = 350;
},
{
glyphname = uni0218;
kernLeft = S;
kernRight = S;
lastChange = "2023-11-07 07:31:52 +0000";
layers = (
{
hints = (
{
horizontal = 1;
place = (-216,40);
type = Stem;
},
{
horizontal = 1;
place = (-12,73);
type = Stem;
},
{
horizontal = 1;
place = (595,73);
type = Stem;
},
{
place = (71,84);
type = Stem;
},
{
place = (274,64);
type = Stem;
},
{
place = (408,85);
type = Stem;
}
);
layerId = "8B4EFE1E-6C47-485C-9646-016EA71CC488";
shapes = (
{
closed = 1;
nodes = (
(40,85,l),
(97,26,o),
(177,-12,o),
(269,-12,cs),
(407,-12,o),
(493,71,o),
(493,175,cs),
(493,272,o),
(434,317,o),
(358,350,cs),
(264,390,ls),
(213,412,o),
(155,436,o),
(155,499,cs),
(155,558,o),
(204,595,o),
(278,595,cs),
(338,595,o),
(387,571,o),
(427,533,c),
(471,587,l),
(425,635,o),
(356,668,o),
(278,668,cs),
(159,668,o),
(71,594,o),
(71,494,cs),
(71,398,o),
(143,351,o),
(204,325,cs),
(298,284,ls),
(360,256,o),
(408,235,o),
(408,168,cs),
(408,104,o),
(357,61,o),
(271,61,cs),
(202,61,o),
(137,94,o),
(90,143,c)
);
},
{
closed = 1;
nodes = (
(223,-86,l),
(251,-93,o),
(274,-104,o),
(274,-130,cs),
(274,-156,o),
(238,-169,o),
(185,-176,c),
(193,-216,l),
(269,-210,o),
(338,-183,o),
(338,-125,cs),
(338,-80,o),
(309,-58,o),
(241,-48,c)
);
}
);
width = 529;
}
);
note = uni0218;
unicode = 536;
},
{
glyphname = uni1E60;
kernLeft = S;
kernRight = S;
lastChange = "2023-11-07 07:31:52 +0000";
layers = (
{
hints = (
{
horizontal = 1;
place = (-12,73);
type = Stem;
},
{
horizontal = 1;
place = (595,73);
type = Stem;
},
{
horizontal = 1;
place = (714,107);
type = Stem;
},
{
place = (71,84);
type = Stem;
},
{
place = (220,113);
type = Stem;
},
{
place = (408,85);
type = Stem;
}
);
layerId = "8B4EFE1E-6C47-485C-9646-016EA71CC488";
shapes = (
{
closed = 1;
nodes = (
(40,85,l),
(97,26,o),
(177,-12,o),
(269,-12,cs),
(407,-12,o),
(493,71,o),
(493,175,cs),
(493,272,o),
(434,317,o),
(358,350,cs),
(264,390,ls),
(213,412,o),
(155,436,o),
(155,499,cs),
(155,558,o),
(204,595,o),
(278,595,cs),
(338,595,o),
(387,571,o),
(427,533,c),
(471,587,l),
(425,635,o),
(356,668,o),
(278,668,cs),
(159,668,o),
(71,594,o),
(71,494,cs),
(71,398,o),
(143,351,o),
(204,325,cs),
(298,284,ls),
(360,256,o),
(408,235,o),
(408,168,cs),
(408,104,o),
(357,61,o),
(271,61,cs),
(202,61,o),
(137,94,o),
(90,143,c)
);
},
{
closed = 1;
nodes = (
(308,714,o),
(333,736,o),
(333,768,cs),
(333,799,o),
(308,821,o),
(276,821,cs),
(244,821,o),
(220,799,o),
(220,768,cs),
(220,736,o),
(244,714,o),
(276,714,cs)
);
}
);
width = 529;
}
);
note = uni1E60;
unicode = 7776;
},
{
glyphname = uni1E62;
kernLeft = S;
kernRight = S;
lastChange = "2023-11-07 07:31:52 +0000";
layers = (
{
hints = (
{
horizontal = 1;
place = (-206,107);
type = Stem;
},
{
horizontal = 1;
place = (-12,73);
type = Stem;
},
{
horizontal = 1;
place = (595,73);
type = Stem;
},
{
place = (71,84);
type = Stem;
},
{
place = (216,108);
type = Stem;
},
{
place = (408,85);
type = Stem;
}
);
layerId = "8B4EFE1E-6C47-485C-9646-016EA71CC488";
shapes = (
{
closed = 1;
nodes = (
(40,85,l),
(97,26,o),
(177,-12,o),
(269,-12,cs),
(407,-12,o),
(493,71,o),
(493,175,cs),
(493,272,o),
(434,317,o),
(358,350,cs),
(264,390,ls),
(213,412,o),
(155,436,o),
(155,499,cs),
(155,558,o),
(204,595,o),
(278,595,cs),
(338,595,o),
(387,571,o),
(427,533,c),
(471,587,l),
(425,635,o),
(356,668,o),
(278,668,cs),
(159,668,o),
(71,594,o),
(71,494,cs),
(71,398,o),
(143,351,o),
(204,325,cs),
(298,284,ls),
(360,256,o),
(408,235,o),
(408,168,cs),
(408,104,o),
(357,61,o),
(271,61,cs),
(202,61,o),
(137,94,o),
(90,143,c)
);
},
{
closed = 1;
nodes = (
(301,-206,o),
(324,-184,o),
(324,-152,cs),
(324,-121,o),
(301,-99,o),
(270,-99,cs),
(239,-99,o),
(216,-121,o),
(216,-152,cs),
(216,-184,o),
(239,-206,o),
(270,-206,cs)
);
}
);
width = 529;
}
);
note = uni1E62;
unicode = 7778;
},
{
glyphname = uni1E9E;
lastChange = "2023-11-07 07:31:52 +0000";
layers = (
{
hints = (
{
horizontal = 1;
place = (0,21);
target = up;
type = BottomGhost;
},
{
horizontal = 1;
place = (599,69);
type = Stem;
},
{
place = (89,83);
type = Stem;
},
{
place = (535,86);
type = Stem;
},
{
horizontal = 1;
place = (-12,70);
type = Stem;
}
);
layerId = "8B4EFE1E-6C47-485C-9646-016EA71CC488";
shapes = (
{
closed = 1;
nodes = (
(89,0,l),
(172,0,l),
(172,402,ls),
(172,537,o),
(236,599,o),
(342,599,cs),
(409,599,o),
(452,562,o),
(474,517,c),
(337,364,l),
(343,310,l),
(496,284,o),
(535,233,o),
(535,171,cs),
(535,105,o),
(494,58,o),
(424,58,cs),
(376,58,o),
(336,76,o),
(298,118,c),
(251,64,l),
(291,19,o),
(355,-12,o),
(431,-12,cs),
(546,-12,o),
(621,67,o),
(621,171,cs),
(621,266,o),
(563,334,o),
(424,362,c),
(562,514,l),
(526,607,o),
(456,668,o),
(345,668,cs),
(171,668,o),
(89,559,o),
(89,417,cs)
);
}
);
width = 662;
}
);
note = uni1E9E;
unicode = 7838;
},
{
glyphname = Tcaron;
kernLeft = T;
kernRight = T;
lastChange = "2023-11-07 07:31:52 +0000";
layers = (
{
hints = (
{
horizontal = 1;
place = (0,21);
target = up;
type = BottomGhost;
},
{
horizontal = 1;
place = (586,70);
type = Stem;
},
{
horizontal = 1;
place = (706,112);
type = Stem;
},
{
place = (224,83);
type = Stem;
}
);
layerId = "8B4EFE1E-6C47-485C-9646-016EA71CC488";
shapes = (
{
closed = 1;
nodes = (
(224,0,l),
(307,0,l),
(307,586,l),
(506,586,l),
(506,656,l),
(25,656,l),
(25,586,l),
(224,586,l)
);
},
{
closed = 1;
nodes = (
(334,818,l),
(267,750,l),
(263,750,l),
(196,818,l),
(129,818,l),
(225,706,l),
(305,706,l),
(401,818,l)
);
}
);
width = 531;
}
);
note = Tcaron;
unicode = 356;
},
{
glyphname = uni0162;
kernLeft = T;
kernRight = T;
lastChange = "2023-11-07 07:31:52 +0000";
layers = (
{
hints = (
{
horizontal = 1;
place = (0,21);
target = up;
type = BottomGhost;
},
{
horizontal = 1;
place = (586,70);
type = Stem;
},
{
place = (224,83);
type = Stem;
},
{
horizontal = 1;
place = (-213,41);
type = Stem;
},
{
place = (266,64);
type = Stem;
}
);
layerId = "8B4EFE1E-6C47-485C-9646-016EA71CC488";
shapes = (
{
closed = 1;
nodes = (
(307,0,l),
(307,586,l),
(506,586,l),
(506,656,l),
(25,656,l),
(25,586,l),
(224,586,l),
(224,0,l),
(241,0,l),
(203,-75,l),
(243,-85,o),
(266,-98,o),
(266,-124,cs),
(266,-151,o),
(230,-165,o),
(177,-172,c),
(185,-213,l),
(261,-206,o),
(330,-179,o),
(330,-121,cs),
(330,-80,o),
(303,-61,o),
(271,-50,c),
(295,0,l)
);
}
);
width = 531;
}
);
note = uni0162;
unicode = 354;
},
{
glyphname = uni021A;
kernLeft = T;
kernRight = T;
lastChange = "2023-11-07 07:31:52 +0000";
layers = (
{
hints = (
{
horizontal = 1;
place = (-216,40);
type = Stem;
},
{
horizontal = 1;
place = (0,21);
target = up;
type = BottomGhost;
},
{
horizontal = 1;
place = (586,70);
type = Stem;
},
{
place = (224,83);
type = Stem;
},
{
place = (270,64);
type = Stem;
}
);
layerId = "8B4EFE1E-6C47-485C-9646-016EA71CC488";
shapes = (
{
closed = 1;
nodes = (
(224,0,l),
(307,0,l),
(307,586,l),
(506,586,l),
(506,656,l),
(25,656,l),
(25,586,l),
(224,586,l)
);
},
{
closed = 1;
nodes = (
(219,-86,l),
(248,-93,o),
(270,-104,o),
(270,-130,cs),
(270,-156,o),
(234,-169,o),
(181,-176,c),
(190,-216,l),
(265,-210,o),
(334,-183,o),
(334,-125,cs),
(334,-80,o),
(305,-58,o),
(237,-48,c)
);
}
);
width = 531;
}
);
note = uni021A;
unicode = 538;
},
{
glyphname = uni1E6C;
kernLeft = T;
kernRight = T;
lastChange = "2023-11-07 07:31:52 +0000";
layers = (
{
hints = (
{
horizontal = 1;
place = (-206,107);
type = Stem;
},
{
horizontal = 1;
place = (0,21);
target = up;
type = BottomGhost;
},
{
horizontal = 1;
place = (586,70);
type = Stem;
},
{
place = (224,83);
type = Stem;
},
{
place = (212,108);
type = Stem;
}
);
layerId = "8B4EFE1E-6C47-485C-9646-016EA71CC488";
shapes = (
{
closed = 1;
nodes = (
(224,0,l),
(307,0,l),
(307,586,l),
(506,586,l),
(506,656,l),
(25,656,l),
(25,586,l),
(224,586,l)
);
},
{
closed = 1;
nodes = (
(297,-206,o),
(320,-184,o),
(320,-152,cs),
(320,-121,o),
(297,-99,o),
(266,-99,cs),
(235,-99,o),
(212,-121,o),
(212,-152,cs),
(212,-184,o),
(235,-206,o),
(266,-206,cs)
);
}
);
width = 531;
}
);
note = uni1E6C;
unicode = 7788;
},
{
glyphname = uni1E6E;
kernLeft = T;
kernRight = T;
lastChange = "2023-11-07 07:31:52 +0000";
layers = (
{
hints = (
{
horizontal = 1;
place = (-171,58);
type = Stem;
},
{
horizontal = 1;
place = (0,21);
target = up;
type = BottomGhost;
},
{
horizontal = 1;
place = (586,70);
type = Stem;
},
{
place = (224,83);
type = Stem;
}
);
layerId = "8B4EFE1E-6C47-485C-9646-016EA71CC488";
shapes = (
{
closed = 1;
nodes = (
(224,0,l),
(307,0,l),
(307,586,l),
(506,586,l),
(506,656,l),
(25,656,l),
(25,586,l),
(224,586,l)
);
},
{
closed = 1;
nodes = (
(389,-113,l),
(142,-113,l),
(142,-171,l),
(389,-171,l)
);
}
);
width = 531;
}
);
note = uni1E6E;
unicode = 7790;
},
{
glyphname = Ugrave;
kernLeft = U;
kernRight = U;
lastChange = "2023-11-07 07:31:52 +0000";
layers = (
{
hints = (
{
horizontal = 1;
place = (-12,73);
type = Stem;
},
{
horizontal = 1;
place = (656,-20);
target = down;
type = TopGhost;
},
{
horizontal = 1;
place = (706,112);
type = Stem;
},
{
place = (84,84);
type = Stem;
},
{
place = (476,80);
type = Stem;
}
);
layerId = "8B4EFE1E-6C47-485C-9646-016EA71CC488";
shapes = (
{
closed = 1;
nodes = (
(84,271,ls),
(84,60,o),
(186,-12,o),
(320,-12,cs),
(454,-12,o),
(556,60,o),
(556,271,cs),
(556,656,l),
(476,656,l),
(476,269,ls),
(476,111,o),
(407,61,o),
(320,61,cs),
(235,61,o),
(168,111,o),
(168,269,cs),
(168,656,l),
(84,656,l)
);
},
{
closed = 1;
nodes = (
(302,706,l),
(371,706,l),
(283,818,l),
(189,818,l)
);
}
);
width = 640;
}
);
note = Ugrave;
unicode = 217;
},
{
glyphname = Uacute;
kernLeft = U;
kernRight = U;
lastChange = "2023-11-07 07:31:52 +0000";
layers = (
{
hints = (
{
horizontal = 1;
place = (-12,73);
type = Stem;
},
{
horizontal = 1;
place = (656,-20);
target = down;
type = TopGhost;
},
{
horizontal = 1;
place = (706,112);
type = Stem;
},
{
place = (84,84);
type = Stem;
},
{
place = (476,80);
type = Stem;
}
);
layerId = "8B4EFE1E-6C47-485C-9646-016EA71CC488";
shapes = (
{
closed = 1;
nodes = (
(84,271,ls),
(84,60,o),
(186,-12,o),
(320,-12,cs),
(454,-12,o),
(556,60,o),
(556,271,cs),
(556,656,l),
(476,656,l),
(476,269,ls),
(476,111,o),
(407,61,o),
(320,61,cs),
(235,61,o),
(168,111,o),
(168,269,cs),
(168,656,l),
(84,656,l)
);
},
{
closed = 1;
nodes = (
(451,818,l),
(357,818,l),
(269,706,l),
(338,706,l)
);
}
);
width = 640;
}
);
note = Uacute;
unicode = 218;
},
{
glyphname = Ucircumflex;
kernLeft = U;
kernRight = U;
lastChange = "2023-11-07 07:31:52 +0000";
layers = (
{
hints = (
{
horizontal = 1;
place = (-12,73);
type = Stem;
},
{
horizontal = 1;
place = (656,-20);
target = down;
type = TopGhost;
},
{
horizontal = 1;
place = (706,112);
type = Stem;
},
{
place = (84,84);
type = Stem;
},
{
place = (476,80);
type = Stem;
}
);
layerId = "8B4EFE1E-6C47-485C-9646-016EA71CC488";
shapes = (
{
closed = 1;
nodes = (
(84,271,ls),
(84,60,o),
(186,-12,o),
(320,-12,cs),
(454,-12,o),
(556,60,o),
(556,271,cs),
(556,656,l),
(476,656,l),
(476,269,ls),
(476,111,o),
(407,61,o),
(320,61,cs),
(235,61,o),
(168,111,o),
(168,269,cs),
(168,656,l),
(84,656,l)
);
},
{
closed = 1;
nodes = (
(251,706,l),
(318,774,l),
(322,774,l),
(389,706,l),
(456,706,l),
(360,818,l),
(280,818,l),
(184,706,l)
);
}
);
width = 640;
}
);
note = Ucircumflex;
unicode = 219;
},
{
glyphname = Utilde;
kernLeft = U;
kernRight = U;
lastChange = "2023-11-07 07:31:52 +0000";
layers = (
{
hints = (
{
horizontal = 1;
place = (-12,73);
type = Stem;
},
{
horizontal = 1;
place = (656,-20);
target = down;
type = TopGhost;
},
{
horizontal = 1;
place = (763,56);
type = Stem;
},
{
place = (84,84);
type = Stem;
},
{
place = (476,80);
type = Stem;
},
{
horizontal = 1;
place = (711,56);
type = Stem;
},
{
place = (176,45);
type = Stem;
},
{
place = (419,46);
type = Stem;
}
);
layerId = "8B4EFE1E-6C47-485C-9646-016EA71CC488";
shapes = (
{
closed = 1;
nodes = (
(84,271,ls),
(84,60,o),
(186,-12,o),
(320,-12,cs),
(454,-12,o),
(556,60,o),
(556,271,cs),
(556,656,l),
(476,656,l),
(476,269,ls),
(476,111,o),
(407,61,o),
(320,61,cs),
(235,61,o),
(168,111,o),
(168,269,cs),
(168,656,l),
(84,656,l)
);
},
{
closed = 1;
nodes = (
(428,711,o),
(459,758,o),
(465,819,c),
(419,819,l),
(414,786,o),
(399,767,o),
(379,767,cs),
(342,767,o),
(313,819,o),
(260,819,cs),
(212,819,o),
(181,773,o),
(176,711,c),
(221,711,l),
(227,745,o),
(242,763,o),
(262,763,cs),
(299,763,o),
(328,711,o),
(380,711,cs)
);
}
);
width = 640;
}
);
note = Utilde;
unicode = 360;
},
{
glyphname = Udieresis;
kernLeft = U;
kernRight = U;
lastChange = "2023-11-07 07:31:52 +0000";
layers = (
{
hints = (
{
horizontal = 1;
place = (-12,73);
type = Stem;
},
{
horizontal = 1;
place = (656,-20);
target = down;
type = TopGhost;
},
{
horizontal = 1;
place = (715,98);
type = Stem;
},
{
place = (84,84);
type = Stem;
},
{
place = (476,80);
type = Stem;
},
{
place = (185,98);
type = Stem;
},
{
place = (358,97);
type = Stem;
}
);
layerId = "8B4EFE1E-6C47-485C-9646-016EA71CC488";
shapes = (
{
closed = 1;
nodes = (
(84,271,ls),
(84,60,o),
(186,-12,o),
(320,-12,cs),
(454,-12,o),
(556,60,o),
(556,271,cs),
(556,656,l),
(476,656,l),
(476,269,ls),
(476,111,o),
(407,61,o),
(320,61,cs),
(235,61,o),
(168,111,o),
(168,269,cs),
(168,656,l),
(84,656,l)
);
},
{
closed = 1;
nodes = (
(262,715,o),
(283,736,o),
(283,764,cs),
(283,793,o),
(262,813,o),
(234,813,cs),
(206,813,o),
(185,793,o),
(185,764,cs),
(185,736,o),
(206,715,o),
(234,715,cs)
);
},
{
closed = 1;
nodes = (
(435,715,o),
(455,736,o),
(455,764,cs),
(455,793,o),
(435,813,o),
(407,813,cs),
(378,813,o),
(358,793,o),
(358,764,cs),
(358,736,o),
(378,715,o),
(407,715,cs)
);
}
);
width = 640;
}
);
note = Udieresis;
unicode = 220;
},
{
glyphname = Umacron;
kernLeft = U;
kernRight = U;
lastChange = "2023-11-07 07:31:52 +0000";
layers = (
{
hints = (
{
horizontal = 1;
place = (-12,73);
type = Stem;
},
{
horizontal = 1;
place = (656,-20);
target = down;
type = TopGhost;
},
{
horizontal = 1;
place = (729,57);
type = Stem;
},
{
place = (84,84);
type = Stem;
},
{
place = (476,80);
type = Stem;
},
{
place = (196,248);
type = Stem;
}
);
layerId = "8B4EFE1E-6C47-485C-9646-016EA71CC488";
shapes = (
{
closed = 1;
nodes = (
(84,271,ls),
(84,60,o),
(186,-12,o),
(320,-12,cs),
(454,-12,o),
(556,60,o),
(556,271,cs),
(556,656,l),
(476,656,l),
(476,269,ls),
(476,111,o),
(407,61,o),
(320,61,cs),
(235,61,o),
(168,111,o),
(168,269,cs),
(168,656,l),
(84,656,l)
);
},
{
closed = 1;
nodes = (
(196,729,l),
(444,729,l),
(444,786,l),
(196,786,l)
);
}
);
width = 640;
}
);
note = Umacron;
unicode = 362;
},
{
glyphname = Ubreve;
kernLeft = U;
kernRight = U;
lastChange = "2023-11-07 07:31:52 +0000";
layers = (
{
hints = (
{
horizontal = 1;
place = (-12,73);
type = Stem;
},
{
horizontal = 1;
place = (656,-20);
target = down;
type = TopGhost;
},
{
horizontal = 1;
place = (708,47);
type = Stem;
},
{
place = (84,84);
type = Stem;
},
{
place = (476,80);
type = Stem;
}
);
layerId = "8B4EFE1E-6C47-485C-9646-016EA71CC488";
shapes = (
{
closed = 1;
nodes = (
(84,271,ls),
(84,60,o),
(186,-12,o),
(320,-12,cs),
(454,-12,o),
(556,60,o),
(556,271,cs),
(556,656,l),
(476,656,l),
(476,269,ls),
(476,111,o),
(407,61,o),
(320,61,cs),
(235,61,o),
(168,111,o),
(168,269,cs),
(168,656,l),
(84,656,l)
);
},
{
closed = 1;
nodes = (
(400,708,o),
(437,762,o),
(443,818,c),
(393,818,l),
(387,786,o),
(365,755,o),
(320,755,cs),
(275,755,o),
(253,786,o),
(247,818,c),
(197,818,l),
(204,762,o),
(240,708,o),
(320,708,cs)
);
}
);
width = 640;
}
);
note = Ubreve;
unicode = 364;
},
{
glyphname = Uring;
kernLeft = U;
kernRight = U;
lastChange = "2023-11-07 07:31:52 +0000";
layers = (
{
hints = (
{
horizontal = 1;
place = (-12,73);
type = Stem;
},
{
horizontal = 1;
place = (656,-20);
target = down;
type = TopGhost;
},
{
horizontal = 1;
place = (699,36);
type = Stem;
},
{
horizontal = 1;
place = (838,37);
type = Stem;
},
{
place = (84,84);
type = Stem;
},
{
place = (227,45);
type = Stem;
},
{
place = (367,47);
type = Stem;
},
{
place = (476,80);
type = Stem;
}
);
layerId = "8B4EFE1E-6C47-485C-9646-016EA71CC488";
shapes = (
{
closed = 1;
nodes = (
(84,271,ls),
(84,60,o),
(186,-12,o),
(320,-12,cs),
(454,-12,o),
(556,60,o),
(556,271,cs),
(556,656,l),
(476,656,l),
(476,269,ls),
(476,111,o),
(407,61,o),
(320,61,cs),
(235,61,o),
(168,111,o),
(168,269,cs),
(168,656,l),
(84,656,l)
);
},
{
closed = 1;
nodes = (
(373,699,o),
(414,733,o),
(414,787,cs),
(414,840,o),
(373,875,o),
(320,875,cs),
(266,875,o),
(227,840,o),
(227,787,cs),
(227,733,o),
(266,699,o),
(320,699,cs)
);
},
{
closed = 1;
nodes = (
(294,735,o),
(272,754,o),
(272,787,cs),
(272,818,o),
(294,838,o),
(320,838,cs),
(346,838,o),
(367,818,o),
(367,787,cs),
(367,754,o),
(346,735,o),
(320,735,cs)
);
}
);
width = 640;
}
);
note = Uring;
unicode = 366;
},
{
glyphname = Uhungarumlaut;
kernLeft = U;
kernRight = U;
lastChange = "2023-11-07 07:31:52 +0000";
layers = (
{
hints = (
{
horizontal = 1;
place = (-12,73);
type = Stem;
},
{
horizontal = 1;
place = (656,-20);
target = down;
type = TopGhost;
},
{
horizontal = 1;
place = (706,112);
type = Stem;
},
{
place = (84,84);
type = Stem;
},
{
place = (476,80);
type = Stem;
}
);
layerId = "8B4EFE1E-6C47-485C-9646-016EA71CC488";
shapes = (
{
closed = 1;
nodes = (
(84,271,ls),
(84,60,o),
(186,-12,o),
(320,-12,cs),
(454,-12,o),
(556,60,o),
(556,271,cs),
(556,656,l),
(476,656,l),
(476,269,ls),
(476,111,o),
(407,61,o),
(320,61,cs),
(235,61,o),
(168,111,o),
(168,269,cs),
(168,656,l),
(84,656,l)
);
},
{
closed = 1;
nodes = (
(271,706,l),
(354,818,l),
(277,818,l),
(211,706,l)
);
},
{
closed = 1;
nodes = (
(369,706,l),
(429,706,l),
(512,818,l),
(435,818,l)
);
}
);
width = 640;
}
);
note = Uhungarumlaut;
unicode = 368;
},
{
glyphname = uni01D3;
kernLeft = U;
kernRight = U;
lastChange = "2023-11-07 07:31:52 +0000";
layers = (
{
hints = (
{
horizontal = 1;
place = (-12,73);
type = Stem;
},
{
horizontal = 1;
place = (656,-20);
target = down;
type = TopGhost;
},
{
horizontal = 1;
place = (706,112);
type = Stem;
},
{
place = (84,84);
type = Stem;
},
{
place = (476,80);
type = Stem;
}
);
layerId = "8B4EFE1E-6C47-485C-9646-016EA71CC488";
shapes = (
{
closed = 1;
nodes = (
(84,271,ls),
(84,60,o),
(186,-12,o),
(320,-12,cs),
(454,-12,o),
(556,60,o),
(556,271,cs),
(556,656,l),
(476,656,l),
(476,269,ls),
(476,111,o),
(407,61,o),
(320,61,cs),
(235,61,o),
(168,111,o),
(168,269,cs),
(168,656,l),
(84,656,l)
);
},
{
closed = 1;
nodes = (
(389,818,l),
(322,750,l),
(318,750,l),
(251,818,l),
(184,818,l),
(280,706,l),
(360,706,l),
(456,818,l)
);
}
);
width = 640;
}
);
note = uni01D3;
unicode = 467;
},
{
glyphname = uni01D5;
kernLeft = U;
kernRight = U;
lastChange = "2023-11-07 07:31:52 +0000";
layers = (
{
hints = (
{
horizontal = 1;
place = (-12,73);
type = Stem;
},
{
horizontal = 1;
place = (656,-20);
target = down;
type = TopGhost;
},
{
horizontal = 1;
place = (715,91);
type = Stem;
},
{
horizontal = 1;
place = (861,46);
type = Stem;
},
{
place = (84,84);
type = Stem;
},
{
place = (476,80);
type = Stem;
},
{
place = (196,248);
type = Stem;
},
{
place = (189,90);
type = Stem;
},
{
place = (361,91);
type = Stem;
}
);
layerId = "8B4EFE1E-6C47-485C-9646-016EA71CC488";
shapes = (
{
closed = 1;
nodes = (
(84,271,ls),
(84,60,o),
(186,-12,o),
(320,-12,cs),
(454,-12,o),
(556,60,o),
(556,271,cs),
(556,656,l),
(476,656,l),
(476,269,ls),
(476,111,o),
(407,61,o),
(320,61,cs),
(235,61,o),
(168,111,o),
(168,269,cs),
(168,656,l),
(84,656,l)
);
},
{
closed = 1;
nodes = (
(196,861,l),
(444,861,l),
(444,907,l),
(196,907,l)
);
},
{
closed = 1;
nodes = (
(260,715,o),
(279,734,o),
(279,761,cs),
(279,787,o),
(260,806,o),
(234,806,cs),
(208,806,o),
(189,787,o),
(189,761,cs),
(189,734,o),
(208,715,o),
(234,715,cs)
);
},
{
closed = 1;
nodes = (
(433,715,o),
(452,734,o),
(452,761,cs),
(452,787,o),
(433,806,o),
(407,806,cs),
(380,806,o),
(361,787,o),
(361,761,cs),
(361,734,o),
(380,715,o),
(407,715,cs)
);
}
);
width = 640;
}
);
note = uni01D5;
unicode = 469;
},
{
glyphname = uni01D7;
kernLeft = U;
kernRight = U;
lastChange = "2023-11-07 07:31:52 +0000";
layers = (
{
hints = (
{
horizontal = 1;
place = (-12,73);
type = Stem;
},
{
horizontal = 1;
place = (656,-20);
target = down;
type = TopGhost;
},
{
horizontal = 1;
place = (715,91);
type = Stem;
},
{
horizontal = 1;
place = (839,111);
type = Stem;
},
{
place = (84,84);
type = Stem;
},
{
place = (476,80);
type = Stem;
},
{
place = (189,90);
type = Stem;
},
{
place = (361,91);
type = Stem;
}
);
layerId = "8B4EFE1E-6C47-485C-9646-016EA71CC488";
shapes = (
{
closed = 1;
nodes = (
(84,271,ls),
(84,60,o),
(186,-12,o),
(320,-12,cs),
(454,-12,o),
(556,60,o),
(556,271,cs),
(556,656,l),
(476,656,l),
(476,269,ls),
(476,111,o),
(407,61,o),
(320,61,cs),
(235,61,o),
(168,111,o),
(168,269,cs),
(168,656,l),
(84,656,l)
);
},
{
closed = 1;
nodes = (
(269,839,l),
(337,839,l),
(449,950,l),
(358,950,l)
);
},
{
closed = 1;
nodes = (
(260,715,o),
(279,734,o),
(279,761,cs),
(279,787,o),
(260,806,o),
(234,806,cs),
(208,806,o),
(189,787,o),
(189,761,cs),
(189,734,o),
(208,715,o),
(234,715,cs)
);
},
{
closed = 1;
nodes = (
(433,715,o),
(452,734,o),
(452,761,cs),
(452,787,o),
(433,806,o),
(407,806,cs),
(380,806,o),
(361,787,o),
(361,761,cs),
(361,734,o),
(380,715,o),
(407,715,cs)
);
}
);
width = 640;
}
);
note = uni01D7;
unicode = 471;
},
{
glyphname = uni01D9;
kernLeft = U;
kernRight = U;
lastChange = "2023-11-07 07:31:52 +0000";
layers = (
{
hints = (
{
horizontal = 1;
place = (-12,73);
type = Stem;
},
{
horizontal = 1;
place = (656,-20);
target = down;
type = TopGhost;
},
{
horizontal = 1;
place = (715,91);
type = Stem;
},
{
horizontal = 1;
place = (839,111);
type = Stem;
},
{
place = (84,84);
type = Stem;
},
{
place = (476,80);
type = Stem;
},
{
place = (189,90);
type = Stem;
},
{
place = (361,91);
type = Stem;
}
);
layerId = "8B4EFE1E-6C47-485C-9646-016EA71CC488";
shapes = (
{
closed = 1;
nodes = (
(84,271,ls),
(84,60,o),
(186,-12,o),
(320,-12,cs),
(454,-12,o),
(556,60,o),
(556,271,cs),
(556,656,l),
(476,656,l),
(476,269,ls),
(476,111,o),
(407,61,o),
(320,61,cs),
(235,61,o),
(168,111,o),
(168,269,cs),
(168,656,l),
(84,656,l)
);
},
{
closed = 1;
nodes = (
(260,715,o),
(279,734,o),
(279,761,cs),
(279,787,o),
(260,806,o),
(234,806,cs),
(208,806,o),
(189,787,o),
(189,761,cs),
(189,734,o),
(208,715,o),
(234,715,cs)
);
},
{
closed = 1;
nodes = (
(433,715,o),
(452,734,o),
(452,761,cs),
(452,787,o),
(433,806,o),
(407,806,cs),
(380,806,o),
(361,787,o),
(361,761,cs),
(361,734,o),
(380,715,o),
(407,715,cs)
);
},
{
closed = 1;
nodes = (
(389,950,l),
(322,882,l),
(318,882,l),
(251,950,l),
(184,950,l),
(280,839,l),
(360,839,l),
(456,950,l)
);
}
);
width = 640;
}
);
note = uni01D9;
unicode = 473;
},
{
glyphname = uni01DB;
kernLeft = U;
kernRight = U;
lastChange = "2023-11-07 07:31:52 +0000";
layers = (
{
hints = (
{
horizontal = 1;
place = (-12,73);
type = Stem;
},
{
horizontal = 1;
place = (656,-20);
target = down;
type = TopGhost;
},
{
horizontal = 1;
place = (715,91);
type = Stem;
},
{
horizontal = 1;
place = (839,111);
type = Stem;
},
{
place = (84,84);
type = Stem;
},
{
place = (476,80);
type = Stem;
},
{
place = (189,90);
type = Stem;
},
{
place = (361,91);
type = Stem;
}
);
layerId = "8B4EFE1E-6C47-485C-9646-016EA71CC488";
shapes = (
{
closed = 1;
nodes = (
(84,271,ls),
(84,60,o),
(186,-12,o),
(320,-12,cs),
(454,-12,o),
(556,60,o),
(556,271,cs),
(556,656,l),
(476,656,l),
(476,269,ls),
(476,111,o),
(407,61,o),
(320,61,cs),
(235,61,o),
(168,111,o),
(168,269,cs),
(168,656,l),
(84,656,l)
);
},
{
closed = 1;
nodes = (
(282,950,l),
(191,950,l),
(304,839,l),
(371,839,l)
);
},
{
closed = 1;
nodes = (
(433,715,o),
(452,734,o),
(452,761,cs),
(452,787,o),
(433,806,o),
(407,806,cs),
(380,806,o),
(361,787,o),
(361,761,cs),
(361,734,o),
(380,715,o),
(407,715,cs)
);
},
{
closed = 1;
nodes = (
(260,715,o),
(279,734,o),
(279,761,cs),
(279,787,o),
(260,806,o),
(234,806,cs),
(208,806,o),
(189,787,o),
(189,761,cs),
(189,734,o),
(208,715,o),
(234,715,cs)
);
}
);
width = 640;
}
);
note = uni01DB;
unicode = 475;
},
{
glyphname = uni1EE4;
kernLeft = U;
kernRight = U;
lastChange = "2023-11-07 07:31:52 +0000";
layers = (
{
hints = (
{
horizontal = 1;
place = (-206,107);
type = Stem;
},
{
horizontal = 1;
place = (-12,73);
type = Stem;
},
{
horizontal = 1;
place = (656,-20);
target = down;
type = TopGhost;
},
{
place = (84,84);
type = Stem;
},
{
place = (266,108);
type = Stem;
},
{
place = (476,80);
type = Stem;
}
);
layerId = "8B4EFE1E-6C47-485C-9646-016EA71CC488";
shapes = (
{
closed = 1;
nodes = (
(84,271,ls),
(84,60,o),
(186,-12,o),
(320,-12,cs),
(454,-12,o),
(556,60,o),
(556,271,cs),
(556,656,l),
(476,656,l),
(476,269,ls),
(476,111,o),
(407,61,o),
(320,61,cs),
(235,61,o),
(168,111,o),
(168,269,cs),
(168,656,l),
(84,656,l)
);
},
{
closed = 1;
nodes = (
(351,-206,o),
(374,-184,o),
(374,-152,cs),
(374,-121,o),
(351,-99,o),
(320,-99,cs),
(289,-99,o),
(266,-121,o),
(266,-152,cs),
(266,-184,o),
(289,-206,o),
(320,-206,cs)
);
}
);
width = 640;
}
);
note = uni1EE4;
unicode = 7908;
},
{
glyphname = uni1EE6;
kernLeft = U;
kernRight = U;
lastChange = "2023-11-07 07:31:52 +0000";
layers = (
{
hints = (
{
horizontal = 1;
place = (-12,73);
type = Stem;
},
{
horizontal = 1;
place = (656,-20);
target = down;
type = TopGhost;
},
{
horizontal = 1;
place = (824,48);
type = Stem;
},
{
place = (84,84);
type = Stem;
},
{
place = (339,64);
type = Stem;
},
{
place = (476,80);
type = Stem;
}
);
layerId = "8B4EFE1E-6C47-485C-9646-016EA71CC488";
shapes = (
{
closed = 1;
nodes = (
(84,271,ls),
(84,60,o),
(186,-12,o),
(320,-12,cs),
(454,-12,o),
(556,60,o),
(556,271,cs),
(556,656,l),
(476,656,l),
(476,269,ls),
(476,111,o),
(407,61,o),
(320,61,cs),
(235,61,o),
(168,111,o),
(168,269,cs),
(168,656,l),
(84,656,l)
);
},
{
closed = 1;
nodes = (
(292,698,l),
(350,708,o),
(403,733,o),
(403,791,cs),
(403,842,o),
(352,869,o),
(265,872,c),
(256,824,l),
(312,822,o),
(339,808,o),
(339,782,cs),
(339,757,o),
(315,745,o),
(283,736,c)
);
}
);
width = 640;
}
);
note = uni1EE6;
unicode = 7910;
},
{
glyphname = Uogonek;
kernLeft = U;
kernRight = U;
lastChange = "2023-11-07 07:31:52 +0000";
layers = (
{
hints = (
{
horizontal = 1;
place = (-212,59);
type = Stem;
},
{
horizontal = 1;
place = (-11,72);
type = Stem;
},
{
horizontal = 1;
place = (656,-20);
target = down;
type = TopGhost;
},
{
place = (84,84);
type = Stem;
},
{
place = (252,64);
type = Stem;
},
{
place = (476,80);
type = Stem;
}
);
layerId = "8B4EFE1E-6C47-485C-9646-016EA71CC488";
shapes = (
{
closed = 1;
nodes = (
(84,271,ls),
(84,69,o),
(178,-8,o),
(316,-11,c),
(291,-36,o),
(252,-70,o),
(252,-125,cs),
(252,-182,o),
(295,-212,o),
(347,-212,cs),
(374,-212,o),
(408,-199,o),
(427,-184,c),
(404,-139,l),
(392,-148,o),
(380,-153,o),
(364,-153,cs),
(340,-153,o),
(316,-138,o),
(316,-107,cs),
(316,-74,o),
(344,-32,o),
(396,-7,cs),
(491,38,o),
(556,94,o),
(556,271,cs),
(556,656,l),
(476,656,l),
(476,269,ls),
(476,111,o),
(407,61,o),
(320,61,cs),
(235,61,o),
(168,111,o),
(168,269,cs),
(168,656,l),
(84,656,l)
);
}
);
width = 640;
}
);
note = Uogonek;
unicode = 370;
},
{
glyphname = Uhorn;
kernLeft = U;
kernRight = Uhorn;
lastChange = "2023-11-07 07:31:52 +0000";
layers = (
{
hints = (
{
horizontal = 1;
place = (-12,73);
type = Stem;
},
{
horizontal = 1;
place = (656,-20);
target = down;
type = TopGhost;
},
{
place = (84,84);
type = Stem;
},
{
place = (476,80);
type = Stem;
},
{
place = (598,68);
type = Stem;
}
);
layerId = "8B4EFE1E-6C47-485C-9646-016EA71CC488";
shapes = (
{
closed = 1;
nodes = (
(583,764,l),
(592,751,o),
(598,738,o),
(598,723,cs),
(598,677,o),
(564,663,o),
(511,656,c),
(476,656,l),
(476,269,ls),
(476,111,o),
(407,61,o),
(320,61,cs),
(235,61,o),
(168,111,o),
(168,269,cs),
(168,656,l),
(84,656,l),
(84,271,ls),
(84,60,o),
(186,-12,o),
(320,-12,cs),
(454,-12,o),
(556,60,o),
(556,271,cs),
(556,620,l),
(615,633,o),
(666,662,o),
(666,728,cs),
(666,753,o),
(656,775,o),
(643,793,c)
);
}
);
width = 654;
}
);
note = Uhorn;
unicode = 431;
},
{
glyphname = uni1EE8;
kernLeft = U;
kernRight = Uhorn;
lastChange = "2023-11-07 07:31:52 +0000";
layers = (
{
hints = (
{
horizontal = 1;
place = (-12,73);
type = Stem;
},
{
horizontal = 1;
place = (656,-20);
target = down;
type = TopGhost;
},
{
horizontal = 1;
place = (706,112);
type = Stem;
},
{
place = (84,84);
type = Stem;
},
{
place = (476,80);
type = Stem;
},
{
place = (598,68);
type = Stem;
}
);
layerId = "8B4EFE1E-6C47-485C-9646-016EA71CC488";
shapes = (
{
closed = 1;
nodes = (
(451,818,l),
(357,818,l),
(268,706,l),
(337,706,l)
);
},
{
closed = 1;
nodes = (
(583,764,l),
(592,751,o),
(598,738,o),
(598,723,cs),
(598,677,o),
(564,663,o),
(511,656,c),
(476,656,l),
(476,269,ls),
(476,111,o),
(407,61,o),
(320,61,cs),
(235,61,o),
(168,111,o),
(168,269,cs),
(168,656,l),
(84,656,l),
(84,271,ls),
(84,60,o),
(186,-12,o),
(320,-12,cs),
(454,-12,o),
(556,60,o),
(556,271,cs),
(556,620,l),
(615,633,o),
(666,662,o),
(666,728,cs),
(666,753,o),
(656,775,o),
(643,793,c)
);
}
);
width = 654;
}
);
note = uni1EE8;
unicode = 7912;
},
{
glyphname = uni1EEA;
kernLeft = U;
kernRight = Uhorn;
lastChange = "2023-11-07 07:31:52 +0000";
layers = (
{
hints = (
{
horizontal = 1;
place = (-12,73);
type = Stem;
},
{
horizontal = 1;
place = (656,-20);
target = down;
type = TopGhost;
},
{
horizontal = 1;
place = (706,112);
type = Stem;
},
{
place = (84,84);
type = Stem;
},
{
place = (476,80);
type = Stem;
},
{
place = (598,68);
type = Stem;
}
);
layerId = "8B4EFE1E-6C47-485C-9646-016EA71CC488";
shapes = (
{
closed = 1;
nodes = (
(371,706,l),
(283,818,l),
(189,818,l),
(302,706,l)
);
},
{
closed = 1;
nodes = (
(583,764,l),
(592,751,o),
(598,738,o),
(598,723,cs),
(598,677,o),
(564,663,o),
(511,656,c),
(476,656,l),
(476,269,ls),
(476,111,o),
(407,61,o),
(320,61,cs),
(235,61,o),
(168,111,o),
(168,269,cs),
(168,656,l),
(84,656,l),
(84,271,ls),
(84,60,o),
(186,-12,o),
(320,-12,cs),
(454,-12,o),
(556,60,o),
(556,271,cs),
(556,620,l),
(615,633,o),
(666,662,o),
(666,728,cs),
(666,753,o),
(656,775,o),
(643,793,c)
);
}
);
width = 654;
}
);
note = uni1EEA;
unicode = 7914;
},
{
glyphname = uni1EEC;
kernLeft = U;
kernRight = Uhorn;
lastChange = "2023-11-07 07:31:52 +0000";
layers = (
{
hints = (
{
horizontal = 1;
place = (-12,73);
type = Stem;
},
{
horizontal = 1;
place = (656,-20);
target = down;
type = TopGhost;
},
{
horizontal = 1;
place = (824,48);
type = Stem;
},
{
place = (84,84);
type = Stem;
},
{
place = (339,63);
type = Stem;
},
{
place = (476,80);
type = Stem;
},
{
place = (598,68);
type = Stem;
}
);
layerId = "8B4EFE1E-6C47-485C-9646-016EA71CC488";
shapes = (
{
closed = 1;
nodes = (
(292,698,l),
(350,708,o),
(402,733,o),
(402,791,cs),
(402,842,o),
(352,869,o),
(264,872,c),
(256,824,l),
(311,822,o),
(339,808,o),
(339,782,cs),
(339,757,o),
(314,745,o),
(282,736,c)
);
},
{
closed = 1;
nodes = (
(583,764,l),
(592,751,o),
(598,738,o),
(598,723,cs),
(598,677,o),
(564,663,o),
(511,656,c),
(476,656,l),
(476,269,ls),
(476,111,o),
(407,61,o),
(320,61,cs),
(235,61,o),
(168,111,o),
(168,269,cs),
(168,656,l),
(84,656,l),
(84,271,ls),
(84,60,o),
(186,-12,o),
(320,-12,cs),
(454,-12,o),
(556,60,o),
(556,271,cs),
(556,620,l),
(615,633,o),
(666,662,o),
(666,728,cs),
(666,753,o),
(656,775,o),
(643,793,c)
);
}
);
width = 654;
}
);
note = uni1EEC;
unicode = 7916;
},
{
glyphname = uni1EEE;
kernLeft = U;
kernRight = Uhorn;
lastChange = "2023-11-07 07:31:52 +0000";
layers = (
{
hints = (
{
horizontal = 1;
place = (-12,73);
type = Stem;
},
{
horizontal = 1;
place = (656,-20);
target = down;
type = TopGhost;
},
{
horizontal = 1;
place = (711,56);
type = Stem;
},
{
place = (175,46);
type = Stem;
},
{
place = (419,45);
type = Stem;
},
{
place = (476,80);
type = Stem;
},
{
horizontal = 1;
place = (763,56);
type = Stem;
},
{
place = (84,84);
type = Stem;
},
{
place = (598,68);
type = Stem;
}
);
layerId = "8B4EFE1E-6C47-485C-9646-016EA71CC488";
shapes = (
{
closed = 1;
nodes = (
(419,819,l),
(413,786,o),
(398,767,o),
(378,767,cs),
(341,767,o),
(312,819,o),
(259,819,cs),
(212,819,o),
(181,773,o),
(175,711,c),
(221,711,l),
(226,745,o),
(241,763,o),
(261,763,cs),
(298,763,o),
(327,711,o),
(380,711,cs),
(427,711,o),
(458,758,o),
(464,819,c)
);
},
{
closed = 1;
nodes = (
(583,764,l),
(592,751,o),
(598,738,o),
(598,723,cs),
(598,677,o),
(564,663,o),
(511,656,c),
(476,656,l),
(476,269,ls),
(476,111,o),
(407,61,o),
(320,61,cs),
(235,61,o),
(168,111,o),
(168,269,cs),
(168,656,l),
(84,656,l),
(84,271,ls),
(84,60,o),
(186,-12,o),
(320,-12,cs),
(454,-12,o),
(556,60,o),
(556,271,cs),
(556,620,l),
(615,633,o),
(666,662,o),
(666,728,cs),
(666,753,o),
(656,775,o),
(643,793,c)
);
}
);
width = 654;
}
);
note = uni1EEE;
unicode = 7918;
},
{
glyphname = uni1EF0;
kernLeft = U;
kernRight = Uhorn;
lastChange = "2023-11-07 07:31:52 +0000";
layers = (
{
hints = (
{
horizontal = 1;
place = (-206,107);
type = Stem;
},
{
horizontal = 1;
place = (-12,73);
type = Stem;
},
{
horizontal = 1;
place = (656,-20);
target = down;
type = TopGhost;
},
{
place = (84,84);
type = Stem;
},
{
place = (265,109);
type = Stem;
},
{
place = (476,80);
type = Stem;
},
{
place = (598,68);
type = Stem;
}
);
layerId = "8B4EFE1E-6C47-485C-9646-016EA71CC488";
shapes = (
{
closed = 1;
nodes = (
(288,-99,o),
(265,-121,o),
(265,-152,cs),
(265,-184,o),
(288,-206,o),
(320,-206,cs),
(351,-206,o),
(374,-184,o),
(374,-152,cs),
(374,-121,o),
(351,-99,o),
(320,-99,cs)
);
},
{
closed = 1;
nodes = (
(583,764,l),
(592,751,o),
(598,738,o),
(598,723,cs),
(598,677,o),
(564,663,o),
(511,656,c),
(476,656,l),
(476,269,ls),
(476,111,o),
(407,61,o),
(320,61,cs),
(235,61,o),
(168,111,o),
(168,269,cs),
(168,656,l),
(84,656,l),
(84,271,ls),
(84,60,o),
(186,-12,o),
(320,-12,cs),
(454,-12,o),
(556,60,o),
(556,271,cs),
(556,620,l),
(615,633,o),
(666,662,o),
(666,728,cs),
(666,753,o),
(656,775,o),
(643,793,c)
);
}
);
width = 654;
}
);
note = uni1EF0;
unicode = 7920;
},
{
glyphname = Wgrave;
kernLeft = W;
kernRight = W;
lastChange = "2023-11-07 07:31:52 +0000";
layers = (
{
hints = (
{
horizontal = 1;
place = (0,87);
type = Stem;
},
{
horizontal = 1;
place = (656,-20);
target = down;
type = TopGhost;
},
{
horizontal = 1;
place = (706,112);
type = Stem;
},
{
place = (20,740);
type = Stem;
},
{
horizontal = 1;
place = (544,112);
type = Stem;
}
);
layerId = "8B4EFE1E-6C47-485C-9646-016EA71CC488";
shapes = (
{
closed = 1;
nodes = (
(159,0,l),
(258,0,l),
(356,395,ls),
(367,446,o),
(378,493,o),
(389,544,c),
(393,544,l),
(402,493,o),
(413,446,o),
(424,395,cs),
(523,0,l),
(624,0,l),
(760,656,l),
(679,656,l),
(610,299,ls),
(598,229,o),
(586,158,o),
(573,87,c),
(569,87,l),
(553,158,o),
(537,230,o),
(522,299,c),
(431,656,l),
(355,656,l),
(264,299,ls),
(248,229,o),
(232,158,o),
(218,87,c),
(214,87,l),
(201,158,o),
(188,228,o),
(175,299,cs),
(106,656,l),
(20,656,l)
);
},
{
closed = 1;
nodes = (
(373,706,l),
(442,706,l),
(354,818,l),
(259,818,l)
);
}
);
width = 781;
}
);
note = Wgrave;
unicode = 7808;
},
{
glyphname = Wacute;
kernLeft = W;
kernRight = W;
lastChange = "2023-11-07 07:31:52 +0000";
layers = (
{
hints = (
{
horizontal = 1;
place = (0,87);
type = Stem;
},
{
horizontal = 1;
place = (656,-20);
target = down;
type = TopGhost;
},
{
horizontal = 1;
place = (706,112);
type = Stem;
},
{
place = (20,740);
type = Stem;
},
{
horizontal = 1;
place = (544,112);
type = Stem;
}
);
layerId = "8B4EFE1E-6C47-485C-9646-016EA71CC488";
shapes = (
{
closed = 1;
nodes = (
(159,0,l),
(258,0,l),
(356,395,ls),
(367,446,o),
(378,493,o),
(389,544,c),
(393,544,l),
(402,493,o),
(413,446,o),
(424,395,cs),
(523,0,l),
(624,0,l),
(760,656,l),
(679,656,l),
(610,299,ls),
(598,229,o),
(586,158,o),
(573,87,c),
(569,87,l),
(553,158,o),
(537,230,o),
(522,299,c),
(431,656,l),
(355,656,l),
(264,299,ls),
(248,229,o),
(232,158,o),
(218,87,c),
(214,87,l),
(201,158,o),
(188,228,o),
(175,299,cs),
(106,656,l),
(20,656,l)
);
},
{
closed = 1;
nodes = (
(522,818,l),
(427,818,l),
(339,706,l),
(408,706,l)
);
}
);
width = 781;
}
);
note = Wacute;
unicode = 7810;
},
